<svg width="18" height="18" viewBox="0 0 18 18" fill="none" xmlns="http://www.w3.org/2000/svg">
<g clip-path="url(#clip0)">
<path d="M14.9625 4.15202L12.348 1.53752C11.8617 1.04858 11.2832 0.660936 10.6461 0.397026C10.009 0.133116 9.32586 -0.00182292 8.63625 1.85971e-05H5.25C4.2558 0.00120949 3.30267 0.39668 2.59966 1.09968C1.89666 1.80269 1.50119 2.75582 1.5 3.75002V14.25C1.50119 15.2442 1.89666 16.1973 2.59966 16.9004C3.30267 17.6034 4.2558 17.9988 5.25 18H12.75C13.7442 17.9988 14.6973 17.6034 15.4003 16.9004C16.1033 16.1973 16.4988 15.2442 16.5 14.25V7.86377C16.5018 7.17416 16.3669 6.49103 16.103 5.85391C15.8391 5.21679 15.4514 4.63834 14.9625 4.15202ZM13.902 5.21252C14.1308 5.44832 14.3277 5.71308 14.4877 6.00002H11.25C11.0511 6.00002 10.8603 5.921 10.7197 5.78035C10.579 5.6397 10.5 5.44893 10.5 5.25002V2.01227C10.7869 2.17231 11.0517 2.36923 11.2875 2.59802L13.902 5.21252ZM15 14.25C15 14.8468 14.7629 15.4191 14.341 15.841C13.919 16.263 13.3467 16.5 12.75 16.5H5.25C4.65326 16.5 4.08097 16.263 3.65901 15.841C3.23705 15.4191 3 14.8468 3 14.25V3.75002C3 3.15328 3.23705 2.58099 3.65901 2.15903C4.08097 1.73707 4.65326 1.50002 5.25 1.50002H8.63625C8.76 1.50002 8.8785 1.52402 9 1.53527V5.25002C9 5.84676 9.23705 6.41905 9.65901 6.84101C10.081 7.26297 10.6533 7.50002 11.25 7.50002H14.9647C14.976 7.62152 15 7.74002 15 7.86377V14.25ZM12.543 9.98327C12.6799 10.1273 12.7541 10.3199 12.7492 10.5186C12.7443 10.7173 12.6607 10.9059 12.5167 11.043L9.825 13.6035C9.40188 14.02 8.83131 14.2523 8.23762 14.2499C7.64394 14.2476 7.07525 14.0106 6.6555 13.5908L5.5005 12.5603C5.35191 12.4278 5.26204 12.2417 5.25064 12.043C5.245 11.9446 5.2588 11.846 5.29125 11.7529C5.32369 11.6599 5.37415 11.5741 5.43975 11.5005C5.50535 11.4269 5.58479 11.367 5.67355 11.3241C5.7623 11.2813 5.85864 11.2563 5.95704 11.2507C6.15578 11.2393 6.35091 11.3073 6.4995 11.4398L7.68825 12.5003C7.7563 12.5767 7.83927 12.6384 7.93206 12.6815C8.02484 12.7247 8.12548 12.7484 8.22777 12.7512C8.33006 12.754 8.43184 12.7359 8.52686 12.6979C8.62187 12.6599 8.7081 12.6028 8.78025 12.5303L11.4803 9.95702C11.5516 9.88875 11.6358 9.83527 11.7279 9.79962C11.8201 9.76398 11.9183 9.74689 12.0171 9.74933C12.1158 9.75177 12.2131 9.77369 12.3034 9.81384C12.3936 9.85398 12.4751 9.91156 12.543 9.98327Z" fill="#8690AC"/>
</g>
<defs>
<clipPath id="clip0">
<rect width="18" height="18" fill="white"/>
</clipPath>
</defs>
</svg>
