<svg width="22" height="18" viewBox="0 0 22 18" fill="none" xmlns="http://www.w3.org/2000/svg">
<path d="M19.2841 1.07072C19.0804 0.936895 18.8767 0.869981 18.6051 0.936895L1.15448 7.62835C0.882873 7.69526 0.74707 7.96292 0.74707 8.23058C0.74707 8.49823 0.882873 8.69898 1.08658 8.83281L5.63596 11.041C5.83966 11.1079 6.04337 11.1079 6.24707 11.041L9.57423 9.16738L7.7409 10.7733C7.60509 10.9072 7.53719 11.1079 7.53719 11.2417V16.4611C7.53719 16.7287 7.7409 16.9964 8.0125 17.0633C8.28411 17.1302 8.55571 17.0633 8.75942 16.8625L10.6607 14.3198L15.4816 16.9964C15.6174 17.0633 15.6853 17.0633 15.8211 17.0633C15.889 17.0633 16.0248 17.0633 16.0927 16.9964C16.2965 16.9295 16.4323 16.7287 16.5002 16.528L19.5557 1.60604C19.6236 1.4053 19.4878 1.20455 19.2841 1.07072ZM8.96312 11.5094L15.5495 5.75474C15.889 5.48708 15.8211 5.08559 15.6174 4.88485C15.4816 4.68411 15.1421 4.48336 14.7347 4.68411L5.90756 9.70269L3.05571 8.29749L17.994 2.54284L15.3458 15.3904L10.8644 12.9146C10.7286 12.8477 10.6607 12.8477 10.5248 12.8477C10.3211 12.8477 10.1174 12.9146 9.98164 13.1153L8.89522 14.5205V11.5094H8.96312Z" fill="#8690AC"/>
</svg>
