<svg width="18" height="18" viewBox="0 0 18 18" fill="none" xmlns="http://www.w3.org/2000/svg">
<path d="M12 4.5C12.1989 4.5 12.3897 4.57902 12.5303 4.71967C12.671 4.86032 12.75 5.05109 12.75 5.25C12.75 5.44891 12.671 5.63968 12.5303 5.78033C12.3897 5.92098 12.1989 6 12 6H6C5.80109 6 5.61032 5.92098 5.46967 5.78033C5.32902 5.63968 5.25 5.44891 5.25 5.25C5.25 5.05109 5.32902 4.86032 5.46967 4.71967C5.61032 4.57902 5.80109 4.5 6 4.5H12ZM17.7803 17.7803C17.6396 17.9209 17.4489 17.9998 17.25 17.9998C17.0511 17.9998 16.8604 17.9209 16.7197 17.7803L14.9145 15.975C14.3799 16.3162 13.7592 16.4983 13.125 16.5C12.4575 16.5 11.805 16.3021 11.25 15.9312C10.6949 15.5604 10.2624 15.0333 10.0069 14.4166C9.75146 13.7999 9.68462 13.1213 9.81485 12.4666C9.94507 11.8119 10.2665 11.2105 10.7385 10.7385C11.2105 10.2665 11.8119 9.94507 12.4666 9.81485C13.1213 9.68462 13.7999 9.75146 14.4166 10.0069C15.0333 10.2624 15.5604 10.6949 15.9312 11.25C16.3021 11.805 16.5 12.4575 16.5 13.125C16.4983 13.7592 16.3162 14.3799 15.975 14.9145L17.7803 16.7197C17.9209 16.8604 17.9998 17.0511 17.9998 17.25C17.9998 17.4489 17.9209 17.6396 17.7803 17.7803ZM13.125 15C13.4958 15 13.8584 14.89 14.1667 14.684C14.475 14.478 14.7154 14.1851 14.8573 13.8425C14.9992 13.4999 15.0363 13.1229 14.964 12.7592C14.8916 12.3955 14.713 12.0614 14.4508 11.7992C14.1886 11.537 13.8545 11.3584 13.4908 11.286C13.1271 11.2137 12.7501 11.2508 12.4075 11.3927C12.0649 11.5346 11.772 11.775 11.566 12.0833C11.36 12.3916 11.25 12.7542 11.25 13.125C11.25 13.6223 11.4475 14.0992 11.7992 14.4508C12.1508 14.8025 12.6277 15 13.125 15ZM9.75 16.5H5.25C4.65326 16.5 4.08097 16.2629 3.65901 15.841C3.23705 15.419 3 14.8467 3 14.25V3.75C3 3.15326 3.23705 2.58097 3.65901 2.15901C4.08097 1.73705 4.65326 1.5 5.25 1.5H14.25C14.4489 1.5 14.6397 1.57902 14.7803 1.71967C14.921 1.86032 15 2.05109 15 2.25V8.25C15 8.44891 15.079 8.63968 15.2197 8.78033C15.3603 8.92098 15.5511 9 15.75 9C15.9489 9 16.1397 8.92098 16.2803 8.78033C16.421 8.63968 16.5 8.44891 16.5 8.25V2.25C16.5 1.65326 16.2629 1.08097 15.841 0.65901C15.419 0.237053 14.8467 0 14.25 0L5.25 0C4.2558 0.00119089 3.30267 0.396661 2.59966 1.09966C1.89666 1.80267 1.50119 2.7558 1.5 3.75V14.25C1.50119 15.2442 1.89666 16.1973 2.59966 16.9003C3.30267 17.6033 4.2558 17.9988 5.25 18H9.75C9.94891 18 10.1397 17.921 10.2803 17.7803C10.421 17.6397 10.5 17.4489 10.5 17.25C10.5 17.0511 10.421 16.8603 10.2803 16.7197C10.1397 16.579 9.94891 16.5 9.75 16.5Z" fill="white"/>
</svg>
