<svg width="18" height="18" viewBox="0 0 18 18" fill="none" xmlns="http://www.w3.org/2000/svg">
<path d="M13.5264 13.1094L13.3027 13.1839L13.3772 13.4076C13.5264 13.855 13.6009 14.3769 13.5264 14.8988V17.1356C13.5264 17.5084 13.2281 17.8067 12.8553 17.8812C12.4825 17.8812 12.1097 17.583 12.1097 17.1356V14.7497C12.1843 14.1532 11.9606 13.5567 11.5878 13.1094C11.4387 12.9602 11.3641 12.8111 11.3641 12.5874C11.3641 12.3638 11.4387 12.2146 11.5878 12.0655C11.6623 11.991 11.8115 11.9164 11.9606 11.9164C14.272 11.6182 16.4342 10.8725 16.4342 6.84627C16.4342 6.10067 16.2105 5.35506 15.7632 4.68401C15.3904 4.16209 15.3158 3.5656 15.3904 2.96912C15.4649 2.52176 15.4649 2.07439 15.3904 1.62703L15.4649 1.40335L15.3158 1.47791C14.5702 1.70159 13.9737 2.07439 13.3772 2.52176C13.2281 2.67088 13.0044 2.67088 12.7808 2.59632C11.0659 2.14895 9.35096 2.14895 7.63607 2.59632C7.41239 2.67088 7.18871 2.59632 7.03958 2.52176C6.4431 2.07439 5.77205 1.70159 5.02645 1.47791L4.80277 1.40335L4.72821 1.62703C4.65364 2.07439 4.65364 2.52176 4.72821 2.96912C4.80277 3.5656 4.72821 4.23665 4.3554 4.75857C3.90804 5.42962 3.68436 6.17523 3.68436 6.92083C3.68436 10.798 5.84661 11.6182 8.158 11.9164C8.45624 11.991 8.67992 12.1401 8.75448 12.3638C8.82904 12.5874 8.75448 12.8857 8.60536 13.1094C8.23255 13.5567 8.00887 14.0787 8.08343 14.6751V17.1356C8.08343 17.5084 7.78519 17.8812 7.33783 17.8812C6.96502 17.8812 6.59222 17.583 6.59222 17.1356V16.39H6.36854C4.57908 16.6137 2.86419 15.8681 1.74578 14.526C1.44754 14.1532 1.07473 13.855 0.552808 13.6313C0.403687 13.5567 0.180005 13.4822 0.105445 13.333C0.030884 13.1839 -0.0436766 12.9602 0.030884 12.8111C0.105445 12.4383 0.552809 12.2146 0.851051 12.2892C1.5221 12.5129 2.11858 12.9602 2.64051 13.4822C3.6098 14.4515 4.57908 15.2716 6.36854 14.8988L6.51766 14.8243V14.6751C6.51766 14.2278 6.59222 13.7804 6.74134 13.333L6.8159 13.1094L6.59222 13.0348C3.68436 12.2892 2.19314 10.2015 2.19314 6.84627C2.19314 5.80242 2.49138 4.75857 3.08787 3.93841C3.23699 3.71473 3.31155 3.49104 3.23699 3.1928C3.08787 2.29807 3.16243 1.32879 3.53523 0.434057C3.6098 0.210376 3.75892 0.0612542 3.9826 0.0612542C4.28084 -0.0133064 5.32469 -0.236988 7.41239 1.1051L7.48695 1.17966H7.56151C9.20184 0.7323 10.9913 0.7323 12.6316 1.17966H12.7062L12.7808 1.1051C14.943 -0.236988 15.9869 -0.0133064 16.2105 0.0612542C16.4342 0.135815 16.5833 0.284936 16.6579 0.434057C17.0307 1.32879 17.1053 2.29807 16.9562 3.26736C16.8816 3.49104 16.9562 3.71473 17.1053 3.93841C17.7018 4.83314 18 5.80242 18 6.92083C17.9254 10.3506 16.4342 12.5129 13.5264 13.1094Z" fill="#8690AC"/>
</svg>
