<svg width="18" height="18" viewBox="0 0 18 18" fill="none" xmlns="http://www.w3.org/2000/svg">
<g clip-path="url(#clip0)">
<path d="M17.2502 9.00005C17.0669 8.9979 16.8894 9.06419 16.7523 9.18597C16.6153 9.30775 16.5286 9.47626 16.5092 9.65855C16.3857 11.0866 15.855 12.4492 14.9801 13.5846C14.1053 14.72 12.9229 15.5805 11.5735 16.064C10.2242 16.5474 8.76438 16.6335 7.36753 16.3119C5.97068 15.9904 4.69544 15.2748 3.6932 14.2501H5.75195C5.95087 14.2501 6.14163 14.171 6.28228 14.0304C6.42294 13.8897 6.50195 13.699 6.50195 13.5001C6.50195 13.3011 6.42294 13.1104 6.28228 12.9697C6.14163 12.8291 5.95087 12.7501 5.75195 12.7501H2.75195C2.35413 12.7501 1.9726 12.9081 1.69129 13.1894C1.40999 13.4707 1.25195 13.8522 1.25195 14.2501V17.2501C1.25195 17.449 1.33097 17.6397 1.47162 17.7804C1.61228 17.921 1.80304 18.0001 2.00195 18.0001C2.20087 18.0001 2.39163 17.921 2.53228 17.7804C2.67294 17.6397 2.75195 17.449 2.75195 17.2501V15.4216C3.96489 16.6156 5.49209 17.4404 7.15568 17.8C8.81928 18.1596 10.5508 18.0392 12.1486 17.4528C13.7464 16.8663 15.1447 15.838 16.1807 14.4876C17.2167 13.1372 17.8477 11.5202 18.0002 9.82505C18.0099 9.72061 17.9977 9.61529 17.9645 9.51581C17.9312 9.41633 17.8776 9.32488 17.807 9.24726C17.7365 9.16965 17.6505 9.10758 17.5546 9.06502C17.4588 9.02246 17.3551 9.00033 17.2502 9.00005Z" fill="#8690AC"/>
<path d="M15.9981 7.44092e-05C15.7991 7.44092e-05 15.6084 0.079092 15.4677 0.219744C15.3271 0.360397 15.2481 0.551162 15.2481 0.750075V2.57857C14.0351 1.38456 12.5079 0.559715 10.8443 0.200105C9.18073 -0.159506 7.4492 -0.0390808 5.8514 0.547354C4.25359 1.13379 2.85528 2.1621 1.8193 3.51252C0.783332 4.86294 0.152337 6.4799 -0.000189921 8.17507C-0.00987739 8.27952 0.00229691 8.38483 0.0355573 8.48431C0.0688176 8.58379 0.122435 8.67525 0.192992 8.75286C0.26355 8.83048 0.349501 8.89254 0.445369 8.93511C0.541237 8.97767 0.644919 8.99979 0.74981 9.00008C0.933123 9.00222 1.11065 8.93593 1.24768 8.81415C1.38472 8.69238 1.47141 8.52387 1.49081 8.34157C1.6143 6.91353 2.14499 5.55091 3.01987 4.4155C3.89475 3.2801 5.07708 2.41959 6.42647 1.93616C7.77586 1.45272 9.23564 1.36666 10.6325 1.68819C12.0293 2.00972 13.3046 2.72533 14.3068 3.75007H12.2481C12.0491 3.75007 11.8584 3.82909 11.7177 3.96974C11.5771 4.1104 11.4981 4.30116 11.4981 4.50007C11.4981 4.69899 11.5771 4.88975 11.7177 5.0304C11.8584 5.17106 12.0491 5.25007 12.2481 5.25007H15.2481C15.6459 5.25007 16.0274 5.09204 16.3087 4.81073C16.59 4.52943 16.7481 4.1479 16.7481 3.75007V0.750075C16.7481 0.551162 16.669 0.360397 16.5284 0.219744C16.3877 0.079092 16.197 7.44092e-05 15.9981 7.44092e-05Z" fill="#8690AC"/>
</g>
<defs>
<clipPath id="clip0">
<rect width="18" height="18" fill="white"/>
</clipPath>
</defs>
</svg>
