<svg width="18" height="18" viewBox="0 0 18 18" fill="none" xmlns="http://www.w3.org/2000/svg">
<g clip-path="url(#clip0)">
<path d="M14.6512 2.34152L13.4093 1.09802C13.0618 0.748749 12.6484 0.471869 12.1932 0.283398C11.738 0.094927 11.2499 -0.00139199 10.7572 1.51991e-05H6C5.0058 0.00120609 4.05267 0.396677 3.34966 1.09968C2.64666 1.80268 2.25119 2.75582 2.25 3.75002V14.25C2.25119 15.2442 2.64666 16.1973 3.34966 16.9004C4.05267 17.6034 5.0058 17.9988 6 18H12C12.9942 17.9988 13.9473 17.6034 14.6503 16.9004C15.3533 16.1973 15.7488 15.2442 15.75 14.25V4.99276C15.7512 4.50015 15.6547 4.01219 15.4661 3.55711C15.2775 3.10203 15.0006 2.68886 14.6512 2.34152ZM13.5907 3.40201C13.6971 3.508 13.7924 3.62461 13.875 3.75002H12V1.87502C12.1252 1.95851 12.242 2.05395 12.3488 2.16002L13.5907 3.40201ZM14.25 14.25C14.25 14.8468 14.0129 15.419 13.591 15.841C13.169 16.263 12.5967 16.5 12 16.5H6C5.40326 16.5 4.83097 16.263 4.40901 15.841C3.98705 15.419 3.75 14.8468 3.75 14.25V3.75002C3.75 3.15328 3.98705 2.58098 4.40901 2.15902C4.83097 1.73707 5.40326 1.50002 6 1.50002H10.5V3.75002C10.5 4.14784 10.658 4.52937 10.9393 4.81068C11.2206 5.09198 11.6022 5.25001 12 5.25002H14.25V14.25ZM12 6.75002C12.1989 6.75002 12.3897 6.82903 12.5303 6.96969C12.671 7.11034 12.75 7.3011 12.75 7.50002C12.75 7.69893 12.671 7.88969 12.5303 8.03034C12.3897 8.171 12.1989 8.25002 12 8.25002H6C5.80109 8.25002 5.61032 8.171 5.46967 8.03034C5.32902 7.88969 5.25 7.69893 5.25 7.50002C5.25 7.3011 5.32902 7.11034 5.46967 6.96969C5.61032 6.82903 5.80109 6.75002 6 6.75002H12ZM12.75 10.5C12.75 10.6989 12.671 10.8897 12.5303 11.0303C12.3897 11.171 12.1989 11.25 12 11.25H6C5.80109 11.25 5.61032 11.171 5.46967 11.0303C5.32902 10.8897 5.25 10.6989 5.25 10.5C5.25 10.3011 5.32902 10.1103 5.46967 9.96968C5.61032 9.82903 5.80109 9.75002 6 9.75002H12C12.1989 9.75002 12.3897 9.82903 12.5303 9.96968C12.671 10.1103 12.75 10.3011 12.75 10.5ZM12.606 13.0598C12.7226 13.2202 12.7709 13.4202 12.7404 13.6161C12.7099 13.812 12.6031 13.9879 12.4432 14.1053C11.6834 14.6467 10.7834 14.9574 9.85125 15C9.30666 14.9974 8.77861 14.8126 8.35125 14.475C8.10525 14.3063 8.0115 14.25 7.82625 14.25C7.32482 14.3276 6.85171 14.5327 6.45225 14.8455C6.29381 14.9585 6.09768 15.0054 5.90527 14.9765C5.71286 14.9475 5.53924 14.8449 5.42106 14.6903C5.30289 14.5357 5.24942 14.3413 5.27194 14.148C5.29445 13.9547 5.3912 13.7778 5.54175 13.6545C6.20263 13.1415 6.99621 12.8277 7.82925 12.75C8.32885 12.758 8.81184 12.9307 9.20325 13.2413C9.38166 13.4017 9.61137 13.4935 9.85125 13.5C10.4645 13.4541 11.0542 13.2445 11.559 12.8933C11.72 12.7766 11.9206 12.7286 12.117 12.7598C12.3133 12.791 12.4892 12.8989 12.606 13.0598Z" fill="#8690AC"/>
</g>
<defs>
<clipPath id="clip0">
<rect width="18" height="18" fill="white"/>
</clipPath>
</defs>
</svg>
