<svg width="18" height="18" viewBox="0 0 18 18" fill="none" xmlns="http://www.w3.org/2000/svg">
<g clip-path="url(#clip0)">
<path d="M6.75 18H0.75C0.551088 18 0.360322 17.921 0.21967 17.7803C0.0790176 17.6397 0 17.4489 0 17.25C0 17.0511 0.0790176 16.8603 0.21967 16.7197C0.360322 16.579 0.551088 16.5 0.75 16.5H6.75C6.94891 16.5 7.13968 16.579 7.28033 16.7197C7.42098 16.8603 7.5 17.0511 7.5 17.25C7.5 17.4489 7.42098 17.6397 7.28033 17.7803C7.13968 17.921 6.94891 18 6.75 18Z" fill="#8690AC"/>
<path d="M5.25 15H0.75C0.551088 15 0.360322 14.921 0.21967 14.7803C0.0790176 14.6397 0 14.4489 0 14.25C0 14.0511 0.0790176 13.8603 0.21967 13.7197C0.360322 13.579 0.551088 13.5 0.75 13.5H5.25C5.44891 13.5 5.63968 13.579 5.78033 13.7197C5.92098 13.8603 6 14.0511 6 14.25C6 14.4489 5.92098 14.6397 5.78033 14.7803C5.63968 14.921 5.44891 15 5.25 15Z" fill="#8690AC"/>
<path d="M3.75 12H0.75C0.551088 12 0.360322 11.921 0.21967 11.7803C0.0790176 11.6397 0 11.4489 0 11.25C0 11.0511 0.0790176 10.8603 0.21967 10.7197C0.360322 10.579 0.551088 10.5 0.75 10.5H3.75C3.94891 10.5 4.13968 10.579 4.28033 10.7197C4.42098 10.8603 4.5 11.0511 4.5 11.25C4.5 11.4489 4.42098 11.6397 4.28033 11.7803C4.13968 11.921 3.94891 12 3.75 12Z" fill="#8690AC"/>
<path d="M9.74999 17.9662C9.55107 17.975 9.35679 17.9045 9.20988 17.7701C9.06297 17.6357 8.97546 17.4484 8.96661 17.2495C8.95776 17.0506 9.02829 16.8563 9.16268 16.7094C9.29707 16.5625 9.48432 16.475 9.68324 16.4662C11.1026 16.3363 12.4555 15.8047 13.5836 14.9336C14.7117 14.0625 15.5683 12.888 16.0529 11.5477C16.5376 10.2073 16.6303 8.75664 16.3202 7.36551C16.0101 5.97438 15.31 4.70042 14.3019 3.69283C13.2939 2.68524 12.0196 1.98575 10.6283 1.67628C9.23705 1.36681 7.78641 1.46018 6.44629 1.94545C5.10617 2.43072 3.93207 3.2878 3.0615 4.4163C2.19094 5.5448 1.65995 6.898 1.53074 8.3174C1.52187 8.4155 1.49377 8.51089 1.44804 8.59813C1.40231 8.68537 1.33985 8.76274 1.26421 8.82584C1.18858 8.88894 1.10126 8.93652 1.00724 8.96587C0.913215 8.99522 0.814332 9.00577 0.716235 8.9969C0.618138 8.98804 0.522747 8.95994 0.435509 8.91421C0.348271 8.86848 0.270894 8.80601 0.207796 8.73038C0.144699 8.65475 0.0971166 8.56743 0.0677658 8.4734C0.038415 8.37938 0.0278707 8.2805 0.036735 8.1824C0.245902 5.87488 1.33694 3.73693 3.08273 2.21358C4.82853 0.690226 7.09457 -0.101149 9.40915 0.00418696C11.7237 0.109523 13.9085 1.10345 15.5087 2.77908C17.1089 4.4547 18.0013 6.68292 18 8.9999C18.0115 11.2487 17.1761 13.4193 15.6599 15.0802C14.1438 16.741 12.058 17.7702 9.81749 17.9632C9.79499 17.9654 9.77174 17.9662 9.74999 17.9662Z" fill="#8690AC"/>
<path d="M9 4.5C8.80109 4.5 8.61032 4.57902 8.46967 4.71967C8.32902 4.86032 8.25 5.05109 8.25 5.25V9C8.25004 9.1989 8.32909 9.38963 8.46975 9.53025L10.7198 11.7802C10.8612 11.9169 11.0507 11.9925 11.2473 11.9908C11.4439 11.989 11.6321 11.9102 11.7711 11.7711C11.9102 11.6321 11.989 11.4439 11.9908 11.2473C11.9925 11.0507 11.9169 10.8612 11.7802 10.7198L9.75 8.6895V5.25C9.75 5.05109 9.67098 4.86032 9.53033 4.71967C9.38968 4.57902 9.19891 4.5 9 4.5Z" fill="#8690AC"/>
</g>
<defs>
<clipPath id="clip0">
<rect width="18" height="18" fill="white"/>
</clipPath>
</defs>
</svg>
