<svg width="14" height="18" viewBox="0 0 14 18" fill="none" xmlns="http://www.w3.org/2000/svg">
<path d="M6.92489 17.9999C6.52336 17.9999 6.19482 17.526 6.19482 16.9467V10.7483C6.19482 10.169 6.52336 9.69507 6.92489 9.69507C7.32643 9.69507 7.65496 10.169 7.65496 10.7483V16.9467C7.65496 17.526 7.33008 17.9999 6.92489 17.9999Z" fill="#8690AC"/>
<path d="M6.92471 10.7497C6.68013 10.7497 6.43191 10.7351 6.18734 10.7059C4.49358 10.5198 2.93123 9.72069 1.78867 8.45088C0.63516 7.17379 0 5.52085 0 3.79495C0 2.59083 0.31393 1.4086 0.901635 0.365025C1.09875 0.0220333 1.54045 -0.102028 1.89088 0.0913615L4.2344 1.3867L6.57062 0.0913615C6.78964 -0.0290507 7.05977 -0.0290507 7.27879 0.0913615L9.61501 1.3867L11.9622 0.0913615C12.3126 -0.102028 12.7543 0.0220333 12.9514 0.368674C13.5428 1.4086 13.8531 2.59447 13.8531 3.7986C13.8531 5.52085 13.2179 7.17379 12.0644 8.45453C10.9182 9.72433 9.35584 10.5234 7.66573 10.7095C7.4175 10.7351 7.16928 10.7497 6.92471 10.7497C6.92836 10.7497 6.92836 10.7497 6.92471 10.7497ZM1.85803 1.74064C1.5952 2.39014 1.46014 3.09072 1.46014 3.7986C1.46014 6.60456 3.56274 8.95078 6.34795 9.25728C6.54142 9.27917 6.73489 9.29012 6.92471 9.29012C7.11452 9.29012 7.30799 9.27917 7.50146 9.25728C10.2903 8.95078 12.3893 6.60456 12.3893 3.7986C12.3893 3.09072 12.2542 2.39014 11.9914 1.74064L9.96544 2.85719C9.74642 2.9776 9.47995 2.9776 9.25728 2.85719L6.92106 1.56185L4.58483 2.85719C4.36581 2.9776 4.09934 2.9776 3.87667 2.85719L1.85803 1.74064Z" fill="#8690AC"/>
</svg>
