<svg width="427" height="427" viewBox="0 0 427 427" fill="none" xmlns="http://www.w3.org/2000/svg">
<path d="M334.511 308.95V282.039H294.188V268.584H280.733V255.129H240.411V241.673H226.955V255.129H213.5V268.584V255.129H200.045V241.673H186.589V255.129H146.267V268.584H132.811V282.039H92.489V308.95H79.0337V362.292V368.345L97.9321 385.153L129.023 403.094L176.879 414.938L213.5 418.726L250.121 414.938L297.977 403.094L329.068 385.153L347.966 368.345V362.292V308.95H334.511ZM213.5 389.638V396.388V389.638H200.045V387.113L213.5 383.803L226.955 387.113V389.638H213.5Z" fill="#ADC7F2"/>
<path d="M294.188 147.573V161.029H280.733V187.939H253.822V161.029H267.278V147.573H294.188V93.7954H267.278V107.251H253.822V120.706H240.367V134.161H186.589V120.706H173.134V107.251H159.679V93.7954H132.768V147.573H119.312V214.806H132.768V228.262H146.223V241.717H280.689V228.262H294.145V214.806H307.6V147.573H294.188ZM226.955 174.484H240.41V187.939H226.955V174.484ZM159.722 187.896V160.985H146.267V147.53H173.177V160.985H186.633V187.896H159.722ZM267.278 228.262H173.177V201.351H186.633V214.806H213.5V201.351H226.955V214.806H253.866V201.351H267.321V228.262H267.278Z" fill="#A4A0A4"/>
<path d="M173.178 161.029H159.722V174.484H173.178V161.029Z" fill="white"/>
<path d="M294.188 187.896H280.733V201.351H294.188V187.896Z" fill="#EFA8A7"/>
<path d="M307.644 187.896H294.188V201.351H307.644V187.896Z" fill="#EFA8A7"/>
<path d="M146.267 187.896H132.812V201.351H146.267V187.896Z" fill="#EFA8A7"/>
<path d="M159.722 187.896H146.267V201.351H159.722V187.896Z" fill="#EFA8A7"/>
<path d="M267.278 161.029H253.822V174.484H267.278V161.029Z" fill="white"/>
<path d="M146.267 228.262H132.812V241.717H146.267V228.262Z" fill="#3D3D3D"/>
<path d="M253.823 214.806H240.411H226.956V201.351H213.5V214.806H200.045H186.59V201.351H173.178V214.806V228.262H186.59H200.045H213.5H226.956H240.411H253.823H267.278V214.806V201.351H253.823V214.806Z" fill="#3D3D3D"/>
<path d="M186.589 187.896V174.484V161.029H173.178V174.484H159.722V187.896H173.178H186.589Z" fill="#3D3D3D"/>
<path d="M240.41 174.484H226.955V187.939H240.41V174.484Z" fill="#3D3D3D"/>
<path d="M159.722 147.574H146.267V161.029H159.722H173.178V147.574H159.722Z" fill="#3D3D3D"/>
<path d="M267.278 147.574V161.029V174.484H253.822V187.896H267.278H280.733V174.484V161.029H294.188V147.574H280.733H267.278Z" fill="#3D3D3D"/>
<path d="M253.823 241.717H240.411H226.956H213.5H200.045H186.59H173.178H159.722H146.267V255.129H159.722H173.178H186.59H200.045H213.5H226.956H240.411H253.823H267.278H280.733V241.717H267.278H253.823Z" fill="#3D3D3D"/>
<path d="M132.812 214.806H119.356V228.261H132.812V214.806Z" fill="#3D3D3D"/>
<path d="M119.356 187.896V174.484V161.029V147.574H105.901V161.029V174.484V187.896V201.351V214.807H119.356V201.351V187.896Z" fill="#3D3D3D"/>
<path d="M132.812 134.118V120.663V107.251V93.7954H119.356V107.251V120.663V134.118V147.573H132.812V134.118Z" fill="#3D3D3D"/>
<path d="M159.722 93.7954V80.3401H146.267H132.812V93.7954H146.267H159.722Z" fill="#3D3D3D"/>
<path d="M173.178 93.7954H159.722V107.251H173.178V93.7954Z" fill="#3D3D3D"/>
<path d="M186.633 107.251H173.178V120.706H186.633V107.251Z" fill="#3D3D3D"/>
<path d="M200.045 134.118H213.5H226.955H240.411V120.662H226.955H213.5H200.045H186.589V134.118H200.045Z" fill="#3D3D3D"/>
<path d="M294.188 228.262H280.733V241.717H294.188V228.262Z" fill="#3D3D3D"/>
<path d="M240.41 255.129H226.955V268.584H240.41V255.129Z" fill="#3D3D3D"/>
<path d="M226.955 255.129H213.5V268.584H226.955V255.129Z" fill="#EFA8A7"/>
<path d="M226.955 268.584H213.5V282.04H226.955V268.584Z" fill="#3D3D3D"/>
<path d="M240.41 282.039H226.955V295.495H240.41V282.039Z" fill="#3D3D3D"/>
<path d="M267.278 282.039H253.822V295.495H267.278V282.039Z" fill="#3D3D3D"/>
<path d="M280.733 268.584H267.278V282.04H280.733V268.584Z" fill="#3D3D3D"/>
<path d="M294.188 255.172H280.733V268.628H294.188V255.172Z" fill="#3D3D3D"/>
<path d="M159.722 268.584H146.267V282.04H159.722V268.584Z" fill="#3D3D3D"/>
<path d="M146.267 255.172H132.812V268.628H146.267V255.172Z" fill="#3D3D3D"/>
<path d="M132.812 268.584H92.4893V282.04H132.812V268.584Z" fill="#3D3D3D"/>
<path d="M92.489 282.039H79.0337V308.95H92.489V282.039Z" fill="#3D3D3D"/>
<path d="M143.828 335.817H130.373V349.272H143.828V335.817Z" fill="#3D3D3D"/>
<path d="M321.099 335.817H307.644V389.595H321.099V335.817Z" fill="#3D3D3D"/>
<path d="M321.099 389.638V390.292C316.701 392.948 312.216 395.473 307.644 397.825V389.682H321.099V389.638Z" fill="#3D3D3D"/>
<path d="M79.034 308.95H65.5786V362.292H79.034V308.95Z" fill="#3D3D3D"/>
<path d="M130.373 349.272H116.917V376.183H130.373V349.272Z" fill="#3D3D3D"/>
<path d="M130.373 376.183H116.917V403.094H130.373V376.183Z" fill="#3D3D3D"/>
<path d="M334.511 268.584H294.188V282.04H334.511V268.584Z" fill="#3D3D3D"/>
<path d="M347.966 282.039H334.511V308.95H347.966V282.039Z" fill="#3D3D3D"/>
<path d="M361.422 308.95V335.817V362.728H347.966V335.817V308.95H361.422Z" fill="#3D3D3D"/>
<path d="M186.633 282.039H159.722V295.495H186.633V282.039Z" fill="#3D3D3D"/>
<path d="M253.866 295.495H240.411V376.183H253.866V295.495Z" fill="#3D3D3D"/>
<path d="M240.41 376.183H226.955V389.639H240.41V376.183Z" fill="#3D3D3D"/>
<path d="M226.955 268.584H213.5V282.04H226.955V268.584Z" fill="#3D3D3D"/>
<path d="M213.5 282.039H200.044V295.495H213.5V282.039Z" fill="#3D3D3D"/>
<path d="M200.045 308.95H186.589V376.183H200.045V308.95Z" fill="#3D3D3D"/>
<path d="M200.045 295.495H186.589V308.95H200.045V295.495Z" fill="#3D3D3D"/>
<path d="M213.5 376.183H200.044V389.639H213.5V376.183Z" fill="#3D3D3D"/>
<path d="M226.955 389.638H213.5V416.505H226.955V389.638Z" fill="#3D3D3D"/>
<path d="M240.41 295.495H226.955V308.95H240.41V295.495Z" fill="#EFA8A7"/>
<path d="M240.41 362.728H226.955V376.183H240.41V362.728Z" fill="#EFA8A7"/>
<path d="M226.955 376.183H213.5V389.639H226.955V376.183Z" fill="#EFA8A7"/>
<path d="M240.41 322.405H226.955V335.86H240.41V322.405Z" fill="#EFA8A7"/>
<path d="M226.955 362.728H213.5V376.183H226.955V362.728Z" fill="#EFA8A7"/>
<path d="M213.5 362.728H200.044V376.183H213.5V362.728Z" fill="#EFA8A7"/>
<path d="M240.41 308.95H226.955V322.405H240.41V308.95Z" fill="#EFA8A7"/>
<path d="M226.955 322.405H213.5V335.86H226.955V322.405Z" fill="#EFA8A7"/>
<path d="M213.5 322.405H200.044V335.86H213.5V322.405Z" fill="#EFA8A7"/>
<path d="M240.41 335.817H226.955V349.272H240.41V335.817Z" fill="#EFA8A7"/>
<path d="M226.955 335.817H213.5V349.272H226.955V335.817Z" fill="#EFA8A7"/>
<path d="M213.5 335.817H200.044V349.272H213.5V335.817Z" fill="#EFA8A7"/>
<path d="M240.41 349.272H226.955V362.728H240.41V349.272Z" fill="#EFA8A7"/>
<path d="M226.955 349.272H213.5V362.728H226.955V349.272Z" fill="#EFA8A7"/>
<path d="M213.5 349.272H200.044V362.728H213.5V349.272Z" fill="#EFA8A7"/>
<path d="M226.955 308.95H213.5V322.405H226.955V308.95Z" fill="#EFA8A7"/>
<path d="M213.5 308.95H200.044V322.405H213.5V308.95Z" fill="#EFA8A7"/>
<path d="M213.5 295.495H200.044V308.95H213.5V295.495Z" fill="#EFA8A7"/>
<path d="M226.955 282.039H213.5V295.495H226.955V282.039Z" fill="#EFA8A7"/>
<path d="M226.955 295.495H213.5V308.95H226.955V295.495Z" fill="#EFA8A7"/>
<path d="M213.5 255.129H200.044V268.584H213.5V255.129Z" fill="#3D3D3D"/>
<path d="M307.644 214.806H294.188V228.261H307.644V214.806Z" fill="#3D3D3D"/>
<path d="M307.644 147.574V161.029V174.484V187.896V201.351V214.807H321.099V201.351V187.896V174.484V161.029V147.574H307.644Z" fill="#3D3D3D"/>
<path d="M294.188 120.663V134.118V147.573H307.644V134.118V120.663V107.251V93.7954H294.188V107.251V120.663Z" fill="#3D3D3D"/>
<path d="M294.189 93.7954V80.3401H280.733H267.278V93.7954H280.733H294.189Z" fill="#3D3D3D"/>
<path d="M267.278 93.7954H253.822V107.251H267.278V93.7954Z" fill="#3D3D3D"/>
<path d="M253.866 107.251H240.411V120.706H253.866V107.251Z" fill="#3D3D3D"/>
<mask id="mask0" mask-type="alpha" maskUnits="userSpaceOnUse" x="65" y="80" width="297" height="339">
<path d="M334.511 308.95V282.039H294.188V268.584H280.733V255.129H240.411V241.673H226.955V255.129H213.5V268.584V255.129H200.045V241.673H186.589V255.129H146.267V268.584H132.811V282.039H92.489V308.95H79.0337V362.292V368.345L97.9321 385.153L129.023 403.094L176.879 414.938L213.5 418.726L250.121 414.938L297.977 403.094L329.068 385.153L347.966 368.345V362.292V308.95H334.511ZM213.5 389.638V396.388V389.638H200.045V387.113L213.5 383.803L226.955 387.113V389.638H213.5Z" fill="#ADC7F2"/>
<path d="M294.188 147.573V161.029H280.733V187.939H253.822V161.029H267.278V147.573H294.188V93.7954H267.278V107.251H253.822V120.706H240.367V134.161H186.589V120.706H173.134V107.251H159.679V93.7954H132.768V147.573H119.312V214.806H132.768V228.262H146.223V241.717H280.689V228.262H294.145V214.806H307.6V147.573H294.188ZM226.955 174.484H240.41V187.939H226.955V174.484ZM159.722 187.896V160.985H146.267V147.53H173.177V160.985H186.633V187.896H159.722ZM267.278 228.262H173.177V201.351H186.633V214.806H213.5V201.351H226.955V214.806H253.866V201.351H267.321V228.262H267.278Z" fill="#A4A0A4"/>
<path d="M173.178 161.029H159.722V174.484H173.178V161.029Z" fill="white"/>
<path d="M294.188 187.896H280.733V201.351H294.188V187.896Z" fill="#EFA8A7"/>
<path d="M307.644 187.896H294.188V201.351H307.644V187.896Z" fill="#EFA8A7"/>
<path d="M146.267 187.896H132.812V201.351H146.267V187.896Z" fill="#EFA8A7"/>
<path d="M159.722 187.896H146.267V201.351H159.722V187.896Z" fill="#EFA8A7"/>
<path d="M267.278 161.029H253.822V174.484H267.278V161.029Z" fill="white"/>
<path d="M146.267 228.262H132.812V241.717H146.267V228.262Z" fill="#3D3D3D"/>
<path d="M253.823 214.806H240.411H226.956V201.351H213.5V214.806H200.045H186.59V201.351H173.178V214.806V228.262H186.59H200.045H213.5H226.956H240.411H253.823H267.278V214.806V201.351H253.823V214.806Z" fill="#3D3D3D"/>
<path d="M186.589 187.896V174.484V161.029H173.178V174.484H159.722V187.896H173.178H186.589Z" fill="#3D3D3D"/>
<path d="M240.41 174.484H226.955V187.939H240.41V174.484Z" fill="#3D3D3D"/>
<path d="M159.722 147.574H146.267V161.029H159.722H173.178V147.574H159.722Z" fill="#3D3D3D"/>
<path d="M267.278 147.574V161.029V174.484H253.822V187.896H267.278H280.733V174.484V161.029H294.188V147.574H280.733H267.278Z" fill="#3D3D3D"/>
<path d="M253.823 241.717H240.411H226.956H213.5H200.045H186.59H173.178H159.722H146.267V255.129H159.722H173.178H186.59H200.045H213.5H226.956H240.411H253.823H267.278H280.733V241.717H267.278H253.823Z" fill="#3D3D3D"/>
<path d="M132.812 214.806H119.356V228.261H132.812V214.806Z" fill="#3D3D3D"/>
<path d="M119.356 187.896V174.484V161.029V147.574H105.901V161.029V174.484V187.896V201.351V214.807H119.356V201.351V187.896Z" fill="#3D3D3D"/>
<path d="M132.812 134.118V120.663V107.251V93.7954H119.356V107.251V120.663V134.118V147.573H132.812V134.118Z" fill="#3D3D3D"/>
<path d="M159.722 93.7954V80.3401H146.267H132.812V93.7954H146.267H159.722Z" fill="#3D3D3D"/>
<path d="M173.178 93.7954H159.722V107.251H173.178V93.7954Z" fill="#3D3D3D"/>
<path d="M186.633 107.251H173.178V120.706H186.633V107.251Z" fill="#3D3D3D"/>
<path d="M200.045 134.118H213.5H226.955H240.411V120.662H226.955H213.5H200.045H186.589V134.118H200.045Z" fill="#3D3D3D"/>
<path d="M294.188 228.262H280.733V241.717H294.188V228.262Z" fill="#3D3D3D"/>
<path d="M240.41 255.129H226.955V268.584H240.41V255.129Z" fill="#3D3D3D"/>
<path d="M226.955 255.129H213.5V268.584H226.955V255.129Z" fill="#EFA8A7"/>
<path d="M226.955 268.584H213.5V282.04H226.955V268.584Z" fill="#3D3D3D"/>
<path d="M240.41 282.039H226.955V295.495H240.41V282.039Z" fill="#3D3D3D"/>
<path d="M267.278 282.039H253.822V295.495H267.278V282.039Z" fill="#3D3D3D"/>
<path d="M280.733 268.584H267.278V282.04H280.733V268.584Z" fill="#3D3D3D"/>
<path d="M294.188 255.172H280.733V268.628H294.188V255.172Z" fill="#3D3D3D"/>
<path d="M159.722 268.584H146.267V282.04H159.722V268.584Z" fill="#3D3D3D"/>
<path d="M146.267 255.172H132.812V268.628H146.267V255.172Z" fill="#3D3D3D"/>
<path d="M132.812 268.584H92.4893V282.04H132.812V268.584Z" fill="#3D3D3D"/>
<path d="M92.489 282.039H79.0337V308.95H92.489V282.039Z" fill="#3D3D3D"/>
<path d="M143.828 335.817H130.373V349.272H143.828V335.817Z" fill="#3D3D3D"/>
<path d="M321.099 335.817H307.644V389.595H321.099V335.817Z" fill="#3D3D3D"/>
<path d="M321.099 389.638V390.292C316.701 392.948 312.216 395.473 307.644 397.825V389.682H321.099V389.638Z" fill="#3D3D3D"/>
<path d="M79.034 308.95H65.5786V362.292H79.034V308.95Z" fill="#3D3D3D"/>
<path d="M130.373 349.272H116.917V376.183H130.373V349.272Z" fill="#3D3D3D"/>
<path d="M130.373 376.183H116.917V403.094H130.373V376.183Z" fill="#3D3D3D"/>
<path d="M334.511 268.584H294.188V282.04H334.511V268.584Z" fill="#3D3D3D"/>
<path d="M347.966 282.039H334.511V308.95H347.966V282.039Z" fill="#3D3D3D"/>
<path d="M361.422 308.95V335.817V362.728H347.966V335.817V308.95H361.422Z" fill="#3D3D3D"/>
<path d="M186.633 282.039H159.722V295.495H186.633V282.039Z" fill="#3D3D3D"/>
<path d="M253.866 295.495H240.411V376.183H253.866V295.495Z" fill="#3D3D3D"/>
<path d="M240.41 376.183H226.955V389.639H240.41V376.183Z" fill="#3D3D3D"/>
<path d="M226.955 268.584H213.5V282.04H226.955V268.584Z" fill="#3D3D3D"/>
<path d="M213.5 282.039H200.044V295.495H213.5V282.039Z" fill="#3D3D3D"/>
<path d="M200.045 308.95H186.589V376.183H200.045V308.95Z" fill="#3D3D3D"/>
<path d="M200.045 295.495H186.589V308.95H200.045V295.495Z" fill="#3D3D3D"/>
<path d="M213.5 376.183H200.044V389.639H213.5V376.183Z" fill="#3D3D3D"/>
<path d="M226.955 389.638H213.5V416.505H226.955V389.638Z" fill="#3D3D3D"/>
<path d="M240.41 295.495H226.955V308.95H240.41V295.495Z" fill="#EFA8A7"/>
<path d="M240.41 362.728H226.955V376.183H240.41V362.728Z" fill="#EFA8A7"/>
<path d="M226.955 376.183H213.5V389.639H226.955V376.183Z" fill="#EFA8A7"/>
<path d="M240.41 322.405H226.955V335.86H240.41V322.405Z" fill="#EFA8A7"/>
<path d="M226.955 362.728H213.5V376.183H226.955V362.728Z" fill="#EFA8A7"/>
<path d="M213.5 362.728H200.044V376.183H213.5V362.728Z" fill="#EFA8A7"/>
<path d="M240.41 308.95H226.955V322.405H240.41V308.95Z" fill="#EFA8A7"/>
<path d="M226.955 322.405H213.5V335.86H226.955V322.405Z" fill="#EFA8A7"/>
<path d="M213.5 322.405H200.044V335.86H213.5V322.405Z" fill="#EFA8A7"/>
<path d="M240.41 335.817H226.955V349.272H240.41V335.817Z" fill="#EFA8A7"/>
<path d="M226.955 335.817H213.5V349.272H226.955V335.817Z" fill="#EFA8A7"/>
<path d="M213.5 335.817H200.044V349.272H213.5V335.817Z" fill="#EFA8A7"/>
<path d="M240.41 349.272H226.955V362.728H240.41V349.272Z" fill="#EFA8A7"/>
<path d="M226.955 349.272H213.5V362.728H226.955V349.272Z" fill="#EFA8A7"/>
<path d="M213.5 349.272H200.044V362.728H213.5V349.272Z" fill="#EFA8A7"/>
<path d="M226.955 308.95H213.5V322.405H226.955V308.95Z" fill="#EFA8A7"/>
<path d="M213.5 308.95H200.044V322.405H213.5V308.95Z" fill="#EFA8A7"/>
<path d="M213.5 295.495H200.044V308.95H213.5V295.495Z" fill="#EFA8A7"/>
<path d="M226.955 282.039H213.5V295.495H226.955V282.039Z" fill="#EFA8A7"/>
<path d="M226.955 295.495H213.5V308.95H226.955V295.495Z" fill="#EFA8A7"/>
<path d="M213.5 255.129H200.044V268.584H213.5V255.129Z" fill="#3D3D3D"/>
<path d="M307.644 214.806H294.188V228.261H307.644V214.806Z" fill="#3D3D3D"/>
<path d="M307.644 147.574V161.029V174.484V187.896V201.351V214.807H321.099V201.351V187.896V174.484V161.029V147.574H307.644Z" fill="#3D3D3D"/>
<path d="M294.188 120.663V134.118V147.573H307.644V134.118V120.663V107.251V93.7954H294.188V107.251V120.663Z" fill="#3D3D3D"/>
<path d="M294.189 93.7954V80.3401H280.733H267.278V93.7954H280.733H294.189Z" fill="#3D3D3D"/>
<path d="M267.278 93.7954H253.822V107.251H267.278V93.7954Z" fill="#3D3D3D"/>
<path d="M253.866 107.251H240.411V120.706H253.866V107.251Z" fill="#3D3D3D"/>
</mask>
<g mask="url(#mask0)">
<rect x="-39.832" y="-108.343" width="548.886" height="626.957" fill="#B3C6FF" fill-opacity="0.48"/>
</g>
<path d="M213.5 427C156.456 427 102.853 404.792 62.5303 364.47C22.2078 324.147 0 270.544 0 213.5C0 156.456 22.2078 102.853 62.5303 62.5303C102.853 22.2078 156.456 0 213.5 0C270.544 0 324.147 22.2078 364.47 62.5303C404.792 102.853 427 156.456 427 213.5C427 250.774 417.246 287.483 398.783 319.619C380.886 350.797 355.195 377.185 324.496 395.909C320.01 398.652 315.351 401.265 310.605 403.66C280.385 419.162 247.726 427 213.5 427ZM213.5 13.1941C103.07 13.1941 13.1941 103.027 13.1941 213.5C13.1941 323.973 103.027 413.806 213.5 413.806C245.592 413.806 276.248 406.447 304.639 391.946C309.081 389.682 313.435 387.244 317.659 384.674C377.881 347.966 413.806 283.999 413.806 213.544C413.806 103.07 323.93 13.1941 213.5 13.1941Z" fill="url(#paint0_linear)"/>
<defs>
<linearGradient id="paint0_linear" x1="221" y1="427" x2="221" y2="0" gradientUnits="userSpaceOnUse">
<stop offset="0.239517" stop-color="white"/>
<stop offset="1" stop-color="white" stop-opacity="0"/>
</linearGradient>
</defs>
</svg>
