<svg width="642" height="600" viewBox="0 0 642 600" fill="none" xmlns="http://www.w3.org/2000/svg">
<path d="M16.9876 438.083L-46 600H640V1L430.849 438.083L399.759 308.5L322.235 236L287.584 335.336L219.679 525L178.887 428.115L107.028 394.125L65.0359 466.556L16.9876 438.083Z" fill="url(#paint0_linear)"/>
<path d="M16.9876 438.083L-46 600H640V1L430.849 438.083L399.759 308.5L322.235 236L287.584 335.336L219.679 525L178.887 428.115L107.028 394.125L65.0359 466.556L16.9876 438.083Z" fill="url(#paint1_linear)"/>
<path d="M583.795 453.412L588.504 479.316L584.171 480.104L586.531 493.09L582.198 493.877L582.986 498.21L578.653 498.998L579.44 503.331L566.455 505.691L567.242 510.024L541.258 514.747L540.47 510.414L527.484 512.775L526.697 508.442L522.364 509.229L521.576 504.896L517.243 505.684L514.883 492.698L510.55 493.486L505.841 467.581L510.174 466.793L507.814 453.808L512.147 453.02L511.359 448.687L515.692 447.9L514.905 443.567L527.89 441.206L527.105 436.887L553.09 432.164L553.875 436.483L566.86 434.123L567.648 438.456L571.981 437.668L572.769 442.001L577.102 441.214L579.462 454.199L583.795 453.412Z" fill="#F4E44D"/>
<path d="M530.65 431.766L526.317 432.554L527.105 436.887L531.438 436.099L530.65 431.766Z" fill="#BC9E20"/>
<path d="M534.983 430.979L530.65 431.766L531.438 436.099L535.771 435.311L534.983 430.979Z" fill="#BC9E20"/>
<path d="M539.316 430.191L534.983 430.979L535.771 435.311L540.104 434.524L539.316 430.191Z" fill="#BC9E20"/>
<path d="M543.636 429.406L539.303 430.193L540.091 434.526L544.424 433.739L543.636 429.406Z" fill="#BC9E20"/>
<path d="M547.969 428.618L543.636 429.406L544.424 433.739L548.757 432.951L547.969 428.618Z" fill="#BC9E20"/>
<path d="M552.302 427.83L547.969 428.618L548.757 432.951L553.09 432.163L552.302 427.83Z" fill="#BC9E20"/>
<path d="M509.762 489.153L505.429 489.94L506.217 494.273L510.55 493.486L509.762 489.153Z" fill="#BC9E20"/>
<path d="M508.975 484.82L504.642 485.608L505.429 489.941L509.762 489.153L508.975 484.82Z" fill="#BC9E20"/>
<path d="M508.189 480.5L503.856 481.288L504.644 485.621L508.977 484.833L508.189 480.5Z" fill="#BC9E20"/>
<path d="M507.402 476.167L503.069 476.955L503.856 481.288L508.189 480.5L507.402 476.167Z" fill="#BC9E20"/>
<path d="M506.614 471.834L502.281 472.622L503.069 476.955L507.402 476.167L506.614 471.834Z" fill="#BC9E20"/>
<path d="M505.827 467.501L501.494 468.289L502.281 472.622L506.614 471.834L505.827 467.501Z" fill="#BC9E20"/>
<path d="M522.772 437.674L518.439 438.462L519.227 442.795L523.56 442.007L522.772 437.674Z" fill="#BC9E20"/>
<path d="M518.453 438.459L514.12 439.247L514.907 443.58L519.24 442.792L518.453 438.459Z" fill="#BC9E20"/>
<path d="M514.905 443.567L510.572 444.354L511.359 448.687L515.692 447.9L514.905 443.567Z" fill="#BC9E20"/>
<path d="M511.359 448.688L507.026 449.475L507.814 453.808L512.147 453.02L511.359 448.688Z" fill="#BC9E20"/>
<path d="M507.814 453.808L503.481 454.595L504.269 458.928L508.602 458.141L507.814 453.808Z" fill="#BC9E20"/>
<path d="M508.602 458.141L504.269 458.928L505.056 463.261L509.389 462.474L508.602 458.141Z" fill="#BC9E20"/>
<path d="M509.389 462.474L505.056 463.261L505.844 467.594L510.177 466.807L509.389 462.474Z" fill="#BC9E20"/>
<path d="M527.105 436.887L522.772 437.674L523.56 442.007L527.893 441.22L527.105 436.887Z" fill="#BC9E20"/>
<path d="M552.302 427.83L547.969 428.618L548.757 432.951L553.09 432.163L552.302 427.83Z" fill="#BC9E20"/>
<path d="M547.969 428.618L543.636 429.406L544.424 433.739L548.757 432.951L547.969 428.618Z" fill="#BC9E20"/>
<path d="M543.636 429.406L539.303 430.193L540.091 434.526L544.424 433.739L543.636 429.406Z" fill="#BC9E20"/>
<path d="M539.316 430.191L534.983 430.979L535.771 435.311L540.104 434.524L539.316 430.191Z" fill="#BC9E20"/>
<path d="M534.983 430.979L530.65 431.766L531.438 436.099L535.771 435.311L534.983 430.979Z" fill="#BC9E20"/>
<path d="M530.65 431.766L526.317 432.554L527.105 436.887L531.438 436.099L530.65 431.766Z" fill="#BC9E20"/>
<path d="M592.049 474.196L587.716 474.984L588.503 479.316L592.836 478.529L592.049 474.196Z" fill="#BC9E20"/>
<path d="M591.261 469.863L586.928 470.651L587.716 474.984L592.049 474.196L591.261 469.863Z" fill="#BC9E20"/>
<path d="M590.476 465.543L586.143 466.331L586.931 470.664L591.264 469.876L590.476 465.543Z" fill="#BC9E20"/>
<path d="M589.688 461.21L585.355 461.998L586.143 466.331L590.476 465.543L589.688 461.21Z" fill="#BC9E20"/>
<path d="M588.901 456.877L584.568 457.665L585.355 461.998L589.688 461.21L588.901 456.877Z" fill="#BC9E20"/>
<path d="M588.113 452.544L583.78 453.332L584.568 457.665L588.901 456.877L588.113 452.544Z" fill="#BC9E20"/>
<path d="M561.755 430.588L557.422 431.376L558.21 435.709L562.543 434.921L561.755 430.588Z" fill="#BC9E20"/>
<path d="M566.075 429.803L561.742 430.591L562.53 434.924L566.863 434.136L566.075 429.803Z" fill="#BC9E20"/>
<path d="M571.193 433.335L566.86 434.123L567.648 438.456L571.981 437.668L571.193 433.335Z" fill="#BC9E20"/>
<path d="M576.314 436.881L571.981 437.668L572.769 442.001L577.102 441.214L576.314 436.881Z" fill="#BC9E20"/>
<path d="M581.435 440.426L577.102 441.214L577.889 445.547L582.222 444.759L581.435 440.426Z" fill="#BC9E20"/>
<path d="M582.222 444.759L577.889 445.547L578.677 449.88L583.01 449.092L582.222 444.759Z" fill="#BC9E20"/>
<path d="M583.01 449.092L578.677 449.879L579.464 454.212L583.797 453.425L583.01 449.092Z" fill="#BC9E20"/>
<path d="M557.423 431.376L553.09 432.164L553.877 436.497L558.21 435.709L557.423 431.376Z" fill="#BC9E20"/>
<path d="M567.242 510.024L562.909 510.812L563.697 515.145L568.03 514.357L567.242 510.024Z" fill="#BC9E20"/>
<path d="M562.909 510.812L558.576 511.599L559.364 515.932L563.697 515.145L562.909 510.812Z" fill="#BC9E20"/>
<path d="M558.576 511.599L554.243 512.387L555.031 516.72L559.364 515.932L558.576 511.599Z" fill="#BC9E20"/>
<path d="M554.256 512.384L549.923 513.172L550.711 517.505L555.044 516.717L554.256 512.384Z" fill="#BC9E20"/>
<path d="M549.923 513.172L545.59 513.959L546.378 518.292L550.711 517.505L549.923 513.172Z" fill="#BC9E20"/>
<path d="M545.59 513.959L541.257 514.747L542.045 519.08L546.378 518.292L545.59 513.959Z" fill="#BC9E20"/>
<path d="M588.128 452.624L583.795 453.411L584.583 457.744L588.915 456.957L588.128 452.624Z" fill="#BC9E20"/>
<path d="M588.915 456.957L584.583 457.744L585.37 462.077L589.703 461.29L588.915 456.957Z" fill="#BC9E20"/>
<path d="M589.703 461.29L585.37 462.078L586.158 466.411L590.491 465.623L589.703 461.29Z" fill="#BC9E20"/>
<path d="M590.491 465.623L586.158 466.411L586.945 470.743L591.278 469.956L590.491 465.623Z" fill="#BC9E20"/>
<path d="M591.278 469.956L586.945 470.743L587.733 475.076L592.066 474.289L591.278 469.956Z" fill="#BC9E20"/>
<path d="M592.063 474.275L587.73 475.063L588.518 479.396L592.851 478.608L592.063 474.275Z" fill="#BC9E20"/>
<path d="M575.121 504.116L570.788 504.904L571.575 509.237L575.908 508.449L575.121 504.116Z" fill="#BC9E20"/>
<path d="M579.44 503.331L575.107 504.118L575.895 508.451L580.227 507.664L579.44 503.331Z" fill="#BC9E20"/>
<path d="M582.985 498.21L578.652 498.998L579.44 503.331L583.773 502.543L582.985 498.21Z" fill="#BC9E20"/>
<path d="M586.531 493.09L582.198 493.877L582.985 498.21L587.318 497.423L586.531 493.09Z" fill="#BC9E20"/>
<path d="M590.079 487.982L585.746 488.77L586.533 493.103L590.866 492.315L590.079 487.982Z" fill="#BC9E20"/>
<path d="M589.291 483.65L584.958 484.437L585.746 488.77L590.079 487.983L589.291 483.65Z" fill="#BC9E20"/>
<path d="M588.503 479.316L584.17 480.104L584.958 484.437L589.291 483.649L588.503 479.316Z" fill="#BC9E20"/>
<path d="M570.788 504.904L566.455 505.691L567.242 510.024L571.575 509.237L570.788 504.904Z" fill="#BC9E20"/>
<path d="M545.59 513.959L541.257 514.747L542.045 519.08L546.378 518.292L545.59 513.959Z" fill="#BC9E20"/>
<path d="M549.923 513.172L545.59 513.959L546.378 518.292L550.711 517.505L549.923 513.172Z" fill="#BC9E20"/>
<path d="M554.256 512.384L549.923 513.172L550.711 517.505L555.044 516.717L554.256 512.384Z" fill="#BC9E20"/>
<path d="M558.576 511.599L554.243 512.387L555.031 516.72L559.364 515.932L558.576 511.599Z" fill="#BC9E20"/>
<path d="M562.909 510.812L558.576 511.599L559.364 515.932L563.697 515.145L562.909 510.812Z" fill="#BC9E20"/>
<path d="M567.242 510.024L562.909 510.812L563.697 515.145L568.03 514.357L567.242 510.024Z" fill="#BC9E20"/>
<path d="M505.841 467.581L501.508 468.369L502.296 472.702L506.629 471.914L505.841 467.581Z" fill="#BC9E20"/>
<path d="M506.629 471.914L502.296 472.702L503.083 477.035L507.416 476.247L506.629 471.914Z" fill="#BC9E20"/>
<path d="M507.416 476.247L503.083 477.035L503.871 481.368L508.204 480.58L507.416 476.247Z" fill="#BC9E20"/>
<path d="M508.204 480.58L503.871 481.367L504.659 485.7L508.992 484.913L508.204 480.58Z" fill="#BC9E20"/>
<path d="M508.992 484.913L504.659 485.7L505.446 490.033L509.779 489.246L508.992 484.913Z" fill="#BC9E20"/>
<path d="M509.777 489.233L505.444 490.02L506.231 494.353L510.564 493.566L509.777 489.233Z" fill="#BC9E20"/>
<path d="M536.137 511.202L531.804 511.989L532.592 516.322L536.925 515.535L536.137 511.202Z" fill="#BC9E20"/>
<path d="M531.817 511.987L527.484 512.775L528.272 517.108L532.605 516.32L531.817 511.987Z" fill="#BC9E20"/>
<path d="M526.697 508.442L522.364 509.229L523.151 513.562L527.484 512.775L526.697 508.442Z" fill="#BC9E20"/>
<path d="M521.576 504.896L517.243 505.684L518.031 510.017L522.364 509.229L521.576 504.896Z" fill="#BC9E20"/>
<path d="M516.458 501.364L512.125 502.152L512.913 506.485L517.246 505.697L516.458 501.364Z" fill="#BC9E20"/>
<path d="M515.67 497.031L511.337 497.819L512.125 502.152L516.458 501.364L515.67 497.031Z" fill="#BC9E20"/>
<path d="M514.883 492.698L510.55 493.486L511.337 497.819L515.67 497.031L514.883 492.698Z" fill="#BC9E20"/>
<path d="M540.47 510.414L536.137 511.202L536.925 515.535L541.258 514.747L540.47 510.414Z" fill="#BC9E20"/>
<path d="M571.583 460.108L572.371 464.44L568.038 465.228L569.613 473.894L560.947 475.469L559.372 466.803L563.705 466.016L562.917 461.683L571.583 460.108L568.435 442.789L559.769 444.364L560.557 448.697L556.224 449.485L557.012 453.818L552.679 454.605L553.466 458.938L536.161 462.084L535.373 457.751L531.04 458.538L530.253 454.205L525.92 454.993L525.132 450.66L516.466 452.235L519.614 469.554L515.281 470.341L519.217 491.993L523.55 491.205L524.337 495.538L528.67 494.751L529.458 499.084L572.761 491.213L571.973 486.88L576.306 486.092L575.519 481.759L579.852 480.971L575.916 459.32L571.583 460.108ZM551.507 472.709L555.84 471.921L556.627 476.254L552.294 477.042L551.507 472.709ZM530.643 480.978L529.068 472.312L524.735 473.099L523.947 468.766L532.613 467.191L533.401 471.524L537.734 470.736L539.309 479.402L530.643 480.978ZM567.654 487.665L537.336 493.176L535.761 484.51L540.094 483.722L540.882 488.055L549.548 486.48L548.76 482.147L553.093 481.359L553.881 485.692L562.546 484.117L561.759 479.784L566.092 478.996L567.667 487.662L567.654 487.665Z" fill="#F4E44D"/>
<path d="M533.401 471.524L529.068 472.312L529.855 476.644L534.188 475.857L533.401 471.524Z" fill="#F4E88C"/>
<path d="M573.946 473.106L569.613 473.894L570.401 478.227L574.734 477.439L573.946 473.106Z" fill="#F4E88C"/>
<path d="M578.279 472.319L573.946 473.106L574.734 477.439L579.067 476.652L578.279 472.319Z" fill="#F4E88C"/>
<path d="M526.324 481.762L521.991 482.55L522.778 486.883L527.111 486.095L526.324 481.762Z" fill="#F4E88C"/>
<path d="M530.643 480.977L526.31 481.765L527.098 486.098L531.431 485.31L530.643 480.977Z" fill="#F4E88C"/>
<path d="M563.719 466.013L559.386 466.801L560.173 471.134L564.506 470.346L563.719 466.013Z" fill="#F4E88C"/>
<path d="M528.684 494.749L524.351 495.536L525.139 499.869L529.472 499.082L528.684 494.749Z" fill="#AA9115"/>
<path d="M562.533 484.12L558.2 484.907L553.867 485.695L553.08 481.362L548.747 482.149L549.534 486.482L545.215 487.268L540.882 488.055L540.094 483.722L535.761 484.51L536.549 488.843L537.336 493.176L541.669 492.388L546.002 491.601L550.322 490.815L554.655 490.028L558.988 489.24L563.321 488.453L567.654 487.665L566.866 483.332L566.079 478.999L561.746 479.787L562.533 484.12Z" fill="#AA9115"/>
<path d="M539.309 479.402L538.521 475.069L537.734 470.736L533.401 471.524L534.188 475.857L529.855 476.644L530.643 480.977L534.976 480.19L539.309 479.402Z" fill="#AA9115"/>
<path d="M555.84 471.921L551.507 472.709L552.295 477.042L556.628 476.254L555.84 471.921Z" fill="#AA9115"/>
<path d="M528.281 467.979L523.948 468.766L524.735 473.099L529.068 472.312L533.401 471.524L532.614 467.191L528.281 467.979Z" fill="#AA9115"/>
<path d="M562.931 461.681L563.719 466.014L564.506 470.346L560.173 471.134L560.961 475.467L565.294 474.679L569.614 473.894L568.826 469.561L568.038 465.228L572.371 464.441L571.584 460.108L567.251 460.895L562.931 461.681Z" fill="#AA9115"/>
<path d="M564.109 492.786L559.776 493.573L555.443 494.361L551.11 495.148L546.79 495.933L542.457 496.721L538.124 497.509L533.791 498.296L529.458 499.084L530.246 503.417L534.579 502.629L538.912 501.842L543.245 501.054L547.578 500.266L551.898 499.481L556.231 498.694L560.564 497.906L564.897 497.119L569.23 496.331L573.549 495.546L572.762 491.213L568.442 491.998L564.109 492.786Z" fill="#AA9115"/>
<path d="M523.563 491.203L519.23 491.99L520.018 496.323L524.351 495.536L523.563 491.203Z" fill="#AA9115"/>
<path d="M517.658 483.338L516.87 479.005L516.082 474.672L515.295 470.339L510.962 471.127L511.75 475.46L512.537 479.793L513.325 484.125L514.11 488.445L514.897 492.778L519.23 491.991L518.443 487.658L517.658 483.338Z" fill="#AA9115"/>
<path d="M518.84 465.218L518.055 460.899L517.268 456.566L516.48 452.233L512.147 453.02L512.935 457.353L513.722 461.686L514.507 466.006L515.295 470.339L519.628 469.551L518.84 465.218Z" fill="#AA9115"/>
<path d="M525.133 450.66L524.345 446.327L520.012 447.115L515.692 447.9L516.48 452.233L520.8 451.448L525.133 450.66Z" fill="#AA9115"/>
<path d="M529.465 449.872L525.132 450.66L525.92 454.993L530.253 454.205L529.465 449.872Z" fill="#AA9115"/>
<path d="M534.586 453.418L530.253 454.205L531.041 458.538L535.373 457.751L534.586 453.418Z" fill="#AA9115"/>
<path d="M540.492 461.283L544.811 460.498L549.144 459.71L553.477 458.923L552.692 454.603L548.359 455.391L544.026 456.178L539.707 456.963L535.374 457.751L536.159 462.071L540.492 461.283Z" fill="#AA9115"/>
<path d="M576.307 486.092L571.974 486.88L572.761 491.213L577.094 490.425L576.307 486.092Z" fill="#AA9115"/>
<path d="M579.852 480.972L575.519 481.759L576.307 486.092L580.64 485.305L579.852 480.972Z" fill="#AA9115"/>
<path d="M575.917 459.32L576.704 463.653L577.492 467.986L578.279 472.319L579.064 476.639L579.852 480.971L584.185 480.184L583.397 475.851L582.612 471.531L581.825 467.198L581.037 462.865L580.249 458.532L575.917 459.32Z" fill="#AA9115"/>
<path d="M570.011 451.455L570.796 455.775L571.584 460.108L575.916 459.32L575.129 454.987L574.344 450.667L573.556 446.334L572.769 442.001L568.436 442.789L569.223 447.122L570.011 451.455Z" fill="#AA9115"/>
<path d="M568.436 442.789L567.648 438.456L563.315 439.244L558.996 440.029L559.783 444.362L564.103 443.577L568.436 442.789Z" fill="#AA9115"/>
<path d="M559.783 444.362L555.45 445.149L556.238 449.482L560.571 448.695L559.783 444.362Z" fill="#AA9115"/>
<path d="M556.238 449.482L551.905 450.27L552.692 454.603L557.025 453.815L556.238 449.482Z" fill="#AA9115"/>
<mask id="mask0" mask-type="alpha" maskUnits="userSpaceOnUse" x="501" y="427" width="93" height="93">
<path d="M583.795 453.412L588.504 479.316L584.171 480.104L586.531 493.09L582.198 493.877L582.986 498.21L578.653 498.998L579.44 503.331L566.455 505.691L567.242 510.024L541.258 514.747L540.47 510.414L527.484 512.775L526.697 508.442L522.364 509.229L521.576 504.896L517.243 505.684L514.883 492.698L510.55 493.486L505.841 467.581L510.174 466.793L507.814 453.808L512.147 453.02L511.359 448.687L515.692 447.9L514.905 443.567L527.89 441.206L527.105 436.887L553.09 432.164L553.875 436.483L566.86 434.123L567.648 438.456L571.981 437.668L572.769 442.001L577.102 441.214L579.462 454.199L583.795 453.412Z" fill="#F4E44D"/>
<path d="M530.65 431.766L526.317 432.554L527.105 436.887L531.438 436.099L530.65 431.766Z" fill="#BC9E20"/>
<path d="M534.983 430.979L530.65 431.766L531.438 436.099L535.771 435.311L534.983 430.979Z" fill="#BC9E20"/>
<path d="M539.316 430.191L534.983 430.979L535.771 435.311L540.104 434.524L539.316 430.191Z" fill="#BC9E20"/>
<path d="M543.636 429.406L539.303 430.193L540.091 434.526L544.424 433.739L543.636 429.406Z" fill="#BC9E20"/>
<path d="M547.969 428.618L543.636 429.406L544.424 433.739L548.757 432.951L547.969 428.618Z" fill="#BC9E20"/>
<path d="M552.302 427.83L547.969 428.618L548.757 432.951L553.09 432.163L552.302 427.83Z" fill="#BC9E20"/>
<path d="M509.762 489.153L505.429 489.94L506.217 494.273L510.55 493.486L509.762 489.153Z" fill="#BC9E20"/>
<path d="M508.975 484.82L504.642 485.608L505.429 489.941L509.762 489.153L508.975 484.82Z" fill="#BC9E20"/>
<path d="M508.189 480.5L503.856 481.288L504.644 485.621L508.977 484.833L508.189 480.5Z" fill="#BC9E20"/>
<path d="M507.402 476.167L503.069 476.955L503.856 481.288L508.189 480.5L507.402 476.167Z" fill="#BC9E20"/>
<path d="M506.614 471.834L502.281 472.622L503.069 476.955L507.402 476.167L506.614 471.834Z" fill="#BC9E20"/>
<path d="M505.827 467.501L501.494 468.289L502.281 472.622L506.614 471.834L505.827 467.501Z" fill="#BC9E20"/>
<path d="M522.772 437.674L518.439 438.462L519.227 442.795L523.56 442.007L522.772 437.674Z" fill="#BC9E20"/>
<path d="M518.453 438.459L514.12 439.247L514.907 443.58L519.24 442.792L518.453 438.459Z" fill="#BC9E20"/>
<path d="M514.905 443.567L510.572 444.354L511.359 448.687L515.692 447.9L514.905 443.567Z" fill="#BC9E20"/>
<path d="M511.359 448.688L507.026 449.475L507.814 453.808L512.147 453.02L511.359 448.688Z" fill="#BC9E20"/>
<path d="M507.814 453.808L503.481 454.595L504.269 458.928L508.602 458.141L507.814 453.808Z" fill="#BC9E20"/>
<path d="M508.602 458.141L504.269 458.928L505.056 463.261L509.389 462.474L508.602 458.141Z" fill="#BC9E20"/>
<path d="M509.389 462.474L505.056 463.261L505.844 467.594L510.177 466.807L509.389 462.474Z" fill="#BC9E20"/>
<path d="M527.105 436.887L522.772 437.674L523.56 442.007L527.893 441.22L527.105 436.887Z" fill="#BC9E20"/>
<path d="M552.302 427.83L547.969 428.618L548.757 432.951L553.09 432.163L552.302 427.83Z" fill="#BC9E20"/>
<path d="M547.969 428.618L543.636 429.406L544.424 433.739L548.757 432.951L547.969 428.618Z" fill="#BC9E20"/>
<path d="M543.636 429.406L539.303 430.193L540.091 434.526L544.424 433.739L543.636 429.406Z" fill="#BC9E20"/>
<path d="M539.316 430.191L534.983 430.979L535.771 435.311L540.104 434.524L539.316 430.191Z" fill="#BC9E20"/>
<path d="M534.983 430.979L530.65 431.766L531.438 436.099L535.771 435.311L534.983 430.979Z" fill="#BC9E20"/>
<path d="M530.65 431.766L526.317 432.554L527.105 436.887L531.438 436.099L530.65 431.766Z" fill="#BC9E20"/>
<path d="M592.049 474.196L587.716 474.984L588.503 479.316L592.836 478.529L592.049 474.196Z" fill="#BC9E20"/>
<path d="M591.261 469.863L586.928 470.651L587.716 474.984L592.049 474.196L591.261 469.863Z" fill="#BC9E20"/>
<path d="M590.476 465.543L586.143 466.331L586.931 470.664L591.264 469.876L590.476 465.543Z" fill="#BC9E20"/>
<path d="M589.688 461.21L585.355 461.998L586.143 466.331L590.476 465.543L589.688 461.21Z" fill="#BC9E20"/>
<path d="M588.901 456.877L584.568 457.665L585.355 461.998L589.688 461.21L588.901 456.877Z" fill="#BC9E20"/>
<path d="M588.113 452.544L583.78 453.332L584.568 457.665L588.901 456.877L588.113 452.544Z" fill="#BC9E20"/>
<path d="M561.755 430.588L557.422 431.376L558.21 435.709L562.543 434.921L561.755 430.588Z" fill="#BC9E20"/>
<path d="M566.075 429.803L561.742 430.591L562.53 434.924L566.863 434.136L566.075 429.803Z" fill="#BC9E20"/>
<path d="M571.193 433.335L566.86 434.123L567.648 438.456L571.981 437.668L571.193 433.335Z" fill="#BC9E20"/>
<path d="M576.314 436.881L571.981 437.668L572.769 442.001L577.102 441.214L576.314 436.881Z" fill="#BC9E20"/>
<path d="M581.435 440.426L577.102 441.214L577.889 445.547L582.222 444.759L581.435 440.426Z" fill="#BC9E20"/>
<path d="M582.222 444.759L577.889 445.547L578.677 449.88L583.01 449.092L582.222 444.759Z" fill="#BC9E20"/>
<path d="M583.01 449.092L578.677 449.879L579.464 454.212L583.797 453.425L583.01 449.092Z" fill="#BC9E20"/>
<path d="M557.423 431.376L553.09 432.164L553.877 436.497L558.21 435.709L557.423 431.376Z" fill="#BC9E20"/>
<path d="M567.242 510.024L562.909 510.812L563.697 515.145L568.03 514.357L567.242 510.024Z" fill="#BC9E20"/>
<path d="M562.909 510.812L558.576 511.599L559.364 515.932L563.697 515.145L562.909 510.812Z" fill="#BC9E20"/>
<path d="M558.576 511.599L554.243 512.387L555.031 516.72L559.364 515.932L558.576 511.599Z" fill="#BC9E20"/>
<path d="M554.256 512.384L549.923 513.172L550.711 517.505L555.044 516.717L554.256 512.384Z" fill="#BC9E20"/>
<path d="M549.923 513.172L545.59 513.959L546.378 518.292L550.711 517.505L549.923 513.172Z" fill="#BC9E20"/>
<path d="M545.59 513.959L541.257 514.747L542.045 519.08L546.378 518.292L545.59 513.959Z" fill="#BC9E20"/>
<path d="M588.128 452.624L583.795 453.411L584.583 457.744L588.915 456.957L588.128 452.624Z" fill="#BC9E20"/>
<path d="M588.915 456.957L584.583 457.744L585.37 462.077L589.703 461.29L588.915 456.957Z" fill="#BC9E20"/>
<path d="M589.703 461.29L585.37 462.078L586.158 466.411L590.491 465.623L589.703 461.29Z" fill="#BC9E20"/>
<path d="M590.491 465.623L586.158 466.411L586.945 470.743L591.278 469.956L590.491 465.623Z" fill="#BC9E20"/>
<path d="M591.278 469.956L586.945 470.743L587.733 475.076L592.066 474.289L591.278 469.956Z" fill="#BC9E20"/>
<path d="M592.063 474.275L587.73 475.063L588.518 479.396L592.851 478.608L592.063 474.275Z" fill="#BC9E20"/>
<path d="M575.121 504.116L570.788 504.904L571.575 509.237L575.908 508.449L575.121 504.116Z" fill="#BC9E20"/>
<path d="M579.44 503.331L575.107 504.118L575.895 508.451L580.227 507.664L579.44 503.331Z" fill="#BC9E20"/>
<path d="M582.985 498.21L578.652 498.998L579.44 503.331L583.773 502.543L582.985 498.21Z" fill="#BC9E20"/>
<path d="M586.531 493.09L582.198 493.877L582.985 498.21L587.318 497.423L586.531 493.09Z" fill="#BC9E20"/>
<path d="M590.079 487.982L585.746 488.77L586.533 493.103L590.866 492.315L590.079 487.982Z" fill="#BC9E20"/>
<path d="M589.291 483.65L584.958 484.437L585.746 488.77L590.079 487.983L589.291 483.65Z" fill="#BC9E20"/>
<path d="M588.503 479.316L584.17 480.104L584.958 484.437L589.291 483.649L588.503 479.316Z" fill="#BC9E20"/>
<path d="M570.788 504.904L566.455 505.691L567.242 510.024L571.575 509.237L570.788 504.904Z" fill="#BC9E20"/>
<path d="M545.59 513.959L541.257 514.747L542.045 519.08L546.378 518.292L545.59 513.959Z" fill="#BC9E20"/>
<path d="M549.923 513.172L545.59 513.959L546.378 518.292L550.711 517.505L549.923 513.172Z" fill="#BC9E20"/>
<path d="M554.256 512.384L549.923 513.172L550.711 517.505L555.044 516.717L554.256 512.384Z" fill="#BC9E20"/>
<path d="M558.576 511.599L554.243 512.387L555.031 516.72L559.364 515.932L558.576 511.599Z" fill="#BC9E20"/>
<path d="M562.909 510.812L558.576 511.599L559.364 515.932L563.697 515.145L562.909 510.812Z" fill="#BC9E20"/>
<path d="M567.242 510.024L562.909 510.812L563.697 515.145L568.03 514.357L567.242 510.024Z" fill="#BC9E20"/>
<path d="M505.841 467.581L501.508 468.369L502.296 472.702L506.629 471.914L505.841 467.581Z" fill="#BC9E20"/>
<path d="M506.629 471.914L502.296 472.702L503.083 477.035L507.416 476.247L506.629 471.914Z" fill="#BC9E20"/>
<path d="M507.416 476.247L503.083 477.035L503.871 481.368L508.204 480.58L507.416 476.247Z" fill="#BC9E20"/>
<path d="M508.204 480.58L503.871 481.367L504.659 485.7L508.992 484.913L508.204 480.58Z" fill="#BC9E20"/>
<path d="M508.992 484.913L504.659 485.7L505.446 490.033L509.779 489.246L508.992 484.913Z" fill="#BC9E20"/>
<path d="M509.777 489.233L505.444 490.02L506.231 494.353L510.564 493.566L509.777 489.233Z" fill="#BC9E20"/>
<path d="M536.137 511.202L531.804 511.989L532.592 516.322L536.925 515.535L536.137 511.202Z" fill="#BC9E20"/>
<path d="M531.817 511.987L527.484 512.775L528.272 517.108L532.605 516.32L531.817 511.987Z" fill="#BC9E20"/>
<path d="M526.697 508.442L522.364 509.229L523.151 513.562L527.484 512.775L526.697 508.442Z" fill="#BC9E20"/>
<path d="M521.576 504.896L517.243 505.684L518.031 510.017L522.364 509.229L521.576 504.896Z" fill="#BC9E20"/>
<path d="M516.458 501.364L512.125 502.152L512.913 506.485L517.246 505.697L516.458 501.364Z" fill="#BC9E20"/>
<path d="M515.67 497.031L511.337 497.819L512.125 502.152L516.458 501.364L515.67 497.031Z" fill="#BC9E20"/>
<path d="M514.883 492.698L510.55 493.486L511.337 497.819L515.67 497.031L514.883 492.698Z" fill="#BC9E20"/>
<path d="M540.47 510.414L536.137 511.202L536.925 515.535L541.258 514.747L540.47 510.414Z" fill="#BC9E20"/>
<path d="M571.583 460.108L572.371 464.44L568.038 465.228L569.613 473.894L560.947 475.469L559.372 466.803L563.705 466.016L562.917 461.683L571.583 460.108L568.435 442.789L559.769 444.364L560.557 448.697L556.224 449.485L557.012 453.818L552.679 454.605L553.466 458.938L536.161 462.084L535.373 457.751L531.04 458.538L530.253 454.205L525.92 454.993L525.132 450.66L516.466 452.235L519.614 469.554L515.281 470.341L519.217 491.993L523.55 491.205L524.337 495.538L528.67 494.751L529.458 499.084L572.761 491.213L571.973 486.88L576.306 486.092L575.519 481.759L579.852 480.971L575.916 459.32L571.583 460.108ZM551.507 472.709L555.84 471.921L556.627 476.254L552.294 477.042L551.507 472.709ZM530.643 480.978L529.068 472.312L524.735 473.099L523.947 468.766L532.613 467.191L533.401 471.524L537.734 470.736L539.309 479.402L530.643 480.978ZM567.654 487.665L537.336 493.176L535.761 484.51L540.094 483.722L540.882 488.055L549.548 486.48L548.76 482.147L553.093 481.359L553.881 485.692L562.546 484.117L561.759 479.784L566.092 478.996L567.667 487.662L567.654 487.665Z" fill="#F4E44D"/>
<path d="M533.401 471.524L529.068 472.312L529.855 476.644L534.188 475.857L533.401 471.524Z" fill="#F4E88C"/>
<path d="M573.946 473.106L569.613 473.894L570.401 478.227L574.734 477.439L573.946 473.106Z" fill="#F4E88C"/>
<path d="M578.279 472.319L573.946 473.106L574.734 477.439L579.067 476.652L578.279 472.319Z" fill="#F4E88C"/>
<path d="M526.324 481.762L521.991 482.55L522.778 486.883L527.111 486.095L526.324 481.762Z" fill="#F4E88C"/>
<path d="M530.643 480.977L526.31 481.765L527.098 486.098L531.431 485.31L530.643 480.977Z" fill="#F4E88C"/>
<path d="M563.719 466.013L559.386 466.801L560.173 471.134L564.506 470.346L563.719 466.013Z" fill="#F4E88C"/>
<path d="M528.684 494.749L524.351 495.536L525.139 499.869L529.472 499.082L528.684 494.749Z" fill="#AA9115"/>
<path d="M562.533 484.12L558.2 484.907L553.867 485.695L553.08 481.362L548.747 482.149L549.534 486.482L545.215 487.268L540.882 488.055L540.094 483.722L535.761 484.51L536.549 488.843L537.336 493.176L541.669 492.388L546.002 491.601L550.322 490.815L554.655 490.028L558.988 489.24L563.321 488.453L567.654 487.665L566.866 483.332L566.079 478.999L561.746 479.787L562.533 484.12Z" fill="#AA9115"/>
<path d="M539.309 479.402L538.521 475.069L537.734 470.736L533.401 471.524L534.188 475.857L529.855 476.644L530.643 480.977L534.976 480.19L539.309 479.402Z" fill="#AA9115"/>
<path d="M555.84 471.921L551.507 472.709L552.295 477.042L556.628 476.254L555.84 471.921Z" fill="#AA9115"/>
<path d="M528.281 467.979L523.948 468.766L524.735 473.099L529.068 472.312L533.401 471.524L532.614 467.191L528.281 467.979Z" fill="#AA9115"/>
<path d="M562.931 461.681L563.719 466.014L564.506 470.346L560.173 471.134L560.961 475.467L565.294 474.679L569.614 473.894L568.826 469.561L568.038 465.228L572.371 464.441L571.584 460.108L567.251 460.895L562.931 461.681Z" fill="#AA9115"/>
<path d="M564.109 492.786L559.776 493.573L555.443 494.361L551.11 495.148L546.79 495.933L542.457 496.721L538.124 497.509L533.791 498.296L529.458 499.084L530.246 503.417L534.579 502.629L538.912 501.842L543.245 501.054L547.578 500.266L551.898 499.481L556.231 498.694L560.564 497.906L564.897 497.119L569.23 496.331L573.549 495.546L572.762 491.213L568.442 491.998L564.109 492.786Z" fill="#AA9115"/>
<path d="M523.563 491.203L519.23 491.99L520.018 496.323L524.351 495.536L523.563 491.203Z" fill="#AA9115"/>
<path d="M517.658 483.338L516.87 479.005L516.082 474.672L515.295 470.339L510.962 471.127L511.75 475.46L512.537 479.793L513.325 484.125L514.11 488.445L514.897 492.778L519.23 491.991L518.443 487.658L517.658 483.338Z" fill="#AA9115"/>
<path d="M518.84 465.218L518.055 460.899L517.268 456.566L516.48 452.233L512.147 453.02L512.935 457.353L513.722 461.686L514.507 466.006L515.295 470.339L519.628 469.551L518.84 465.218Z" fill="#AA9115"/>
<path d="M525.133 450.66L524.345 446.327L520.012 447.115L515.692 447.9L516.48 452.233L520.8 451.448L525.133 450.66Z" fill="#AA9115"/>
<path d="M529.465 449.872L525.132 450.66L525.92 454.993L530.253 454.205L529.465 449.872Z" fill="#AA9115"/>
<path d="M534.586 453.418L530.253 454.205L531.041 458.538L535.373 457.751L534.586 453.418Z" fill="#AA9115"/>
<path d="M540.492 461.283L544.811 460.498L549.144 459.71L553.477 458.923L552.692 454.603L548.359 455.391L544.026 456.178L539.707 456.963L535.374 457.751L536.159 462.071L540.492 461.283Z" fill="#AA9115"/>
<path d="M576.307 486.092L571.974 486.88L572.761 491.213L577.094 490.425L576.307 486.092Z" fill="#AA9115"/>
<path d="M579.852 480.972L575.519 481.759L576.307 486.092L580.64 485.305L579.852 480.972Z" fill="#AA9115"/>
<path d="M575.917 459.32L576.704 463.653L577.492 467.986L578.279 472.319L579.064 476.639L579.852 480.971L584.185 480.184L583.397 475.851L582.612 471.531L581.825 467.198L581.037 462.865L580.249 458.532L575.917 459.32Z" fill="#AA9115"/>
<path d="M570.011 451.455L570.796 455.775L571.584 460.108L575.916 459.32L575.129 454.987L574.344 450.667L573.556 446.334L572.769 442.001L568.436 442.789L569.223 447.122L570.011 451.455Z" fill="#AA9115"/>
<path d="M568.436 442.789L567.648 438.456L563.315 439.244L558.996 440.029L559.783 444.362L564.103 443.577L568.436 442.789Z" fill="#AA9115"/>
<path d="M559.783 444.362L555.45 445.149L556.238 449.482L560.571 448.695L559.783 444.362Z" fill="#AA9115"/>
<path d="M556.238 449.482L551.905 450.27L552.692 454.603L557.025 453.815L556.238 449.482Z" fill="#AA9115"/>
</mask>
<g mask="url(#mask0)">
<rect x="447" y="373" width="200" height="200" fill="#E4C3FF" fill-opacity="0.58"/>
</g>
<path d="M-45 598.5L16.9876 438.083L65.0359 466.556L107.028 394.125L178.887 428.115L219.679 525L287.584 335.336L322.235 236L399.759 308.5L430.849 438.083L640 1" stroke="url(#paint2_linear)" stroke-width="4"/>
<circle cx="328" cy="232" r="12" fill="#5A84FC" stroke="#E4E4FB" stroke-width="8"/>
<path d="M158.63 313.426L164.851 330.852L161.936 331.892L165.054 340.628L162.139 341.668L163.18 344.583L160.265 345.623L161.306 348.538L152.57 351.656L153.611 354.571L136.131 360.811L135.091 357.896L126.356 361.014L125.315 358.099L122.4 359.14L121.36 356.225L118.445 357.266L115.327 348.53L112.412 349.571L106.192 332.145L109.106 331.105L105.988 322.369L108.903 321.329L107.862 318.414L110.777 317.374L109.737 314.459L118.472 311.341L117.435 308.435L134.914 302.195L135.951 305.101L144.687 301.983L145.727 304.897L148.642 303.857L149.682 306.772L152.597 305.731L155.715 314.466L158.63 313.426Z" fill="#F4E44D"/>
<path d="M119.309 304.48L116.394 305.52L117.435 308.435L120.349 307.394L119.309 304.48Z" fill="#BC9E20"/>
<path d="M122.224 303.439L119.309 304.48L120.35 307.394L123.264 306.354L122.224 303.439Z" fill="#BC9E20"/>
<path d="M125.138 302.399L122.224 303.439L123.264 306.354L126.179 305.313L125.138 302.399Z" fill="#BC9E20"/>
<path d="M128.044 301.361L125.129 302.402L126.17 305.317L129.085 304.276L128.044 301.361Z" fill="#BC9E20"/>
<path d="M130.959 300.321L128.044 301.361L129.085 304.276L132 303.236L130.959 300.321Z" fill="#BC9E20"/>
<path d="M133.874 299.28L130.959 300.321L131.999 303.236L134.914 302.195L133.874 299.28Z" fill="#BC9E20"/>
<path d="M111.372 346.656L108.457 347.697L109.498 350.612L112.412 349.571L111.372 346.656Z" fill="#BC9E20"/>
<path d="M110.331 343.741L107.417 344.782L108.457 347.697L111.372 346.656L110.331 343.741Z" fill="#BC9E20"/>
<path d="M109.294 340.836L106.379 341.876L107.42 344.791L110.335 343.75L109.294 340.836Z" fill="#BC9E20"/>
<path d="M108.254 337.921L105.339 338.961L106.379 341.876L109.294 340.836L108.254 337.921Z" fill="#BC9E20"/>
<path d="M107.213 335.006L104.298 336.047L105.339 338.961L108.254 337.921L107.213 335.006Z" fill="#BC9E20"/>
<path d="M106.173 332.091L103.258 333.132L104.298 336.047L107.213 335.006L106.173 332.091Z" fill="#BC9E20"/>
<path d="M114.52 309.475L111.605 310.516L112.645 313.431L115.56 312.39L114.52 309.475Z" fill="#BC9E20"/>
<path d="M111.614 310.513L108.699 311.553L109.74 314.468L112.654 313.427L111.614 310.513Z" fill="#BC9E20"/>
<path d="M109.737 314.459L106.822 315.5L107.862 318.414L110.777 317.374L109.737 314.459Z" fill="#BC9E20"/>
<path d="M107.862 318.414L104.948 319.455L105.988 322.369L108.903 321.329L107.862 318.414Z" fill="#BC9E20"/>
<path d="M105.988 322.369L103.074 323.41L104.114 326.325L107.029 325.284L105.988 322.369Z" fill="#BC9E20"/>
<path d="M107.029 325.284L104.114 326.324L105.154 329.239L108.069 328.199L107.029 325.284Z" fill="#BC9E20"/>
<path d="M108.069 328.199L105.154 329.239L106.195 332.154L109.11 331.114L108.069 328.199Z" fill="#BC9E20"/>
<path d="M117.435 308.435L114.52 309.475L115.561 312.39L118.475 311.35L117.435 308.435Z" fill="#BC9E20"/>
<path d="M133.874 299.28L130.959 300.321L131.999 303.236L134.914 302.195L133.874 299.28Z" fill="#BC9E20"/>
<path d="M130.959 300.321L128.044 301.361L129.085 304.276L132 303.236L130.959 300.321Z" fill="#BC9E20"/>
<path d="M128.044 301.361L125.129 302.402L126.17 305.317L129.085 304.276L128.044 301.361Z" fill="#BC9E20"/>
<path d="M125.138 302.399L122.224 303.439L123.264 306.354L126.179 305.313L125.138 302.399Z" fill="#BC9E20"/>
<path d="M122.224 303.439L119.309 304.48L120.35 307.394L123.264 306.354L122.224 303.439Z" fill="#BC9E20"/>
<path d="M119.309 304.48L116.394 305.52L117.435 308.435L120.349 307.394L119.309 304.48Z" fill="#BC9E20"/>
<path d="M166.725 326.897L163.811 327.937L164.851 330.852L167.766 329.811L166.725 326.897Z" fill="#BC9E20"/>
<path d="M165.685 323.982L162.77 325.022L163.811 327.937L166.725 326.896L165.685 323.982Z" fill="#BC9E20"/>
<path d="M164.647 321.076L161.732 322.116L162.773 325.031L165.688 323.991L164.647 321.076Z" fill="#BC9E20"/>
<path d="M163.607 318.161L160.692 319.202L161.732 322.116L164.647 321.076L163.607 318.161Z" fill="#BC9E20"/>
<path d="M162.566 315.247L159.651 316.287L160.692 319.202L163.607 318.161L162.566 315.247Z" fill="#BC9E20"/>
<path d="M161.526 312.332L158.611 313.372L159.651 316.287L162.566 315.247L161.526 312.332Z" fill="#BC9E20"/>
<path d="M140.744 300.114L137.829 301.155L138.87 304.069L141.784 303.029L140.744 300.114Z" fill="#BC9E20"/>
<path d="M143.65 299.077L140.735 300.117L141.775 303.032L144.69 301.992L143.65 299.077Z" fill="#BC9E20"/>
<path d="M147.601 300.942L144.687 301.983L145.727 304.897L148.642 303.857L147.601 300.942Z" fill="#BC9E20"/>
<path d="M151.557 302.816L148.642 303.857L149.683 306.772L152.597 305.731L151.557 302.816Z" fill="#BC9E20"/>
<path d="M155.512 304.691L152.597 305.731L153.638 308.646L156.552 307.605L155.512 304.691Z" fill="#BC9E20"/>
<path d="M156.552 307.605L153.638 308.646L154.678 311.56L157.593 310.52L156.552 307.605Z" fill="#BC9E20"/>
<path d="M157.593 310.52L154.678 311.561L155.719 314.475L158.633 313.435L157.593 310.52Z" fill="#BC9E20"/>
<path d="M137.829 301.155L134.914 302.195L135.955 305.11L138.869 304.069L137.829 301.155Z" fill="#BC9E20"/>
<path d="M153.611 354.571L150.696 355.611L151.737 358.526L154.652 357.486L153.611 354.571Z" fill="#BC9E20"/>
<path d="M150.696 355.611L147.782 356.652L148.822 359.567L151.737 358.526L150.696 355.611Z" fill="#BC9E20"/>
<path d="M147.781 356.652L144.867 357.692L145.907 360.607L148.822 359.567L147.781 356.652Z" fill="#BC9E20"/>
<path d="M144.876 357.689L141.961 358.73L143.001 361.644L145.916 360.604L144.876 357.689Z" fill="#BC9E20"/>
<path d="M141.961 358.73L139.046 359.77L140.087 362.685L143.002 361.645L141.961 358.73Z" fill="#BC9E20"/>
<path d="M139.046 359.77L136.131 360.811L137.172 363.726L140.087 362.685L139.046 359.77Z" fill="#BC9E20"/>
<path d="M161.545 312.385L158.63 313.426L159.671 316.341L162.586 315.3L161.545 312.385Z" fill="#BC9E20"/>
<path d="M162.586 315.3L159.671 316.341L160.711 319.255L163.626 318.215L162.586 315.3Z" fill="#BC9E20"/>
<path d="M163.626 318.215L160.711 319.255L161.751 322.17L164.666 321.13L163.626 318.215Z" fill="#BC9E20"/>
<path d="M164.666 321.13L161.751 322.17L162.792 325.085L165.707 324.044L164.666 321.13Z" fill="#BC9E20"/>
<path d="M165.707 324.044L162.792 325.085L163.832 328L166.747 326.959L165.707 324.044Z" fill="#BC9E20"/>
<path d="M166.744 326.95L163.83 327.991L164.87 330.905L167.785 329.865L166.744 326.95Z" fill="#BC9E20"/>
<path d="M158.4 349.575L155.485 350.616L156.526 353.53L159.441 352.49L158.4 349.575Z" fill="#BC9E20"/>
<path d="M161.306 348.538L158.391 349.578L159.432 352.493L162.346 351.453L161.306 348.538Z" fill="#BC9E20"/>
<path d="M163.18 344.583L160.265 345.623L161.306 348.538L164.22 347.498L163.18 344.583Z" fill="#BC9E20"/>
<path d="M165.054 340.627L162.14 341.668L163.18 344.583L166.095 343.542L165.054 340.627Z" fill="#BC9E20"/>
<path d="M166.932 336.681L164.017 337.722L165.058 340.636L167.972 339.596L166.932 336.681Z" fill="#BC9E20"/>
<path d="M165.891 333.766L162.977 334.807L164.017 337.722L166.932 336.681L165.891 333.766Z" fill="#BC9E20"/>
<path d="M164.851 330.852L161.936 331.892L162.977 334.807L165.891 333.767L164.851 330.852Z" fill="#BC9E20"/>
<path d="M155.485 350.616L152.57 351.656L153.611 354.571L156.526 353.53L155.485 350.616Z" fill="#BC9E20"/>
<path d="M139.046 359.77L136.131 360.811L137.172 363.726L140.087 362.685L139.046 359.77Z" fill="#BC9E20"/>
<path d="M141.961 358.73L139.046 359.77L140.087 362.685L143.002 361.645L141.961 358.73Z" fill="#BC9E20"/>
<path d="M144.876 357.689L141.961 358.73L143.001 361.644L145.916 360.604L144.876 357.689Z" fill="#BC9E20"/>
<path d="M147.781 356.652L144.867 357.692L145.907 360.607L148.822 359.567L147.781 356.652Z" fill="#BC9E20"/>
<path d="M150.696 355.611L147.782 356.652L148.822 359.567L151.737 358.526L150.696 355.611Z" fill="#BC9E20"/>
<path d="M153.611 354.571L150.696 355.611L151.737 358.526L154.652 357.486L153.611 354.571Z" fill="#BC9E20"/>
<path d="M106.192 332.145L103.277 333.186L104.317 336.1L107.232 335.06L106.192 332.145Z" fill="#BC9E20"/>
<path d="M107.232 335.06L104.317 336.1L105.358 339.015L108.273 337.975L107.232 335.06Z" fill="#BC9E20"/>
<path d="M108.273 337.975L105.358 339.015L106.398 341.93L109.313 340.889L108.273 337.975Z" fill="#BC9E20"/>
<path d="M109.313 340.889L106.398 341.93L107.439 344.844L110.354 343.804L109.313 340.889Z" fill="#BC9E20"/>
<path d="M110.354 343.804L107.439 344.844L108.479 347.759L111.394 346.719L110.354 343.804Z" fill="#BC9E20"/>
<path d="M111.391 346.71L108.476 347.75L109.517 350.665L112.431 349.624L111.391 346.71Z" fill="#BC9E20"/>
<path d="M132.176 358.936L129.262 359.977L130.302 362.892L133.217 361.851L132.176 358.936Z" fill="#BC9E20"/>
<path d="M129.271 359.974L126.356 361.014L127.396 363.929L130.311 362.888L129.271 359.974Z" fill="#BC9E20"/>
<path d="M125.315 358.099L122.4 359.14L123.441 362.055L126.356 361.014L125.315 358.099Z" fill="#BC9E20"/>
<path d="M121.36 356.225L118.445 357.266L119.486 360.18L122.401 359.14L121.36 356.225Z" fill="#BC9E20"/>
<path d="M117.408 354.36L114.493 355.4L115.534 358.315L118.448 357.275L117.408 354.36Z" fill="#BC9E20"/>
<path d="M116.367 351.445L113.453 352.486L114.493 355.4L117.408 354.36L116.367 351.445Z" fill="#BC9E20"/>
<path d="M115.327 348.53L112.412 349.571L113.453 352.486L116.367 351.445L115.327 348.53Z" fill="#BC9E20"/>
<path d="M135.091 357.896L132.176 358.937L133.217 361.851L136.131 360.811L135.091 357.896Z" fill="#BC9E20"/>
<path d="M150.926 319.462L151.967 322.377L149.052 323.417L151.133 329.247L145.304 331.328L143.223 325.498L146.138 324.458L145.097 321.543L150.926 319.462L146.768 307.812L140.938 309.893L141.979 312.808L139.064 313.848L140.105 316.763L137.19 317.804L138.23 320.718L126.589 324.874L125.549 321.959L122.634 323L121.593 320.085L118.679 321.125L117.638 318.211L111.809 320.292L115.968 331.942L113.053 332.982L118.252 347.547L121.167 346.506L122.207 349.421L125.122 348.381L126.162 351.295L155.292 340.897L154.251 337.982L157.166 336.942L156.126 334.027L159.04 332.986L153.841 318.422L150.926 319.462ZM138.443 330.491L141.357 329.45L142.398 332.365L139.483 333.406L138.443 330.491ZM124.918 338.605L122.837 332.775L119.923 333.816L118.882 330.901L124.712 328.82L125.752 331.735L128.667 330.694L130.748 336.524L124.918 338.605ZM151.346 339.019L130.951 346.3L128.87 340.47L131.785 339.43L132.826 342.344L138.655 340.263L137.615 337.349L140.529 336.308L141.57 339.223L147.399 337.142L146.359 334.227L149.274 333.187L151.355 339.016L151.346 339.019Z" fill="#F4E44D"/>
<path d="M125.752 331.735L122.837 332.775L123.878 335.69L126.793 334.65L125.752 331.735Z" fill="#F4E88C"/>
<path d="M154.048 328.206L151.133 329.247L152.174 332.162L155.089 331.121L154.048 328.206Z" fill="#F4E88C"/>
<path d="M156.963 327.166L154.048 328.206L155.088 331.121L158.003 330.081L156.963 327.166Z" fill="#F4E88C"/>
<path d="M122.013 339.642L119.098 340.683L120.139 343.597L123.053 342.557L122.013 339.642Z" fill="#F4E88C"/>
<path d="M124.919 338.605L122.004 339.645L123.044 342.56L125.959 341.52L124.919 338.605Z" fill="#F4E88C"/>
<path d="M146.146 324.455L143.231 325.495L144.272 328.41L147.187 327.369L146.146 324.455Z" fill="#F4E88C"/>
<path d="M125.131 348.377L122.216 349.418L123.257 352.333L126.172 351.292L125.131 348.377Z" fill="#AA9115"/>
<path d="M147.391 337.145L144.476 338.186L141.561 339.226L140.521 336.311L137.606 337.352L138.646 340.267L135.741 341.304L132.826 342.344L131.785 339.43L128.871 340.47L129.911 343.385L130.952 346.3L133.866 345.259L136.781 344.219L139.687 343.181L142.602 342.141L145.516 341.1L148.431 340.06L151.346 339.019L150.305 336.105L149.265 333.19L146.35 334.23L147.391 337.145Z" fill="#AA9115"/>
<path d="M130.748 336.524L129.707 333.609L128.667 330.694L125.752 331.735L126.793 334.65L123.878 335.69L124.918 338.605L127.833 337.564L130.748 336.524Z" fill="#AA9115"/>
<path d="M141.358 329.45L138.443 330.491L139.483 333.406L142.398 332.365L141.358 329.45Z" fill="#AA9115"/>
<path d="M121.797 329.861L118.882 330.901L119.923 333.816L122.838 332.775L125.752 331.735L124.712 328.82L121.797 329.861Z" fill="#AA9115"/>
<path d="M145.106 321.54L146.147 324.455L147.187 327.369L144.272 328.41L145.313 331.325L148.228 330.284L151.133 329.247L150.093 326.332L149.052 323.417L151.967 322.377L150.927 319.462L148.012 320.503L145.106 321.54Z" fill="#AA9115"/>
<path d="M149.472 342.975L146.557 344.015L143.642 345.056L140.727 346.096L137.822 347.133L134.907 348.174L131.992 349.214L129.077 350.255L126.163 351.295L127.203 354.21L130.118 353.17L133.033 352.129L135.947 351.089L138.862 350.048L141.768 349.011L144.683 347.97L147.597 346.93L150.512 345.889L153.427 344.849L156.333 343.812L155.292 340.897L152.386 341.934L149.472 342.975Z" fill="#AA9115"/>
<path d="M121.176 346.503L118.261 347.544L119.302 350.458L122.216 349.418L121.176 346.503Z" fill="#AA9115"/>
<path d="M116.183 341.723L115.143 338.808L114.102 335.894L113.062 332.979L110.147 334.019L111.187 336.934L112.228 339.849L113.268 342.763L114.306 345.669L115.346 348.584L118.261 347.544L117.22 344.629L116.183 341.723Z" fill="#AA9115"/>
<path d="M114.936 329.024L113.899 326.118L112.858 323.203L111.818 320.288L108.903 321.329L109.943 324.244L110.984 327.158L112.021 330.064L113.062 332.979L115.976 331.938L114.936 329.024Z" fill="#AA9115"/>
<path d="M117.638 318.21L116.598 315.296L113.683 316.336L110.777 317.374L111.818 320.288L114.724 319.251L117.638 318.21Z" fill="#AA9115"/>
<path d="M120.553 317.17L117.638 318.211L118.679 321.125L121.593 320.085L120.553 317.17Z" fill="#AA9115"/>
<path d="M124.508 319.044L121.593 320.085L122.634 322.999L125.548 321.959L124.508 319.044Z" fill="#AA9115"/>
<path d="M129.501 323.824L132.407 322.787L135.321 321.747L138.236 320.706L137.199 317.8L134.284 318.841L131.369 319.881L128.464 320.918L125.549 321.959L126.586 324.865L129.501 323.824Z" fill="#AA9115"/>
<path d="M157.166 336.942L154.251 337.982L155.292 340.897L158.207 339.856L157.166 336.942Z" fill="#AA9115"/>
<path d="M159.041 332.986L156.126 334.027L157.166 336.942L160.081 335.901L159.041 332.986Z" fill="#AA9115"/>
<path d="M153.841 318.422L154.882 321.336L155.922 324.251L156.963 327.166L158 330.072L159.041 332.986L161.955 331.946L160.915 329.031L159.878 326.125L158.837 323.211L157.797 320.296L156.756 317.381L153.841 318.422Z" fill="#AA9115"/>
<path d="M148.849 313.641L149.886 316.547L150.926 319.462L153.841 318.422L152.801 315.507L151.763 312.601L150.723 309.686L149.682 306.772L146.768 307.812L147.808 310.727L148.849 313.641Z" fill="#AA9115"/>
<path d="M146.768 307.812L145.727 304.897L142.813 305.938L139.907 306.975L140.947 309.89L143.853 308.853L146.768 307.812Z" fill="#AA9115"/>
<path d="M140.947 309.89L138.033 310.93L139.073 313.845L141.988 312.805L140.947 309.89Z" fill="#AA9115"/>
<path d="M139.073 313.845L136.158 314.885L137.199 317.8L140.113 316.76L139.073 313.845Z" fill="#AA9115"/>
<mask id="mask1" mask-type="alpha" maskUnits="userSpaceOnUse" x="99" y="295" width="73" height="73">
<path d="M158.63 313.426L164.851 330.852L161.936 331.892L165.054 340.628L162.139 341.668L163.18 344.583L160.265 345.623L161.306 348.538L152.57 351.656L153.611 354.571L136.131 360.811L135.091 357.896L126.356 361.014L125.315 358.099L122.4 359.14L121.36 356.225L118.445 357.266L115.327 348.53L112.412 349.571L106.192 332.145L109.106 331.105L105.988 322.369L108.903 321.329L107.862 318.414L110.777 317.374L109.737 314.459L118.472 311.341L117.435 308.435L134.914 302.195L135.951 305.101L144.687 301.983L145.727 304.897L148.642 303.857L149.682 306.772L152.597 305.731L155.715 314.466L158.63 313.426Z" fill="#F4E44D"/>
<path d="M119.309 304.48L116.394 305.52L117.435 308.435L120.349 307.394L119.309 304.48Z" fill="#BC9E20"/>
<path d="M122.224 303.439L119.309 304.48L120.35 307.394L123.264 306.354L122.224 303.439Z" fill="#BC9E20"/>
<path d="M125.138 302.399L122.224 303.439L123.264 306.354L126.179 305.313L125.138 302.399Z" fill="#BC9E20"/>
<path d="M128.044 301.361L125.129 302.402L126.17 305.317L129.085 304.276L128.044 301.361Z" fill="#BC9E20"/>
<path d="M130.959 300.321L128.044 301.361L129.085 304.276L132 303.236L130.959 300.321Z" fill="#BC9E20"/>
<path d="M133.874 299.28L130.959 300.321L131.999 303.236L134.914 302.195L133.874 299.28Z" fill="#BC9E20"/>
<path d="M111.372 346.656L108.457 347.697L109.498 350.612L112.412 349.571L111.372 346.656Z" fill="#BC9E20"/>
<path d="M110.331 343.741L107.417 344.782L108.457 347.697L111.372 346.656L110.331 343.741Z" fill="#BC9E20"/>
<path d="M109.294 340.836L106.379 341.876L107.42 344.791L110.335 343.75L109.294 340.836Z" fill="#BC9E20"/>
<path d="M108.254 337.921L105.339 338.961L106.379 341.876L109.294 340.836L108.254 337.921Z" fill="#BC9E20"/>
<path d="M107.213 335.006L104.298 336.047L105.339 338.961L108.254 337.921L107.213 335.006Z" fill="#BC9E20"/>
<path d="M106.173 332.091L103.258 333.132L104.298 336.047L107.213 335.006L106.173 332.091Z" fill="#BC9E20"/>
<path d="M114.52 309.475L111.605 310.516L112.645 313.431L115.56 312.39L114.52 309.475Z" fill="#BC9E20"/>
<path d="M111.614 310.513L108.699 311.553L109.74 314.468L112.654 313.427L111.614 310.513Z" fill="#BC9E20"/>
<path d="M109.737 314.459L106.822 315.5L107.862 318.414L110.777 317.374L109.737 314.459Z" fill="#BC9E20"/>
<path d="M107.862 318.414L104.948 319.455L105.988 322.369L108.903 321.329L107.862 318.414Z" fill="#BC9E20"/>
<path d="M105.988 322.369L103.074 323.41L104.114 326.325L107.029 325.284L105.988 322.369Z" fill="#BC9E20"/>
<path d="M107.029 325.284L104.114 326.324L105.154 329.239L108.069 328.199L107.029 325.284Z" fill="#BC9E20"/>
<path d="M108.069 328.199L105.154 329.239L106.195 332.154L109.11 331.114L108.069 328.199Z" fill="#BC9E20"/>
<path d="M117.435 308.435L114.52 309.475L115.561 312.39L118.475 311.35L117.435 308.435Z" fill="#BC9E20"/>
<path d="M133.874 299.28L130.959 300.321L131.999 303.236L134.914 302.195L133.874 299.28Z" fill="#BC9E20"/>
<path d="M130.959 300.321L128.044 301.361L129.085 304.276L132 303.236L130.959 300.321Z" fill="#BC9E20"/>
<path d="M128.044 301.361L125.129 302.402L126.17 305.317L129.085 304.276L128.044 301.361Z" fill="#BC9E20"/>
<path d="M125.138 302.399L122.224 303.439L123.264 306.354L126.179 305.313L125.138 302.399Z" fill="#BC9E20"/>
<path d="M122.224 303.439L119.309 304.48L120.35 307.394L123.264 306.354L122.224 303.439Z" fill="#BC9E20"/>
<path d="M119.309 304.48L116.394 305.52L117.435 308.435L120.349 307.394L119.309 304.48Z" fill="#BC9E20"/>
<path d="M166.725 326.897L163.811 327.937L164.851 330.852L167.766 329.811L166.725 326.897Z" fill="#BC9E20"/>
<path d="M165.685 323.982L162.77 325.022L163.811 327.937L166.725 326.896L165.685 323.982Z" fill="#BC9E20"/>
<path d="M164.647 321.076L161.732 322.116L162.773 325.031L165.688 323.991L164.647 321.076Z" fill="#BC9E20"/>
<path d="M163.607 318.161L160.692 319.202L161.732 322.116L164.647 321.076L163.607 318.161Z" fill="#BC9E20"/>
<path d="M162.566 315.247L159.651 316.287L160.692 319.202L163.607 318.161L162.566 315.247Z" fill="#BC9E20"/>
<path d="M161.526 312.332L158.611 313.372L159.651 316.287L162.566 315.247L161.526 312.332Z" fill="#BC9E20"/>
<path d="M140.744 300.114L137.829 301.155L138.87 304.069L141.784 303.029L140.744 300.114Z" fill="#BC9E20"/>
<path d="M143.65 299.077L140.735 300.117L141.775 303.032L144.69 301.992L143.65 299.077Z" fill="#BC9E20"/>
<path d="M147.601 300.942L144.687 301.983L145.727 304.897L148.642 303.857L147.601 300.942Z" fill="#BC9E20"/>
<path d="M151.557 302.816L148.642 303.857L149.683 306.772L152.597 305.731L151.557 302.816Z" fill="#BC9E20"/>
<path d="M155.512 304.691L152.597 305.731L153.638 308.646L156.552 307.605L155.512 304.691Z" fill="#BC9E20"/>
<path d="M156.552 307.605L153.638 308.646L154.678 311.56L157.593 310.52L156.552 307.605Z" fill="#BC9E20"/>
<path d="M157.593 310.52L154.678 311.561L155.719 314.475L158.633 313.435L157.593 310.52Z" fill="#BC9E20"/>
<path d="M137.829 301.155L134.914 302.195L135.955 305.11L138.869 304.069L137.829 301.155Z" fill="#BC9E20"/>
<path d="M153.611 354.571L150.696 355.611L151.737 358.526L154.652 357.486L153.611 354.571Z" fill="#BC9E20"/>
<path d="M150.696 355.611L147.782 356.652L148.822 359.567L151.737 358.526L150.696 355.611Z" fill="#BC9E20"/>
<path d="M147.781 356.652L144.867 357.692L145.907 360.607L148.822 359.567L147.781 356.652Z" fill="#BC9E20"/>
<path d="M144.876 357.689L141.961 358.73L143.001 361.644L145.916 360.604L144.876 357.689Z" fill="#BC9E20"/>
<path d="M141.961 358.73L139.046 359.77L140.087 362.685L143.002 361.645L141.961 358.73Z" fill="#BC9E20"/>
<path d="M139.046 359.77L136.131 360.811L137.172 363.726L140.087 362.685L139.046 359.77Z" fill="#BC9E20"/>
<path d="M161.545 312.385L158.63 313.426L159.671 316.341L162.586 315.3L161.545 312.385Z" fill="#BC9E20"/>
<path d="M162.586 315.3L159.671 316.341L160.711 319.255L163.626 318.215L162.586 315.3Z" fill="#BC9E20"/>
<path d="M163.626 318.215L160.711 319.255L161.751 322.17L164.666 321.13L163.626 318.215Z" fill="#BC9E20"/>
<path d="M164.666 321.13L161.751 322.17L162.792 325.085L165.707 324.044L164.666 321.13Z" fill="#BC9E20"/>
<path d="M165.707 324.044L162.792 325.085L163.832 328L166.747 326.959L165.707 324.044Z" fill="#BC9E20"/>
<path d="M166.744 326.95L163.83 327.991L164.87 330.905L167.785 329.865L166.744 326.95Z" fill="#BC9E20"/>
<path d="M158.4 349.575L155.485 350.616L156.526 353.53L159.441 352.49L158.4 349.575Z" fill="#BC9E20"/>
<path d="M161.306 348.538L158.391 349.578L159.432 352.493L162.346 351.453L161.306 348.538Z" fill="#BC9E20"/>
<path d="M163.18 344.583L160.265 345.623L161.306 348.538L164.22 347.498L163.18 344.583Z" fill="#BC9E20"/>
<path d="M165.054 340.627L162.14 341.668L163.18 344.583L166.095 343.542L165.054 340.627Z" fill="#BC9E20"/>
<path d="M166.932 336.681L164.017 337.722L165.058 340.636L167.972 339.596L166.932 336.681Z" fill="#BC9E20"/>
<path d="M165.891 333.766L162.977 334.807L164.017 337.722L166.932 336.681L165.891 333.766Z" fill="#BC9E20"/>
<path d="M164.851 330.852L161.936 331.892L162.977 334.807L165.891 333.767L164.851 330.852Z" fill="#BC9E20"/>
<path d="M155.485 350.616L152.57 351.656L153.611 354.571L156.526 353.53L155.485 350.616Z" fill="#BC9E20"/>
<path d="M139.046 359.77L136.131 360.811L137.172 363.726L140.087 362.685L139.046 359.77Z" fill="#BC9E20"/>
<path d="M141.961 358.73L139.046 359.77L140.087 362.685L143.002 361.645L141.961 358.73Z" fill="#BC9E20"/>
<path d="M144.876 357.689L141.961 358.73L143.001 361.644L145.916 360.604L144.876 357.689Z" fill="#BC9E20"/>
<path d="M147.781 356.652L144.867 357.692L145.907 360.607L148.822 359.567L147.781 356.652Z" fill="#BC9E20"/>
<path d="M150.696 355.611L147.782 356.652L148.822 359.567L151.737 358.526L150.696 355.611Z" fill="#BC9E20"/>
<path d="M153.611 354.571L150.696 355.611L151.737 358.526L154.652 357.486L153.611 354.571Z" fill="#BC9E20"/>
<path d="M106.192 332.145L103.277 333.186L104.317 336.1L107.232 335.06L106.192 332.145Z" fill="#BC9E20"/>
<path d="M107.232 335.06L104.317 336.1L105.358 339.015L108.273 337.975L107.232 335.06Z" fill="#BC9E20"/>
<path d="M108.273 337.975L105.358 339.015L106.398 341.93L109.313 340.889L108.273 337.975Z" fill="#BC9E20"/>
<path d="M109.313 340.889L106.398 341.93L107.439 344.844L110.354 343.804L109.313 340.889Z" fill="#BC9E20"/>
<path d="M110.354 343.804L107.439 344.844L108.479 347.759L111.394 346.719L110.354 343.804Z" fill="#BC9E20"/>
<path d="M111.391 346.71L108.476 347.75L109.517 350.665L112.431 349.624L111.391 346.71Z" fill="#BC9E20"/>
<path d="M132.176 358.936L129.262 359.977L130.302 362.892L133.217 361.851L132.176 358.936Z" fill="#BC9E20"/>
<path d="M129.271 359.974L126.356 361.014L127.396 363.929L130.311 362.888L129.271 359.974Z" fill="#BC9E20"/>
<path d="M125.315 358.099L122.4 359.14L123.441 362.055L126.356 361.014L125.315 358.099Z" fill="#BC9E20"/>
<path d="M121.36 356.225L118.445 357.266L119.486 360.18L122.401 359.14L121.36 356.225Z" fill="#BC9E20"/>
<path d="M117.408 354.36L114.493 355.4L115.534 358.315L118.448 357.275L117.408 354.36Z" fill="#BC9E20"/>
<path d="M116.367 351.445L113.453 352.486L114.493 355.4L117.408 354.36L116.367 351.445Z" fill="#BC9E20"/>
<path d="M115.327 348.53L112.412 349.571L113.453 352.486L116.367 351.445L115.327 348.53Z" fill="#BC9E20"/>
<path d="M135.091 357.896L132.176 358.937L133.217 361.851L136.131 360.811L135.091 357.896Z" fill="#BC9E20"/>
<path d="M150.926 319.462L151.967 322.377L149.052 323.417L151.133 329.247L145.304 331.328L143.223 325.498L146.138 324.458L145.097 321.543L150.926 319.462L146.768 307.812L140.938 309.893L141.979 312.808L139.064 313.848L140.105 316.763L137.19 317.804L138.23 320.718L126.589 324.874L125.549 321.959L122.634 323L121.593 320.085L118.679 321.125L117.638 318.211L111.809 320.292L115.968 331.942L113.053 332.982L118.252 347.547L121.167 346.506L122.207 349.421L125.122 348.381L126.162 351.295L155.292 340.897L154.251 337.982L157.166 336.942L156.126 334.027L159.04 332.986L153.841 318.422L150.926 319.462ZM138.443 330.491L141.357 329.45L142.398 332.365L139.483 333.406L138.443 330.491ZM124.918 338.605L122.837 332.775L119.923 333.816L118.882 330.901L124.712 328.82L125.752 331.735L128.667 330.694L130.748 336.524L124.918 338.605ZM151.346 339.019L130.951 346.3L128.87 340.47L131.785 339.43L132.826 342.344L138.655 340.263L137.615 337.349L140.529 336.308L141.57 339.223L147.399 337.142L146.359 334.227L149.274 333.187L151.355 339.016L151.346 339.019Z" fill="#F4E44D"/>
<path d="M125.752 331.735L122.837 332.775L123.878 335.69L126.793 334.65L125.752 331.735Z" fill="#F4E88C"/>
<path d="M154.048 328.206L151.133 329.247L152.174 332.162L155.089 331.121L154.048 328.206Z" fill="#F4E88C"/>
<path d="M156.963 327.166L154.048 328.206L155.088 331.121L158.003 330.081L156.963 327.166Z" fill="#F4E88C"/>
<path d="M122.013 339.642L119.098 340.683L120.139 343.597L123.053 342.557L122.013 339.642Z" fill="#F4E88C"/>
<path d="M124.919 338.605L122.004 339.645L123.044 342.56L125.959 341.52L124.919 338.605Z" fill="#F4E88C"/>
<path d="M146.146 324.455L143.231 325.495L144.272 328.41L147.187 327.369L146.146 324.455Z" fill="#F4E88C"/>
<path d="M125.131 348.377L122.216 349.418L123.257 352.333L126.172 351.292L125.131 348.377Z" fill="#AA9115"/>
<path d="M147.391 337.145L144.476 338.186L141.561 339.226L140.521 336.311L137.606 337.352L138.646 340.267L135.741 341.304L132.826 342.344L131.785 339.43L128.871 340.47L129.911 343.385L130.952 346.3L133.866 345.259L136.781 344.219L139.687 343.181L142.602 342.141L145.516 341.1L148.431 340.06L151.346 339.019L150.305 336.105L149.265 333.19L146.35 334.23L147.391 337.145Z" fill="#AA9115"/>
<path d="M130.748 336.524L129.707 333.609L128.667 330.694L125.752 331.735L126.793 334.65L123.878 335.69L124.918 338.605L127.833 337.564L130.748 336.524Z" fill="#AA9115"/>
<path d="M141.358 329.45L138.443 330.491L139.483 333.406L142.398 332.365L141.358 329.45Z" fill="#AA9115"/>
<path d="M121.797 329.861L118.882 330.901L119.923 333.816L122.838 332.775L125.752 331.735L124.712 328.82L121.797 329.861Z" fill="#AA9115"/>
<path d="M145.106 321.54L146.147 324.455L147.187 327.369L144.272 328.41L145.313 331.325L148.228 330.284L151.133 329.247L150.093 326.332L149.052 323.417L151.967 322.377L150.927 319.462L148.012 320.503L145.106 321.54Z" fill="#AA9115"/>
<path d="M149.472 342.975L146.557 344.015L143.642 345.056L140.727 346.096L137.822 347.133L134.907 348.174L131.992 349.214L129.077 350.255L126.163 351.295L127.203 354.21L130.118 353.17L133.033 352.129L135.947 351.089L138.862 350.048L141.768 349.011L144.683 347.97L147.597 346.93L150.512 345.889L153.427 344.849L156.333 343.812L155.292 340.897L152.386 341.934L149.472 342.975Z" fill="#AA9115"/>
<path d="M121.176 346.503L118.261 347.544L119.302 350.458L122.216 349.418L121.176 346.503Z" fill="#AA9115"/>
<path d="M116.183 341.723L115.143 338.808L114.102 335.894L113.062 332.979L110.147 334.019L111.187 336.934L112.228 339.849L113.268 342.763L114.306 345.669L115.346 348.584L118.261 347.544L117.22 344.629L116.183 341.723Z" fill="#AA9115"/>
<path d="M114.936 329.024L113.899 326.118L112.858 323.203L111.818 320.288L108.903 321.329L109.943 324.244L110.984 327.158L112.021 330.064L113.062 332.979L115.976 331.938L114.936 329.024Z" fill="#AA9115"/>
<path d="M117.638 318.21L116.598 315.296L113.683 316.336L110.777 317.374L111.818 320.288L114.724 319.251L117.638 318.21Z" fill="#AA9115"/>
<path d="M120.553 317.17L117.638 318.211L118.679 321.125L121.593 320.085L120.553 317.17Z" fill="#AA9115"/>
<path d="M124.508 319.044L121.593 320.085L122.634 322.999L125.548 321.959L124.508 319.044Z" fill="#AA9115"/>
<path d="M129.501 323.824L132.407 322.787L135.321 321.747L138.236 320.706L137.199 317.8L134.284 318.841L131.369 319.881L128.464 320.918L125.549 321.959L126.586 324.865L129.501 323.824Z" fill="#AA9115"/>
<path d="M157.166 336.942L154.251 337.982L155.292 340.897L158.207 339.856L157.166 336.942Z" fill="#AA9115"/>
<path d="M159.041 332.986L156.126 334.027L157.166 336.942L160.081 335.901L159.041 332.986Z" fill="#AA9115"/>
<path d="M153.841 318.422L154.882 321.336L155.922 324.251L156.963 327.166L158 330.072L159.041 332.986L161.955 331.946L160.915 329.031L159.878 326.125L158.837 323.211L157.797 320.296L156.756 317.381L153.841 318.422Z" fill="#AA9115"/>
<path d="M148.849 313.641L149.886 316.547L150.926 319.462L153.841 318.422L152.801 315.507L151.763 312.601L150.723 309.686L149.682 306.772L146.768 307.812L147.808 310.727L148.849 313.641Z" fill="#AA9115"/>
<path d="M146.768 307.812L145.727 304.897L142.813 305.938L139.907 306.975L140.947 309.89L143.853 308.853L146.768 307.812Z" fill="#AA9115"/>
<path d="M140.947 309.89L138.033 310.93L139.073 313.845L141.988 312.805L140.947 309.89Z" fill="#AA9115"/>
<path d="M139.073 313.845L136.158 314.885L137.199 317.8L140.113 316.76L139.073 313.845Z" fill="#AA9115"/>
</mask>
<g mask="url(#mask1)">
<rect x="48" y="235" width="200" height="200" fill="#E4C3FF" fill-opacity="0.58"/>
</g>
<path d="M197.25 468.482L193.439 480.317L195.419 480.954L193.508 486.887L195.488 487.524L194.85 489.504L196.83 490.142L196.192 492.121L202.125 494.032L201.488 496.011L213.359 499.834L213.997 497.855L219.929 499.765L220.567 497.786L222.547 498.423L223.184 496.443L225.164 497.081L227.074 491.148L229.054 491.786L232.865 479.95L230.885 479.313L232.796 473.38L230.816 472.743L231.454 470.763L229.474 470.126L230.112 468.146L224.179 466.236L224.814 464.262L212.943 460.439L212.307 462.413L206.375 460.502L205.737 462.482L203.757 461.844L203.12 463.824L201.14 463.186L199.23 469.119L197.25 468.482Z" fill="#F4E44D"/>
<path d="M223.473 461.645L225.452 462.282L224.815 464.262L222.835 463.625L223.473 461.645Z" fill="#BC9E20"/>
<path d="M221.493 461.007L223.472 461.645L222.835 463.625L220.855 462.987L221.493 461.007Z" fill="#BC9E20"/>
<path d="M219.513 460.37L221.493 461.007L220.855 462.987L218.876 462.35L219.513 460.37Z" fill="#BC9E20"/>
<path d="M217.539 459.734L219.519 460.372L218.882 462.352L216.902 461.714L217.539 459.734Z" fill="#BC9E20"/>
<path d="M215.56 459.097L217.54 459.734L216.902 461.714L214.922 461.077L215.56 459.097Z" fill="#BC9E20"/>
<path d="M213.58 458.459L215.56 459.097L214.923 461.077L212.943 460.439L213.58 458.459Z" fill="#BC9E20"/>
<path d="M229.691 489.806L231.671 490.444L231.033 492.423L229.054 491.786L229.691 489.806Z" fill="#BC9E20"/>
<path d="M230.329 487.826L232.309 488.464L231.671 490.444L229.691 489.806L230.329 487.826Z" fill="#BC9E20"/>
<path d="M230.964 485.853L232.944 486.49L232.306 488.47L230.327 487.833L230.964 485.853Z" fill="#BC9E20"/>
<path d="M231.602 483.873L233.582 484.511L232.944 486.49L230.964 485.853L231.602 483.873Z" fill="#BC9E20"/>
<path d="M232.239 481.894L234.219 482.531L233.581 484.511L231.602 483.873L232.239 481.894Z" fill="#BC9E20"/>
<path d="M232.877 479.914L234.856 480.552L234.219 482.531L232.239 481.894L232.877 479.914Z" fill="#BC9E20"/>
<path d="M226.794 464.899L228.774 465.537L228.136 467.517L226.157 466.879L226.794 464.899Z" fill="#BC9E20"/>
<path d="M228.767 465.535L230.747 466.173L230.11 468.152L228.13 467.515L228.767 465.535Z" fill="#BC9E20"/>
<path d="M230.112 468.146L232.091 468.784L231.454 470.763L229.474 470.126L230.112 468.146Z" fill="#BC9E20"/>
<path d="M231.454 470.763L233.434 471.401L232.796 473.38L230.816 472.743L231.454 470.763Z" fill="#BC9E20"/>
<path d="M232.796 473.38L234.776 474.018L234.138 475.997L232.159 475.36L232.796 473.38Z" fill="#BC9E20"/>
<path d="M232.159 475.36L234.138 475.997L233.501 477.977L231.521 477.34L232.159 475.36Z" fill="#BC9E20"/>
<path d="M231.521 477.34L233.5 477.977L232.863 479.957L230.883 479.319L231.521 477.34Z" fill="#BC9E20"/>
<path d="M224.814 464.262L226.794 464.9L226.156 466.879L224.177 466.242L224.814 464.262Z" fill="#BC9E20"/>
<path d="M213.58 458.459L215.56 459.097L214.923 461.077L212.943 460.439L213.58 458.459Z" fill="#BC9E20"/>
<path d="M215.56 459.097L217.54 459.734L216.902 461.714L214.922 461.077L215.56 459.097Z" fill="#BC9E20"/>
<path d="M217.539 459.734L219.519 460.372L218.882 462.352L216.902 461.714L217.539 459.734Z" fill="#BC9E20"/>
<path d="M219.513 460.37L221.493 461.007L220.855 462.987L218.876 462.35L219.513 460.37Z" fill="#BC9E20"/>
<path d="M221.493 461.007L223.472 461.645L222.835 463.625L220.855 462.987L221.493 461.007Z" fill="#BC9E20"/>
<path d="M223.473 461.645L225.452 462.282L224.815 464.262L222.835 463.625L223.473 461.645Z" fill="#BC9E20"/>
<path d="M192.097 477.7L194.077 478.337L193.439 480.317L191.46 479.679L192.097 477.7Z" fill="#BC9E20"/>
<path d="M192.734 475.72L194.714 476.358L194.076 478.337L192.097 477.7L192.734 475.72Z" fill="#BC9E20"/>
<path d="M193.37 473.747L195.35 474.384L194.712 476.364L192.733 475.726L193.37 473.747Z" fill="#BC9E20"/>
<path d="M194.007 471.767L195.987 472.404L195.349 474.384L193.37 473.747L194.007 471.767Z" fill="#BC9E20"/>
<path d="M194.645 469.787L196.625 470.425L195.987 472.404L194.007 471.767L194.645 469.787Z" fill="#BC9E20"/>
<path d="M195.283 467.808L197.262 468.445L196.625 470.425L194.645 469.787L195.283 467.808Z" fill="#BC9E20"/>
<path d="M208.984 459.164L210.963 459.802L210.326 461.781L208.346 461.144L208.984 459.164Z" fill="#BC9E20"/>
<path d="M207.01 458.529L208.99 459.166L208.352 461.146L206.373 460.508L207.01 458.529Z" fill="#BC9E20"/>
<path d="M204.395 459.865L206.375 460.502L205.737 462.482L203.757 461.844L204.395 459.865Z" fill="#BC9E20"/>
<path d="M201.778 461.207L203.757 461.844L203.12 463.824L201.14 463.186L201.778 461.207Z" fill="#BC9E20"/>
<path d="M199.161 462.549L201.141 463.186L200.503 465.166L198.524 464.529L199.161 462.549Z" fill="#BC9E20"/>
<path d="M198.523 464.529L200.503 465.166L199.865 467.146L197.886 466.508L198.523 464.529Z" fill="#BC9E20"/>
<path d="M197.886 466.508L199.865 467.146L199.228 469.125L197.248 468.488L197.886 466.508Z" fill="#BC9E20"/>
<path d="M210.963 459.802L212.943 460.439L212.305 462.419L210.326 461.781L210.963 459.802Z" fill="#BC9E20"/>
<path d="M201.488 496.011L203.467 496.649L202.83 498.628L200.85 497.991L201.488 496.011Z" fill="#BC9E20"/>
<path d="M203.467 496.649L205.447 497.286L204.809 499.266L202.83 498.628L203.467 496.649Z" fill="#BC9E20"/>
<path d="M205.447 497.286L207.427 497.924L206.789 499.903L204.81 499.266L205.447 497.286Z" fill="#BC9E20"/>
<path d="M207.42 497.922L209.4 498.559L208.762 500.539L206.783 499.901L207.42 497.922Z" fill="#BC9E20"/>
<path d="M209.4 498.559L211.379 499.197L210.742 501.177L208.762 500.539L209.4 498.559Z" fill="#BC9E20"/>
<path d="M211.38 499.197L213.359 499.834L212.722 501.814L210.742 501.176L211.38 499.197Z" fill="#BC9E20"/>
<path d="M195.271 467.844L197.25 468.482L196.613 470.461L194.633 469.824L195.271 467.844Z" fill="#BC9E20"/>
<path d="M194.633 469.824L196.613 470.461L195.975 472.441L193.996 471.803L194.633 469.824Z" fill="#BC9E20"/>
<path d="M193.995 471.803L195.975 472.441L195.338 474.42L193.358 473.783L193.995 471.803Z" fill="#BC9E20"/>
<path d="M193.358 473.783L195.338 474.42L194.7 476.4L192.721 475.763L193.358 473.783Z" fill="#BC9E20"/>
<path d="M192.721 475.763L194.7 476.4L194.063 478.38L192.083 477.742L192.721 475.763Z" fill="#BC9E20"/>
<path d="M192.085 477.736L194.065 478.374L193.427 480.353L191.448 479.716L192.085 477.736Z" fill="#BC9E20"/>
<path d="M198.166 492.757L200.146 493.394L199.508 495.374L197.528 494.736L198.166 492.757Z" fill="#BC9E20"/>
<path d="M196.192 492.121L198.172 492.759L197.534 494.738L195.555 494.101L196.192 492.121Z" fill="#BC9E20"/>
<path d="M194.85 489.504L196.83 490.142L196.193 492.121L194.213 491.484L194.85 489.504Z" fill="#BC9E20"/>
<path d="M193.508 486.887L195.488 487.525L194.85 489.504L192.871 488.867L193.508 486.887Z" fill="#BC9E20"/>
<path d="M192.164 484.276L194.144 484.913L193.506 486.893L191.526 486.256L192.164 484.276Z" fill="#BC9E20"/>
<path d="M192.802 482.296L194.781 482.934L194.144 484.913L192.164 484.276L192.802 482.296Z" fill="#BC9E20"/>
<path d="M193.439 480.317L195.418 480.954L194.781 482.934L192.801 482.296L193.439 480.317Z" fill="#BC9E20"/>
<path d="M200.145 493.394L202.125 494.032L201.488 496.011L199.508 495.374L200.145 493.394Z" fill="#BC9E20"/>
<path d="M211.38 499.197L213.359 499.834L212.722 501.814L210.742 501.176L211.38 499.197Z" fill="#BC9E20"/>
<path d="M209.4 498.559L211.379 499.197L210.742 501.177L208.762 500.539L209.4 498.559Z" fill="#BC9E20"/>
<path d="M207.42 497.922L209.4 498.559L208.762 500.539L206.783 499.901L207.42 497.922Z" fill="#BC9E20"/>
<path d="M205.447 497.286L207.427 497.924L206.789 499.903L204.81 499.266L205.447 497.286Z" fill="#BC9E20"/>
<path d="M203.467 496.649L205.447 497.286L204.809 499.266L202.83 498.628L203.467 496.649Z" fill="#BC9E20"/>
<path d="M201.488 496.011L203.467 496.649L202.83 498.628L200.85 497.991L201.488 496.011Z" fill="#BC9E20"/>
<path d="M232.865 479.951L234.845 480.588L234.207 482.568L232.228 481.93L232.865 479.951Z" fill="#BC9E20"/>
<path d="M232.227 481.93L234.207 482.568L233.57 484.547L231.59 483.91L232.227 481.93Z" fill="#BC9E20"/>
<path d="M231.59 483.91L233.57 484.547L232.932 486.527L230.953 485.889L231.59 483.91Z" fill="#BC9E20"/>
<path d="M230.953 485.889L232.932 486.527L232.295 488.506L230.315 487.869L230.953 485.889Z" fill="#BC9E20"/>
<path d="M230.315 487.869L232.295 488.506L231.657 490.486L229.678 489.849L230.315 487.869Z" fill="#BC9E20"/>
<path d="M229.68 489.843L231.659 490.48L231.022 492.46L229.042 491.822L229.68 489.843Z" fill="#BC9E20"/>
<path d="M215.976 498.492L217.956 499.13L217.319 501.109L215.339 500.472L215.976 498.492Z" fill="#BC9E20"/>
<path d="M217.95 499.128L219.93 499.765L219.292 501.745L217.313 501.107L217.95 499.128Z" fill="#BC9E20"/>
<path d="M220.567 497.786L222.547 498.423L221.909 500.403L219.93 499.765L220.567 497.786Z" fill="#BC9E20"/>
<path d="M223.184 496.444L225.164 497.081L224.526 499.061L222.546 498.423L223.184 496.444Z" fill="#BC9E20"/>
<path d="M225.799 495.108L227.779 495.745L227.141 497.725L225.162 497.087L225.799 495.108Z" fill="#BC9E20"/>
<path d="M226.437 493.128L228.417 493.765L227.779 495.745L225.799 495.108L226.437 493.128Z" fill="#BC9E20"/>
<path d="M227.074 491.148L229.054 491.786L228.416 493.765L226.437 493.128L227.074 491.148Z" fill="#BC9E20"/>
<path d="M213.997 497.855L215.977 498.492L215.339 500.472L213.359 499.834L213.997 497.855Z" fill="#BC9E20"/>
<path d="M202.551 472.374L201.914 474.353L203.894 474.991L202.619 478.95L206.578 480.225L207.853 476.266L205.873 475.628L206.511 473.649L202.551 472.374L205.099 464.461L209.059 465.736L208.421 467.716L210.401 468.353L209.763 470.333L211.743 470.971L211.105 472.95L219.012 475.496L219.649 473.517L221.629 474.154L222.266 472.175L224.246 472.812L224.883 470.832L228.843 472.107L226.295 480.02L228.274 480.657L225.089 490.549L223.109 489.912L222.472 491.891L220.492 491.254L219.855 493.233L200.071 486.862L200.708 484.883L198.728 484.245L199.366 482.266L197.386 481.628L200.572 471.736L202.551 472.374ZM211.168 479.519L209.189 478.881L208.551 480.861L210.531 481.498L211.168 479.519ZM220.423 484.684L221.698 480.724L223.678 481.362L224.315 479.382L220.356 478.107L219.718 480.087L217.739 479.449L216.464 483.409L220.423 484.684ZM202.682 485.518L216.533 489.979L217.808 486.02L215.828 485.382L215.191 487.362L211.231 486.087L211.869 484.107L209.889 483.47L209.252 485.449L205.293 484.174L205.93 482.195L203.951 481.557L202.676 485.516L202.682 485.518Z" fill="#F4E44D"/>
<path d="M219.719 480.087L221.698 480.724L221.061 482.704L219.081 482.066L219.719 480.087Z" fill="#F4E88C"/>
<path d="M200.639 478.313L202.619 478.95L201.981 480.93L200.002 480.292L200.639 478.313Z" fill="#F4E88C"/>
<path d="M198.66 477.675L200.639 478.312L200.002 480.292L198.022 479.655L198.66 477.675Z" fill="#F4E88C"/>
<path d="M222.397 485.319L224.376 485.957L223.739 487.936L221.759 487.299L222.397 485.319Z" fill="#F4E88C"/>
<path d="M220.423 484.684L222.403 485.321L221.765 487.301L219.786 486.663L220.423 484.684Z" fill="#F4E88C"/>
<path d="M205.867 475.626L207.847 476.264L207.209 478.243L205.23 477.606L205.867 475.626Z" fill="#F4E88C"/>
<path d="M220.486 491.252L222.466 491.889L221.828 493.869L219.849 493.232L220.486 491.252Z" fill="#AA9115"/>
<path d="M205.299 484.176L207.279 484.814L209.258 485.451L209.896 483.472L211.875 484.109L211.238 486.089L213.211 486.724L215.191 487.362L215.828 485.382L217.808 486.02L217.171 487.999L216.533 489.979L214.554 489.341L212.574 488.704L210.6 488.068L208.621 487.431L206.641 486.793L204.662 486.156L202.682 485.518L203.319 483.539L203.957 481.559L205.937 482.197L205.299 484.176Z" fill="#AA9115"/>
<path d="M216.464 483.409L217.102 481.429L217.739 479.449L219.719 480.087L219.081 482.066L221.061 482.704L220.423 484.684L218.444 484.046L216.464 483.409Z" fill="#AA9115"/>
<path d="M209.189 478.881L211.169 479.519L210.531 481.498L208.552 480.861L209.189 478.881Z" fill="#AA9115"/>
<path d="M222.336 478.745L224.315 479.382L223.678 481.362L221.698 480.724L219.719 480.087L220.356 478.107L222.336 478.745Z" fill="#AA9115"/>
<path d="M206.505 473.647L205.867 475.626L205.23 477.606L207.209 478.244L206.572 480.223L204.592 479.586L202.619 478.95L203.256 476.971L203.894 474.991L201.914 474.353L202.552 472.374L204.531 473.011L206.505 473.647Z" fill="#AA9115"/>
<path d="M204.024 488.135L206.004 488.773L207.983 489.41L209.963 490.048L211.937 490.683L213.916 491.321L215.896 491.958L217.875 492.596L219.855 493.233L219.217 495.213L217.238 494.576L215.258 493.938L213.279 493.301L211.299 492.663L209.326 492.028L207.346 491.39L205.366 490.753L203.387 490.115L201.407 489.478L199.434 488.842L200.071 486.862L202.045 487.498L204.024 488.135Z" fill="#AA9115"/>
<path d="M223.103 489.91L225.083 490.547L224.446 492.527L222.466 491.889L223.103 489.91Z" fill="#AA9115"/>
<path d="M226.356 486.594L226.993 484.614L227.631 482.635L228.268 480.655L230.248 481.293L229.611 483.272L228.973 485.252L228.336 487.232L227.7 489.205L227.063 491.185L225.083 490.547L225.72 488.568L226.356 486.594Z" fill="#AA9115"/>
<path d="M226.926 478.038L227.562 476.065L228.199 474.085L228.837 472.105L230.816 472.743L230.179 474.723L229.541 476.702L228.906 478.676L228.268 480.655L226.289 480.018L226.926 478.038Z" fill="#AA9115"/>
<path d="M224.883 470.832L225.521 468.853L227.501 469.49L229.474 470.126L228.837 472.105L226.863 471.47L224.883 470.832Z" fill="#AA9115"/>
<path d="M222.904 470.195L224.884 470.832L224.246 472.812L222.267 472.175L222.904 470.195Z" fill="#AA9115"/>
<path d="M220.287 471.537L222.267 472.174L221.629 474.154L219.649 473.517L220.287 471.537Z" fill="#AA9115"/>
<path d="M217.034 474.853L215.061 474.217L213.081 473.58L211.102 472.942L211.737 470.969L213.717 471.606L215.696 472.244L217.67 472.879L219.649 473.517L219.014 475.49L217.034 474.853Z" fill="#AA9115"/>
<path d="M198.729 484.245L200.708 484.883L200.071 486.862L198.091 486.225L198.729 484.245Z" fill="#AA9115"/>
<path d="M197.387 481.628L199.366 482.266L198.729 484.245L196.749 483.608L197.387 481.628Z" fill="#AA9115"/>
<path d="M200.572 471.736L199.935 473.716L199.297 475.695L198.66 477.675L198.024 479.649L197.387 481.628L195.407 480.991L196.045 479.011L196.68 477.038L197.318 475.058L197.955 473.078L198.593 471.099L200.572 471.736Z" fill="#AA9115"/>
<path d="M203.825 468.421L203.189 470.394L202.552 472.374L200.572 471.736L201.209 469.757L201.845 467.783L202.483 465.804L203.12 463.824L205.1 464.461L204.462 466.441L203.825 468.421Z" fill="#AA9115"/>
<path d="M205.1 464.461L205.737 462.482L207.717 463.119L209.69 463.755L209.053 465.734L207.079 465.099L205.1 464.461Z" fill="#AA9115"/>
<path d="M209.053 465.734L211.033 466.372L210.395 468.352L208.416 467.714L209.053 465.734Z" fill="#AA9115"/>
<path d="M210.395 468.351L212.375 468.989L211.737 470.969L209.757 470.331L210.395 468.351Z" fill="#AA9115"/>
<mask id="mask2" mask-type="alpha" maskUnits="userSpaceOnUse" x="191" y="458" width="44" height="44">
<path d="M197.25 468.482L193.439 480.317L195.419 480.954L193.508 486.887L195.488 487.524L194.85 489.504L196.83 490.142L196.192 492.121L202.125 494.032L201.488 496.011L213.359 499.834L213.997 497.855L219.929 499.765L220.567 497.786L222.547 498.423L223.184 496.443L225.164 497.081L227.074 491.148L229.054 491.786L232.865 479.95L230.885 479.313L232.796 473.38L230.816 472.743L231.454 470.763L229.474 470.126L230.112 468.146L224.179 466.236L224.814 464.262L212.943 460.439L212.307 462.413L206.375 460.502L205.737 462.482L203.757 461.844L203.12 463.824L201.14 463.186L199.23 469.119L197.25 468.482Z" fill="#F4E44D"/>
<path d="M223.473 461.645L225.452 462.282L224.815 464.262L222.835 463.625L223.473 461.645Z" fill="#BC9E20"/>
<path d="M221.493 461.007L223.472 461.645L222.835 463.625L220.855 462.987L221.493 461.007Z" fill="#BC9E20"/>
<path d="M219.513 460.37L221.493 461.007L220.855 462.987L218.876 462.35L219.513 460.37Z" fill="#BC9E20"/>
<path d="M217.539 459.734L219.519 460.372L218.882 462.352L216.902 461.714L217.539 459.734Z" fill="#BC9E20"/>
<path d="M215.56 459.097L217.54 459.734L216.902 461.714L214.922 461.077L215.56 459.097Z" fill="#BC9E20"/>
<path d="M213.58 458.459L215.56 459.097L214.923 461.077L212.943 460.439L213.58 458.459Z" fill="#BC9E20"/>
<path d="M229.691 489.806L231.671 490.444L231.033 492.423L229.054 491.786L229.691 489.806Z" fill="#BC9E20"/>
<path d="M230.329 487.826L232.309 488.464L231.671 490.444L229.691 489.806L230.329 487.826Z" fill="#BC9E20"/>
<path d="M230.964 485.853L232.944 486.49L232.306 488.47L230.327 487.833L230.964 485.853Z" fill="#BC9E20"/>
<path d="M231.602 483.873L233.582 484.511L232.944 486.49L230.964 485.853L231.602 483.873Z" fill="#BC9E20"/>
<path d="M232.239 481.894L234.219 482.531L233.581 484.511L231.602 483.873L232.239 481.894Z" fill="#BC9E20"/>
<path d="M232.877 479.914L234.856 480.552L234.219 482.531L232.239 481.894L232.877 479.914Z" fill="#BC9E20"/>
<path d="M226.794 464.899L228.774 465.537L228.136 467.517L226.157 466.879L226.794 464.899Z" fill="#BC9E20"/>
<path d="M228.767 465.535L230.747 466.173L230.11 468.152L228.13 467.515L228.767 465.535Z" fill="#BC9E20"/>
<path d="M230.112 468.146L232.091 468.784L231.454 470.763L229.474 470.126L230.112 468.146Z" fill="#BC9E20"/>
<path d="M231.454 470.763L233.434 471.401L232.796 473.38L230.816 472.743L231.454 470.763Z" fill="#BC9E20"/>
<path d="M232.796 473.38L234.776 474.018L234.138 475.997L232.159 475.36L232.796 473.38Z" fill="#BC9E20"/>
<path d="M232.159 475.36L234.138 475.997L233.501 477.977L231.521 477.34L232.159 475.36Z" fill="#BC9E20"/>
<path d="M231.521 477.34L233.5 477.977L232.863 479.957L230.883 479.319L231.521 477.34Z" fill="#BC9E20"/>
<path d="M224.814 464.262L226.794 464.9L226.156 466.879L224.177 466.242L224.814 464.262Z" fill="#BC9E20"/>
<path d="M213.58 458.459L215.56 459.097L214.923 461.077L212.943 460.439L213.58 458.459Z" fill="#BC9E20"/>
<path d="M215.56 459.097L217.54 459.734L216.902 461.714L214.922 461.077L215.56 459.097Z" fill="#BC9E20"/>
<path d="M217.539 459.734L219.519 460.372L218.882 462.352L216.902 461.714L217.539 459.734Z" fill="#BC9E20"/>
<path d="M219.513 460.37L221.493 461.007L220.855 462.987L218.876 462.35L219.513 460.37Z" fill="#BC9E20"/>
<path d="M221.493 461.007L223.472 461.645L222.835 463.625L220.855 462.987L221.493 461.007Z" fill="#BC9E20"/>
<path d="M223.473 461.645L225.452 462.282L224.815 464.262L222.835 463.625L223.473 461.645Z" fill="#BC9E20"/>
<path d="M192.097 477.7L194.077 478.337L193.439 480.317L191.46 479.679L192.097 477.7Z" fill="#BC9E20"/>
<path d="M192.734 475.72L194.714 476.358L194.076 478.337L192.097 477.7L192.734 475.72Z" fill="#BC9E20"/>
<path d="M193.37 473.747L195.35 474.384L194.712 476.364L192.733 475.726L193.37 473.747Z" fill="#BC9E20"/>
<path d="M194.007 471.767L195.987 472.404L195.349 474.384L193.37 473.747L194.007 471.767Z" fill="#BC9E20"/>
<path d="M194.645 469.787L196.625 470.425L195.987 472.404L194.007 471.767L194.645 469.787Z" fill="#BC9E20"/>
<path d="M195.283 467.808L197.262 468.445L196.625 470.425L194.645 469.787L195.283 467.808Z" fill="#BC9E20"/>
<path d="M208.984 459.164L210.963 459.802L210.326 461.781L208.346 461.144L208.984 459.164Z" fill="#BC9E20"/>
<path d="M207.01 458.529L208.99 459.166L208.352 461.146L206.373 460.508L207.01 458.529Z" fill="#BC9E20"/>
<path d="M204.395 459.865L206.375 460.502L205.737 462.482L203.757 461.844L204.395 459.865Z" fill="#BC9E20"/>
<path d="M201.778 461.207L203.757 461.844L203.12 463.824L201.14 463.186L201.778 461.207Z" fill="#BC9E20"/>
<path d="M199.161 462.549L201.141 463.186L200.503 465.166L198.524 464.529L199.161 462.549Z" fill="#BC9E20"/>
<path d="M198.523 464.529L200.503 465.166L199.865 467.146L197.886 466.508L198.523 464.529Z" fill="#BC9E20"/>
<path d="M197.886 466.508L199.865 467.146L199.228 469.125L197.248 468.488L197.886 466.508Z" fill="#BC9E20"/>
<path d="M210.963 459.802L212.943 460.439L212.305 462.419L210.326 461.781L210.963 459.802Z" fill="#BC9E20"/>
<path d="M201.488 496.011L203.467 496.649L202.83 498.628L200.85 497.991L201.488 496.011Z" fill="#BC9E20"/>
<path d="M203.467 496.649L205.447 497.286L204.809 499.266L202.83 498.628L203.467 496.649Z" fill="#BC9E20"/>
<path d="M205.447 497.286L207.427 497.924L206.789 499.903L204.81 499.266L205.447 497.286Z" fill="#BC9E20"/>
<path d="M207.42 497.922L209.4 498.559L208.762 500.539L206.783 499.901L207.42 497.922Z" fill="#BC9E20"/>
<path d="M209.4 498.559L211.379 499.197L210.742 501.177L208.762 500.539L209.4 498.559Z" fill="#BC9E20"/>
<path d="M211.38 499.197L213.359 499.834L212.722 501.814L210.742 501.176L211.38 499.197Z" fill="#BC9E20"/>
<path d="M195.271 467.844L197.25 468.482L196.613 470.461L194.633 469.824L195.271 467.844Z" fill="#BC9E20"/>
<path d="M194.633 469.824L196.613 470.461L195.975 472.441L193.996 471.803L194.633 469.824Z" fill="#BC9E20"/>
<path d="M193.995 471.803L195.975 472.441L195.338 474.42L193.358 473.783L193.995 471.803Z" fill="#BC9E20"/>
<path d="M193.358 473.783L195.338 474.42L194.7 476.4L192.721 475.763L193.358 473.783Z" fill="#BC9E20"/>
<path d="M192.721 475.763L194.7 476.4L194.063 478.38L192.083 477.742L192.721 475.763Z" fill="#BC9E20"/>
<path d="M192.085 477.736L194.065 478.374L193.427 480.353L191.448 479.716L192.085 477.736Z" fill="#BC9E20"/>
<path d="M198.166 492.757L200.146 493.394L199.508 495.374L197.528 494.736L198.166 492.757Z" fill="#BC9E20"/>
<path d="M196.192 492.121L198.172 492.759L197.534 494.738L195.555 494.101L196.192 492.121Z" fill="#BC9E20"/>
<path d="M194.85 489.504L196.83 490.142L196.193 492.121L194.213 491.484L194.85 489.504Z" fill="#BC9E20"/>
<path d="M193.508 486.887L195.488 487.525L194.85 489.504L192.871 488.867L193.508 486.887Z" fill="#BC9E20"/>
<path d="M192.164 484.276L194.144 484.913L193.506 486.893L191.526 486.256L192.164 484.276Z" fill="#BC9E20"/>
<path d="M192.802 482.296L194.781 482.934L194.144 484.913L192.164 484.276L192.802 482.296Z" fill="#BC9E20"/>
<path d="M193.439 480.317L195.418 480.954L194.781 482.934L192.801 482.296L193.439 480.317Z" fill="#BC9E20"/>
<path d="M200.145 493.394L202.125 494.032L201.488 496.011L199.508 495.374L200.145 493.394Z" fill="#BC9E20"/>
<path d="M211.38 499.197L213.359 499.834L212.722 501.814L210.742 501.176L211.38 499.197Z" fill="#BC9E20"/>
<path d="M209.4 498.559L211.379 499.197L210.742 501.177L208.762 500.539L209.4 498.559Z" fill="#BC9E20"/>
<path d="M207.42 497.922L209.4 498.559L208.762 500.539L206.783 499.901L207.42 497.922Z" fill="#BC9E20"/>
<path d="M205.447 497.286L207.427 497.924L206.789 499.903L204.81 499.266L205.447 497.286Z" fill="#BC9E20"/>
<path d="M203.467 496.649L205.447 497.286L204.809 499.266L202.83 498.628L203.467 496.649Z" fill="#BC9E20"/>
<path d="M201.488 496.011L203.467 496.649L202.83 498.628L200.85 497.991L201.488 496.011Z" fill="#BC9E20"/>
<path d="M232.865 479.951L234.845 480.588L234.207 482.568L232.228 481.93L232.865 479.951Z" fill="#BC9E20"/>
<path d="M232.227 481.93L234.207 482.568L233.57 484.547L231.59 483.91L232.227 481.93Z" fill="#BC9E20"/>
<path d="M231.59 483.91L233.57 484.547L232.932 486.527L230.953 485.889L231.59 483.91Z" fill="#BC9E20"/>
<path d="M230.953 485.889L232.932 486.527L232.295 488.506L230.315 487.869L230.953 485.889Z" fill="#BC9E20"/>
<path d="M230.315 487.869L232.295 488.506L231.657 490.486L229.678 489.849L230.315 487.869Z" fill="#BC9E20"/>
<path d="M229.68 489.843L231.659 490.48L231.022 492.46L229.042 491.822L229.68 489.843Z" fill="#BC9E20"/>
<path d="M215.976 498.492L217.956 499.13L217.319 501.109L215.339 500.472L215.976 498.492Z" fill="#BC9E20"/>
<path d="M217.95 499.128L219.93 499.765L219.292 501.745L217.313 501.107L217.95 499.128Z" fill="#BC9E20"/>
<path d="M220.567 497.786L222.547 498.423L221.909 500.403L219.93 499.765L220.567 497.786Z" fill="#BC9E20"/>
<path d="M223.184 496.444L225.164 497.081L224.526 499.061L222.546 498.423L223.184 496.444Z" fill="#BC9E20"/>
<path d="M225.799 495.108L227.779 495.745L227.141 497.725L225.162 497.087L225.799 495.108Z" fill="#BC9E20"/>
<path d="M226.437 493.128L228.417 493.765L227.779 495.745L225.799 495.108L226.437 493.128Z" fill="#BC9E20"/>
<path d="M227.074 491.148L229.054 491.786L228.416 493.765L226.437 493.128L227.074 491.148Z" fill="#BC9E20"/>
<path d="M213.997 497.855L215.977 498.492L215.339 500.472L213.359 499.834L213.997 497.855Z" fill="#BC9E20"/>
<path d="M202.551 472.374L201.914 474.353L203.894 474.991L202.619 478.95L206.578 480.225L207.853 476.266L205.873 475.628L206.511 473.649L202.551 472.374L205.099 464.461L209.059 465.736L208.421 467.716L210.401 468.353L209.763 470.333L211.743 470.971L211.105 472.95L219.012 475.496L219.649 473.517L221.629 474.154L222.266 472.175L224.246 472.812L224.883 470.832L228.843 472.107L226.295 480.02L228.274 480.657L225.089 490.549L223.109 489.912L222.472 491.891L220.492 491.254L219.855 493.233L200.071 486.862L200.708 484.883L198.728 484.245L199.366 482.266L197.386 481.628L200.572 471.736L202.551 472.374ZM211.168 479.519L209.189 478.881L208.551 480.861L210.531 481.498L211.168 479.519ZM220.423 484.684L221.698 480.724L223.678 481.362L224.315 479.382L220.356 478.107L219.718 480.087L217.739 479.449L216.464 483.409L220.423 484.684ZM202.682 485.518L216.533 489.979L217.808 486.02L215.828 485.382L215.191 487.362L211.231 486.087L211.869 484.107L209.889 483.47L209.252 485.449L205.293 484.174L205.93 482.195L203.951 481.557L202.676 485.516L202.682 485.518Z" fill="#F4E44D"/>
<path d="M219.719 480.087L221.698 480.724L221.061 482.704L219.081 482.066L219.719 480.087Z" fill="#F4E88C"/>
<path d="M200.639 478.313L202.619 478.95L201.981 480.93L200.002 480.292L200.639 478.313Z" fill="#F4E88C"/>
<path d="M198.66 477.675L200.639 478.312L200.002 480.292L198.022 479.655L198.66 477.675Z" fill="#F4E88C"/>
<path d="M222.397 485.319L224.376 485.957L223.739 487.936L221.759 487.299L222.397 485.319Z" fill="#F4E88C"/>
<path d="M220.423 484.684L222.403 485.321L221.765 487.301L219.786 486.663L220.423 484.684Z" fill="#F4E88C"/>
<path d="M205.867 475.626L207.847 476.264L207.209 478.243L205.23 477.606L205.867 475.626Z" fill="#F4E88C"/>
<path d="M220.486 491.252L222.466 491.889L221.828 493.869L219.849 493.232L220.486 491.252Z" fill="#AA9115"/>
<path d="M205.299 484.176L207.279 484.814L209.258 485.451L209.896 483.472L211.875 484.109L211.238 486.089L213.211 486.724L215.191 487.362L215.828 485.382L217.808 486.02L217.171 487.999L216.533 489.979L214.554 489.341L212.574 488.704L210.6 488.068L208.621 487.431L206.641 486.793L204.662 486.156L202.682 485.518L203.319 483.539L203.957 481.559L205.937 482.197L205.299 484.176Z" fill="#AA9115"/>
<path d="M216.464 483.409L217.102 481.429L217.739 479.449L219.719 480.087L219.081 482.066L221.061 482.704L220.423 484.684L218.444 484.046L216.464 483.409Z" fill="#AA9115"/>
<path d="M209.189 478.881L211.169 479.519L210.531 481.498L208.552 480.861L209.189 478.881Z" fill="#AA9115"/>
<path d="M222.336 478.745L224.315 479.382L223.678 481.362L221.698 480.724L219.719 480.087L220.356 478.107L222.336 478.745Z" fill="#AA9115"/>
<path d="M206.505 473.647L205.867 475.626L205.23 477.606L207.209 478.244L206.572 480.223L204.592 479.586L202.619 478.95L203.256 476.971L203.894 474.991L201.914 474.353L202.552 472.374L204.531 473.011L206.505 473.647Z" fill="#AA9115"/>
<path d="M204.024 488.135L206.004 488.773L207.983 489.41L209.963 490.048L211.937 490.683L213.916 491.321L215.896 491.958L217.875 492.596L219.855 493.233L219.217 495.213L217.238 494.576L215.258 493.938L213.279 493.301L211.299 492.663L209.326 492.028L207.346 491.39L205.366 490.753L203.387 490.115L201.407 489.478L199.434 488.842L200.071 486.862L202.045 487.498L204.024 488.135Z" fill="#AA9115"/>
<path d="M223.103 489.91L225.083 490.547L224.446 492.527L222.466 491.889L223.103 489.91Z" fill="#AA9115"/>
<path d="M226.356 486.594L226.993 484.614L227.631 482.635L228.268 480.655L230.248 481.293L229.611 483.272L228.973 485.252L228.336 487.232L227.7 489.205L227.063 491.185L225.083 490.547L225.72 488.568L226.356 486.594Z" fill="#AA9115"/>
<path d="M226.926 478.038L227.562 476.065L228.199 474.085L228.837 472.105L230.816 472.743L230.179 474.723L229.541 476.702L228.906 478.676L228.268 480.655L226.289 480.018L226.926 478.038Z" fill="#AA9115"/>
<path d="M224.883 470.832L225.521 468.853L227.501 469.49L229.474 470.126L228.837 472.105L226.863 471.47L224.883 470.832Z" fill="#AA9115"/>
<path d="M222.904 470.195L224.884 470.832L224.246 472.812L222.267 472.175L222.904 470.195Z" fill="#AA9115"/>
<path d="M220.287 471.537L222.267 472.174L221.629 474.154L219.649 473.517L220.287 471.537Z" fill="#AA9115"/>
<path d="M217.034 474.853L215.061 474.217L213.081 473.58L211.102 472.942L211.737 470.969L213.717 471.606L215.696 472.244L217.67 472.879L219.649 473.517L219.014 475.49L217.034 474.853Z" fill="#AA9115"/>
<path d="M198.729 484.245L200.708 484.883L200.071 486.862L198.091 486.225L198.729 484.245Z" fill="#AA9115"/>
<path d="M197.387 481.628L199.366 482.266L198.729 484.245L196.749 483.608L197.387 481.628Z" fill="#AA9115"/>
<path d="M200.572 471.736L199.935 473.716L199.297 475.695L198.66 477.675L198.024 479.649L197.387 481.628L195.407 480.991L196.045 479.011L196.68 477.038L197.318 475.058L197.955 473.078L198.593 471.099L200.572 471.736Z" fill="#AA9115"/>
<path d="M203.825 468.421L203.189 470.394L202.552 472.374L200.572 471.736L201.209 469.757L201.845 467.783L202.483 465.804L203.12 463.824L205.1 464.461L204.462 466.441L203.825 468.421Z" fill="#AA9115"/>
<path d="M205.1 464.461L205.737 462.482L207.717 463.119L209.69 463.755L209.053 465.734L207.079 465.099L205.1 464.461Z" fill="#AA9115"/>
<path d="M209.053 465.734L211.033 466.372L210.395 468.352L208.416 467.714L209.053 465.734Z" fill="#AA9115"/>
<path d="M210.395 468.351L212.375 468.989L211.737 470.969L209.757 470.331L210.395 468.351Z" fill="#AA9115"/>
</mask>
<g mask="url(#mask2)">
<rect x="113" y="380" width="200" height="200" fill="#E4C3FF" fill-opacity="0.58"/>
</g>
<path d="M313.319 201.94H309.619V206.08H308.139V201.94H304.439V200.58H308.139V196.58H309.619V200.58H313.319V201.94ZM323.158 208H320.818V204.98H314.458V203.1L319.938 194.66H323.158V202.92H324.938V204.98H323.158V208ZM320.818 202.92V196.76L316.758 202.92H320.818ZM331.02 208.24C329.887 208.24 328.88 208.04 328 207.64C327.133 207.24 326.46 206.72 325.98 206.08L327.24 204.54C327.667 205.033 328.213 205.427 328.88 205.72C329.547 206.013 330.233 206.16 330.94 206.16C331.807 206.16 332.487 205.98 332.98 205.62C333.473 205.247 333.72 204.747 333.72 204.12C333.72 202.867 332.733 202.24 330.76 202.24C329.867 202.24 329.353 202.247 329.22 202.26V200.16C329.38 200.173 329.893 200.18 330.76 200.18C331.587 200.18 332.247 200.033 332.74 199.74C333.247 199.447 333.5 199.007 333.5 198.42C333.5 197.82 333.247 197.36 332.74 197.04C332.233 196.707 331.587 196.54 330.8 196.54C329.493 196.54 328.347 197.033 327.36 198.02L326.16 196.56C327.347 195.16 328.967 194.46 331.02 194.46C332.473 194.46 333.64 194.787 334.52 195.44C335.4 196.08 335.84 196.953 335.84 198.06C335.84 198.887 335.547 199.573 334.96 200.12C334.387 200.653 333.713 200.987 332.94 201.12C333.7 201.187 334.407 201.507 335.06 202.08C335.713 202.653 336.04 203.413 336.04 204.36C336.04 205.507 335.58 206.44 334.66 207.16C333.753 207.88 332.54 208.24 331.02 208.24ZM340.404 207.82C340.124 208.087 339.798 208.22 339.424 208.22C339.051 208.22 338.724 208.087 338.444 207.82C338.164 207.54 338.024 207.207 338.024 206.82C338.024 206.433 338.164 206.107 338.444 205.84C338.724 205.56 339.051 205.42 339.424 205.42C339.798 205.42 340.124 205.56 340.404 205.84C340.684 206.107 340.824 206.433 340.824 206.82C340.824 207.207 340.684 207.54 340.404 207.82ZM352.547 208H342.887V206.16C345.673 204.053 347.567 202.493 348.567 201.48C349.58 200.453 350.087 199.487 350.087 198.58C350.087 197.927 349.847 197.427 349.367 197.08C348.9 196.72 348.333 196.54 347.667 196.54C346.2 196.54 345 197.073 344.067 198.14L342.707 196.6C343.28 195.907 344 195.38 344.867 195.02C345.747 194.647 346.667 194.46 347.627 194.46C348.987 194.46 350.133 194.827 351.067 195.56C352 196.293 352.467 197.3 352.467 198.58C352.467 199.727 351.987 200.867 351.027 202C350.067 203.133 348.6 204.447 346.627 205.94H352.547V208ZM360.101 208.24C359.155 208.24 358.321 208.06 357.601 207.7C356.881 207.327 356.308 206.82 355.881 206.18C355.455 205.54 355.135 204.82 354.921 204.02C354.708 203.207 354.601 202.32 354.601 201.36C354.601 199.347 355.115 197.693 356.141 196.4C357.168 195.107 358.615 194.46 360.481 194.46C362.028 194.46 363.308 194.953 364.321 195.94L363.221 197.72C362.475 196.933 361.561 196.54 360.481 196.54C359.415 196.54 358.561 196.967 357.921 197.82C357.281 198.673 356.961 199.713 356.961 200.94C356.961 201.113 356.968 201.24 356.981 201.32C357.315 200.827 357.808 200.393 358.461 200.02C359.115 199.647 359.815 199.46 360.561 199.46C361.828 199.46 362.888 199.84 363.741 200.6C364.595 201.347 365.021 202.4 365.021 203.76C365.021 205.027 364.568 206.093 363.661 206.96C362.755 207.813 361.568 208.24 360.101 208.24ZM359.981 206.16C360.808 206.16 361.461 205.927 361.941 205.46C362.421 204.98 362.661 204.44 362.661 203.84C362.661 203.067 362.401 202.48 361.881 202.08C361.361 201.667 360.708 201.46 359.921 201.46C359.361 201.46 358.821 201.607 358.301 201.9C357.781 202.18 357.348 202.56 357.001 203.04C357.081 203.893 357.361 204.627 357.841 205.24C358.321 205.853 359.035 206.16 359.981 206.16ZM369.653 201.08C368.68 201.08 367.886 200.773 367.273 200.16C366.66 199.533 366.353 198.747 366.353 197.8C366.353 196.84 366.66 196.047 367.273 195.42C367.886 194.78 368.68 194.46 369.653 194.46C370.64 194.46 371.44 194.78 372.053 195.42C372.68 196.047 372.993 196.84 372.993 197.8C372.993 198.747 372.68 199.533 372.053 200.16C371.44 200.773 370.64 201.08 369.653 201.08ZM369.693 208H368.373L376.893 194.66H378.233L369.693 208ZM379.213 207.32C378.6 207.933 377.806 208.24 376.833 208.24C375.86 208.24 375.066 207.933 374.453 207.32C373.84 206.693 373.533 205.907 373.533 204.96C373.533 204 373.84 203.207 374.453 202.58C375.066 201.94 375.86 201.62 376.833 201.62C377.806 201.62 378.6 201.94 379.213 202.58C379.84 203.22 380.153 204.013 380.153 204.96C380.153 205.907 379.84 206.693 379.213 207.32ZM369.653 199.76C370.173 199.76 370.6 199.58 370.933 199.22C371.266 198.847 371.433 198.373 371.433 197.8C371.433 197.2 371.266 196.72 370.933 196.36C370.6 195.987 370.173 195.8 369.653 195.8C369.133 195.8 368.706 195.987 368.373 196.36C368.053 196.72 367.893 197.2 367.893 197.8C367.893 198.373 368.06 198.847 368.393 199.22C368.726 199.58 369.146 199.76 369.653 199.76ZM375.553 206.38C375.886 206.74 376.313 206.92 376.833 206.92C377.353 206.92 377.78 206.74 378.113 206.38C378.446 206.007 378.613 205.533 378.613 204.96C378.613 204.36 378.446 203.88 378.113 203.52C377.78 203.147 377.353 202.96 376.833 202.96C376.313 202.96 375.886 203.147 375.553 203.52C375.233 203.88 375.073 204.36 375.073 204.96C375.073 205.533 375.233 206.007 375.553 206.38Z" fill="#4ABD8C"/>
<path d="M275 207.373L281.833 200.683C282.333 200.193 283.168 200.356 283.449 200.997L283.898 202.026C284.18 202.67 285.02 202.83 285.519 202.335L291.8 196.104" stroke="#4ABD8C" stroke-width="1.5" stroke-linecap="round"/>
<path d="M287.751 196.377L291.747 195.58L292.204 199.629" stroke="#4ABD8C" stroke-width="1.5" stroke-linecap="round"/>
<defs>
<linearGradient id="paint0_linear" x1="-46" y1="332.821" x2="640" y2="332.821" gradientUnits="userSpaceOnUse">
<stop stop-color="#5A84FC" stop-opacity="0"/>
<stop offset="0.494792" stop-color="#5A84FC" stop-opacity="0.3"/>
<stop offset="1" stop-color="#5A84FC" stop-opacity="0"/>
</linearGradient>
<linearGradient id="paint1_linear" x1="473.5" y1="76" x2="596" y2="238.5" gradientUnits="userSpaceOnUse">
<stop stop-color="#E4E4FB" stop-opacity="0"/>
<stop offset="1" stop-color="#E4E4FB"/>
</linearGradient>
<linearGradient id="paint2_linear" x1="-45" y1="299.75" x2="640" y2="299.75" gradientUnits="userSpaceOnUse">
<stop stop-color="#5A84FC" stop-opacity="0"/>
<stop offset="0.114583" stop-color="#5A84FC" stop-opacity="0.9"/>
<stop offset="0.494792" stop-color="#5A84FC"/>
<stop offset="0.890625" stop-color="#5A84FC" stop-opacity="0.9"/>
<stop offset="1" stop-color="#5A84FC" stop-opacity="0"/>
</linearGradient>
</defs>
</svg>
