<svg width="18" height="18" viewBox="0 0 18 18" fill="none" xmlns="http://www.w3.org/2000/svg">
<g clip-path="url(#clip0)">
<path d="M12.75 16.5H14.25C14.8467 16.5 15.419 16.2629 15.841 15.841C16.2629 15.419 16.5 14.8467 16.5 14.25V3.75C16.5 3.15326 16.2629 2.58097 15.841 2.15901C15.419 1.73705 14.8467 1.5 14.25 1.5H12.75C12.5511 1.5 12.3603 1.42098 12.2197 1.28033C12.079 1.13968 12 0.948912 12 0.75C12 0.551088 12.079 0.360322 12.2197 0.21967C12.3603 0.0790176 12.5511 0 12.75 0L14.25 0C15.2442 0.00119089 16.1973 0.396661 16.9003 1.09966C17.6033 1.80267 17.9988 2.7558 18 3.75V14.25C17.9988 15.2442 17.6033 16.1973 16.9003 16.9003C16.1973 17.6033 15.2442 17.9988 14.25 18H12.75C12.5511 18 12.3603 17.921 12.2197 17.7803C12.079 17.6397 12 17.4489 12 17.25C12 17.0511 12.079 16.8603 12.2197 16.7197C12.3603 16.579 12.5511 16.5 12.75 16.5Z" fill="#BD9D4A"/>
<path d="M4.09783 3.96969L0.657581 7.40919C0.237053 7.8318 0.000976563 8.40374 0.000976562 8.99994C0.000976563 9.59613 0.237053 10.1681 0.657581 10.5907L4.09708 14.0302C4.16627 14.1018 4.24903 14.159 4.34053 14.1983C4.43203 14.2376 4.53045 14.2583 4.63003 14.2591C4.72961 14.26 4.82837 14.241 4.92055 14.2033C5.01272 14.1656 5.09646 14.1099 5.16688 14.0395C5.2373 13.9691 5.29299 13.8853 5.3307 13.7932C5.36841 13.701 5.38738 13.6022 5.38652 13.5026C5.38565 13.4031 5.36496 13.3046 5.32566 13.2131C5.28635 13.1216 5.22921 13.0389 5.15758 12.9697L1.93933 9.74994H13.5013C13.7002 9.74994 13.891 9.67092 14.0317 9.53027C14.1723 9.38962 14.2513 9.19885 14.2513 8.99994C14.2513 8.80103 14.1723 8.61026 14.0317 8.46961C13.891 8.32896 13.7002 8.24994 13.5013 8.24994H1.93858L5.15833 5.03019C5.22996 4.961 5.2871 4.87824 5.32641 4.78674C5.36571 4.69524 5.3864 4.59682 5.38727 4.49724C5.38813 4.39766 5.36916 4.2989 5.33145 4.20672C5.29374 4.11455 5.23805 4.03081 5.16763 3.96039C5.09721 3.88997 5.01347 3.83428 4.9213 3.79657C4.82912 3.75886 4.73036 3.73989 4.63078 3.74075C4.5312 3.74162 4.43278 3.76231 4.34128 3.80161C4.24977 3.84092 4.16702 3.89806 4.09783 3.96969Z" fill="#BD9D4A"/>
</g>
<rect x="-0.5" y="0.5" width="17" height="17" transform="matrix(-1 0 0 1 17 0)" stroke="#CFCFF2"/>
<defs>
<clipPath id="clip0">
</clipPath>
</defs>
</svg>
