<svg width="18" height="18" viewBox="0 0 18 18" fill="none" xmlns="http://www.w3.org/2000/svg">
<g clip-path="url(#clip0)">
<path d="M17.2502 9.00005C17.0669 8.9979 16.8894 9.06419 16.7523 9.18597C16.6153 9.30775 16.5286 9.47626 16.5092 9.65855C16.3857 11.0866 15.855 12.4492 14.9801 13.5846C14.1053 14.72 12.9229 15.5805 11.5735 16.064C10.2242 16.5474 8.76438 16.6335 7.36753 16.3119C5.97068 15.9904 4.69544 15.2748 3.6932 14.2501H5.75195C5.95087 14.2501 6.14163 14.171 6.28228 14.0304C6.42294 13.8897 6.50195 13.699 6.50195 13.5001C6.50195 13.3011 6.42294 13.1104 6.28228 12.9697C6.14163 12.8291 5.95087 12.7501 5.75195 12.7501H2.75195C2.35413 12.7501 1.9726 12.9081 1.69129 13.1894C1.40999 13.4707 1.25195 13.8522 1.25195 14.2501V17.2501C1.25195 17.449 1.33097 17.6397 1.47162 17.7804C1.61228 17.921 1.80304 18 2.00195 18C2.20087 18 2.39163 17.921 2.53228 17.7804C2.67294 17.6397 2.75195 17.449 2.75195 17.2501V15.4216C3.96489 16.6156 5.49209 17.4404 7.15568 17.8C8.81928 18.1596 10.5508 18.0392 12.1486 17.4528C13.7464 16.8663 15.1447 15.838 16.1807 14.4876C17.2167 13.1372 17.8477 11.5202 18.0002 9.82505C18.0099 9.72061 17.9977 9.61529 17.9645 9.51581C17.9312 9.41633 17.8776 9.32487 17.807 9.24726C17.7365 9.16965 17.6505 9.10758 17.5546 9.06502C17.4588 9.02246 17.3551 9.00033 17.2502 9.00005Z" fill="#BD9D4A"/>
<path d="M15.9971 -0.000902153C15.7982 -0.000902153 15.6074 0.0781155 15.4668 0.218768C15.3261 0.35942 15.2471 0.550186 15.2471 0.749098V2.5776C14.0341 1.38358 12.507 0.558738 10.8434 0.199128C9.17975 -0.160482 7.44822 -0.0400573 5.85042 0.546378C4.25262 1.13281 2.8543 2.16112 1.81833 3.51154C0.782355 4.86197 0.151361 6.47892 -0.00116648 8.1741C-0.010854 8.27854 0.00132035 8.38386 0.0345807 8.48334C0.0678411 8.58282 0.121458 8.67427 0.192016 8.75189C0.262573 8.8295 0.348524 8.89157 0.444392 8.93413C0.54026 8.97669 0.643942 8.99882 0.748834 8.9991C0.932146 9.00125 1.10967 8.93496 1.2467 8.81318C1.38374 8.6914 1.47043 8.52289 1.48983 8.3406C1.61332 6.91255 2.14401 5.54993 3.0189 4.41453C3.89378 3.27912 5.0761 2.41862 6.42549 1.93518C7.77488 1.45174 9.23466 1.36568 10.6315 1.68721C12.0284 2.00874 13.3036 2.72436 14.3058 3.7491H12.2471C12.0482 3.7491 11.8574 3.82812 11.7168 3.96877C11.5761 4.10942 11.4971 4.30019 11.4971 4.4991C11.4971 4.69801 11.5761 4.88878 11.7168 5.02943C11.8574 5.17008 12.0482 5.2491 12.2471 5.2491H15.2471C15.6449 5.2491 16.0264 5.09106 16.3077 4.80976C16.5891 4.52845 16.7471 4.14692 16.7471 3.7491V0.749098C16.7471 0.550186 16.6681 0.35942 16.5274 0.218768C16.3868 0.0781155 16.196 -0.000902153 15.9971 -0.000902153Z" fill="#BD9D4A"/>
</g>
<defs>
<clipPath id="clip0">
<rect width="18" height="18" fill="white"/>
</clipPath>
</defs>
</svg>
