<svg width="18" height="18" viewBox="0 0 18 18" fill="none" xmlns="http://www.w3.org/2000/svg">
<g clip-path="url(#clip0)">
<path d="M10.448 3C11.0581 3.0006 11.643 3.24321 12.0744 3.67461C12.5058 4.106 12.7484 4.69092 12.749 5.301C12.749 5.49991 12.828 5.69068 12.9687 5.83133C13.1093 5.97198 13.3001 6.051 13.499 6.051C13.6979 6.051 13.8887 5.97198 14.0294 5.83133C14.17 5.69068 14.249 5.49991 14.249 5.301V5.25C14.249 5.23575 14.249 5.223 14.249 5.20875C14.224 4.21705 13.8126 3.27434 13.1026 2.58154C12.3926 1.88875 11.44 1.50066 10.448 1.5H9.74902V0.75C9.74902 0.551088 9.67001 0.360322 9.52935 0.21967C9.3887 0.0790176 9.19794 0 8.99902 0C8.80011 0 8.60935 0.0790176 8.46869 0.21967C8.32804 0.360322 8.24902 0.551088 8.24902 0.75V1.5H7.55002C6.64801 1.50096 5.77574 1.82268 5.08912 2.40763C4.4025 2.99259 3.94628 3.80267 3.80201 4.69307C3.65775 5.58347 3.83483 6.49615 4.30162 7.26799C4.7684 8.03983 5.49446 8.62052 6.35002 8.90625L8.24902 9.54V15H7.55002C6.93994 14.9994 6.35502 14.7568 5.92363 14.3254C5.49224 13.894 5.24962 13.3091 5.24902 12.699C5.24902 12.5001 5.17001 12.3093 5.02935 12.1687C4.8887 12.028 4.69794 11.949 4.49902 11.949C4.30011 11.949 4.10935 12.028 3.96869 12.1687C3.82804 12.3093 3.74902 12.5001 3.74902 12.699V12.75C3.74902 12.7642 3.74902 12.777 3.74902 12.7913C3.77405 13.783 4.18542 14.7257 4.89545 15.4185C5.60547 16.1113 6.558 16.4993 7.55002 16.5H8.24902V17.25C8.24902 17.4489 8.32804 17.6397 8.46869 17.7803C8.60935 17.921 8.80011 18 8.99902 18C9.19794 18 9.3887 17.921 9.52935 17.7803C9.67001 17.6397 9.74902 17.4489 9.74902 17.25V16.5H10.448C11.35 16.499 12.2223 16.1773 12.9089 15.5924C13.5955 15.0074 14.0518 14.1973 14.196 13.3069C14.3403 12.4165 14.1632 11.5038 13.6964 10.732C13.2296 9.96017 12.5036 9.37948 11.648 9.09375L9.74902 8.46V3H10.448ZM11.1755 10.5157C11.6941 10.6883 12.1343 11.0399 12.4173 11.5074C12.7003 11.975 12.8077 12.528 12.7202 13.0675C12.6327 13.607 12.356 14.0977 11.9396 14.4518C11.5233 14.8059 10.9946 15.0002 10.448 15H9.74902V10.0402L11.1755 10.5157ZM8.24902 7.95975L6.82402 7.48425C6.30558 7.3117 5.86546 6.96028 5.58242 6.49289C5.29939 6.0255 5.19192 5.47264 5.27925 4.93326C5.36658 4.39387 5.643 3.90317 6.05905 3.54896C6.4751 3.19475 7.00362 3.00015 7.55002 3H8.24902V7.95975Z" fill="#4ABD8C"/>
</g>
<defs>
<clipPath id="clip0">
<rect width="18" height="18" fill="white"/>
</clipPath>
</defs>
</svg>
