<svg width="16" height="24" viewBox="0 0 16 24" fill="none" xmlns="http://www.w3.org/2000/svg">
<circle cx="8" cy="12" r="7.25" stroke="#565D82" stroke-width="1.5"/>
<path d="M7.436 13.78C7.124 13.516 6.968 13.192 6.968 12.808C6.968 12.568 7.02 12.348 7.124 12.148C7.236 11.948 7.372 11.784 7.532 11.656C7.692 11.528 7.864 11.396 8.048 11.26C8.24 11.116 8.416 10.984 8.576 10.864C8.736 10.744 8.868 10.6 8.972 10.432C9.084 10.264 9.14 10.08 9.14 9.88C9.14 9.56 9.016 9.296 8.768 9.088C8.528 8.872 8.18 8.764 7.724 8.764C6.948 8.764 6.312 9.092 5.816 9.748L5.216 9.1C5.848 8.284 6.716 7.876 7.82 7.876C8.532 7.876 9.1 8.056 9.524 8.416C9.956 8.768 10.172 9.208 10.172 9.736C10.172 10.144 10.048 10.508 9.8 10.828C9.56 11.14 9.296 11.38 9.008 11.548C8.72 11.716 8.452 11.916 8.204 12.148C7.964 12.38 7.844 12.624 7.844 12.88C7.844 13.104 7.952 13.3 8.168 13.468L7.436 13.78ZM8.144 15.928C8.016 16.056 7.864 16.12 7.688 16.12C7.512 16.12 7.356 16.056 7.22 15.928C7.092 15.8 7.028 15.644 7.028 15.46C7.028 15.276 7.092 15.12 7.22 14.992C7.356 14.864 7.512 14.8 7.688 14.8C7.864 14.8 8.016 14.864 8.144 14.992C8.28 15.12 8.348 15.276 8.348 15.46C8.348 15.644 8.28 15.8 8.144 15.928Z" fill="#565D82"/>
</svg>
