<svg width="18" height="18" viewBox="0 0 18 18" fill="none" xmlns="http://www.w3.org/2000/svg">
<path d="M12.75 16.5H14.25C14.8467 16.5 15.419 16.2629 15.841 15.841C16.2629 15.419 16.5 14.8467 16.5 14.25V3.75C16.5 3.15326 16.2629 2.58097 15.841 2.15901C15.419 1.73705 14.8467 1.5 14.25 1.5H12.75C12.5511 1.5 12.3603 1.42098 12.2197 1.28033C12.079 1.13968 12 0.948912 12 0.75C12 0.551088 12.079 0.360322 12.2197 0.21967C12.3603 0.0790176 12.5511 0 12.75 0L14.25 0C15.2442 0.00119089 16.1973 0.396661 16.9003 1.09966C17.6033 1.80267 17.9988 2.7558 18 3.75V14.25C17.9988 15.2442 17.6033 16.1973 16.9003 16.9003C16.1973 17.6033 15.2442 17.9988 14.25 18H12.75C12.5511 18 12.3603 17.921 12.2197 17.7803C12.079 17.6397 12 17.4489 12 17.25C12 17.0511 12.079 16.8603 12.2197 16.7197C12.3603 16.579 12.5511 16.5 12.75 16.5Z" fill="#4ABD8C"/>
<path d="M10.1535 14.0303L13.5938 10.5908C14.0143 10.1682 14.2504 9.59626 14.2504 9.00006C14.2504 8.40387 14.0143 7.83193 13.5938 7.40931L10.1535 3.96981C10.012 3.83319 9.8226 3.7576 9.62595 3.75931C9.4293 3.76101 9.24119 3.83989 9.10214 3.97895C8.96308 4.118 8.8842 4.30611 8.88249 4.50276C8.88079 4.69941 8.95638 4.88886 9.093 5.03031L12.312 8.25006H0.75C0.551088 8.25006 0.360322 8.32908 0.21967 8.46973C0.0790178 8.61038 0 8.80115 0 9.00006C0 9.19897 0.0790178 9.38974 0.21967 9.53039C0.360322 9.67104 0.551088 9.75006 0.75 9.75006H12.3127L9.093 12.9698C9.02137 13.039 8.96423 13.1218 8.92492 13.2133C8.88562 13.3048 8.86493 13.4032 8.86406 13.5028C8.8632 13.6023 8.88217 13.7011 8.91988 13.7933C8.95759 13.8854 9.01328 13.9692 9.0837 14.0396C9.15412 14.11 9.23786 14.1657 9.33003 14.2034C9.42221 14.2411 9.52097 14.2601 9.62055 14.2592C9.72014 14.2584 9.81855 14.2377 9.91005 14.1984C10.0016 14.1591 10.0843 14.1019 10.1535 14.0303Z" fill="#4ABD8C"/>
<rect x="0.5" y="0.5" width="17" height="17" stroke="#CFCFF2"/>
</svg>
