<svg xmlns="http://www.w3.org/2000/svg" width="" height="40" viewBox="0 0 175 40" fill="none">
<path d="M0 20C0 26.6328 3.23103 32.5112 8.20585 36.1501C9.03432 36.7564 9.90955 37.2999 10.8275 37.7739C13.5789 39.1974 16.7017 40 20.0129 40C23.3628 40 26.5203 39.1774 29.2944 37.7232C30.3113 37.1903 31.2773 36.5721 32.182 35.879C36.951 32.2227 40.0257 26.4699 40.0257 20C40.0257 8.95373 31.0649 0 20.0129 0C8.96082 0 0 8.95373 0 20Z" fill="#855DA6"/>
<path d="M8.20605 36.15C9.03452 36.7562 9.90976 37.2997 10.8278 37.7738C13.5791 39.1973 16.7019 39.9999 20.0131 39.9999C23.363 39.9999 26.5205 39.1773 29.2946 37.723C30.3115 37.1902 31.2776 36.5719 32.1822 35.8789C32.0766 28.9843 31.9644 22.5892 31.8989 21.4902C31.7626 19.188 31.1626 14.7865 29.3721 14.2444C27.6002 13.7076 26.7905 14.9027 26.7905 14.9027C26.7905 14.9027 26.3508 11.1703 24.0445 10.6215C21.193 9.94312 20.3231 12.4336 20.3231 12.4336C20.3231 12.4336 19.4532 9.94312 16.6003 10.6215C14.294 11.1703 13.8543 14.9027 13.8543 14.9027C13.8543 14.9027 13.0446 13.7076 11.2727 14.2444C9.48216 14.7865 8.88219 19.188 8.74589 21.4902C8.68042 22.6039 8.44658 29.1539 8.20605 36.15Z" fill="#2D2B2C"/>
<path d="M19.9156 19.8933C23.5836 19.8933 26.9629 22.6909 25.0321 24.6206C23.1012 26.5502 21.9627 24.0423 19.8194 24.0423C17.7923 24.0423 16.73 26.0681 14.9929 24.9103C13.2545 23.7526 15.7639 19.8933 19.9156 19.8933Z" fill="#FFA1FF"/>
<path d="M28.8735 15.8711C29.8677 15.9606 30.1175 17.0289 29.9933 18.1146C29.869 19.2003 29.2463 19.924 28.5635 19.8506C27.8793 19.7785 27.3195 18.7649 27.3823 17.6071C27.4437 16.4494 28.0651 15.799 28.8735 15.8711Z" fill="#FFA1FF"/>
<path d="M23.1333 16.1127C22.4492 16.0406 21.8893 15.0271 21.9521 13.8693C22.0149 12.7115 22.6362 12.0598 23.4447 12.1333C24.4388 12.2228 24.6887 13.2911 24.5644 14.3767C24.4402 15.4624 23.8175 16.1848 23.1333 16.1127Z" fill="#FFA1FF"/>
<path d="M17.1226 16.1127C16.4384 16.0406 15.8785 15.0271 15.9413 13.8693C16.0041 12.7115 16.6255 12.0598 17.4339 12.1333C18.4281 12.2228 18.678 13.2911 18.5537 14.3767C18.4294 15.4611 17.8067 16.1848 17.1226 16.1127Z" fill="#FFA1FF"/>
<path d="M10.801 17.6071C10.8638 16.4493 11.4852 15.7976 12.2936 15.8711C13.2878 15.9606 13.5376 17.0289 13.4134 18.1145C13.2891 19.2002 12.6664 19.924 11.9823 19.8505C11.2981 19.7784 10.7396 18.7649 10.801 17.6071Z" fill="#FFA1FF"/>
<g opacity="0.4">
<path opacity="0.4" d="M22.2632 20.9776C23.9949 21.7321 24.7085 22.9901 24.1326 23.5656C23.5486 24.1492 22.6667 22.3838 21.5429 22.1287C20.4886 21.8897 18.7809 21.7829 18.666 21.2661C18.4749 20.4021 20.3938 20.1631 22.2632 20.9776Z" fill="white"/>
<path opacity="0.4" d="M28.784 16.329C29.2356 16.305 29.3305 16.95 29.3599 17.3826C29.384 17.7432 29.3679 18.2653 29.0325 18.3134C28.6971 18.3615 28.641 17.814 28.5448 17.4788C28.4486 17.1436 28.4152 16.3491 28.784 16.329Z" fill="white"/>
<path opacity="0.4" d="M23.5902 14.3608C23.2548 14.4088 23.1986 13.8613 23.1024 13.5261C23.0062 13.191 22.9728 12.3964 23.3416 12.3764C23.7933 12.3523 23.8881 12.9973 23.9175 13.43C23.9416 13.7919 23.9255 14.3127 23.5902 14.3608Z" fill="white"/>
<path opacity="0.4" d="M17.3006 12.4484C17.7522 12.4244 17.8471 13.0694 17.8765 13.502C17.9006 13.8626 17.8845 14.3847 17.5491 14.4328C17.2137 14.4809 17.1576 13.9333 17.0614 13.5982C16.9652 13.263 16.9318 12.4684 17.3006 12.4484Z" fill="white"/>
<path opacity="0.4" d="M12.0023 16.2343C12.4539 16.2103 12.5488 16.8552 12.5782 17.2879C12.6022 17.6485 12.5862 18.1706 12.2508 18.2187C11.9154 18.2667 11.8593 17.7192 11.7631 17.3841C11.6669 17.0489 11.6335 16.2543 12.0023 16.2343Z" fill="white"/>
</g>
<path d="M52.26 12.0278L58.0005 20.9001V12.0278H61.8275V27.6825H58.0887L51.9246 18.232V27.6825H48.0977V12.0278H52.26Z" fill="#BBCCFB" class="text_character"/>
<path d="M72.0419 27.6825H68.0585V21.8562L62.6294 12.0278H66.9241L70.0616 18.0544L73.1991 12.0278H77.4496L72.0432 21.8122V27.6825H72.0419Z" fill="#BBCCFB" class="text_character"/>
<path d="M81.2523 12.0278H85.3906L91.0429 27.6825H86.9714L85.9919 24.8141H80.6523L79.7183 27.6825H75.624L81.2523 12.0278ZM83.2994 16.5428L81.6972 21.5678H84.9243L83.2994 16.5428Z" fill="#BBCCFB" class="text_character"/>
<path d="M96.9399 12.0278L102.68 20.9001V12.0278H106.507V27.6825H102.77L96.6058 18.232V27.6825H92.7788V12.0278H96.9399Z" fill="#BBCCFB" class="text_character"/>
<path d="M118.3 27.6825H114.316V12.0278H124.997V15.5639H118.3V18.455H124.485V21.8349H118.3V27.6825Z" fill="#BBCCFB" class="text_character"/>
<path d="M127.334 21.2339V12.0278H131.317V21.1231C131.317 22.1754 131.562 22.9913 132.051 23.5695C132.54 24.1477 133.223 24.4362 134.098 24.4362C134.973 24.4362 135.656 24.1477 136.145 23.5695C136.634 22.9913 136.88 22.1767 136.88 21.1231V12.0278H140.863V21.2339C140.863 23.4574 140.243 25.1359 139.006 26.271C137.767 27.4047 136.132 27.9723 134.099 27.9723C132.067 27.9723 130.431 27.4047 129.193 26.271C127.953 25.1373 127.334 23.4574 127.334 21.2339Z" fill="#BBCCFB" class="text_character"/>
<path d="M147.939 12.0278L153.679 20.9001V12.0278H157.506V27.6825H153.769L147.605 18.232V27.6825H143.778V12.0278H147.939Z" fill="#BBCCFB" class="text_character"/>
<path d="M166.34 12.0278C168.847 12.0278 170.779 12.7209 172.137 14.107C173.494 15.4931 174.173 17.4094 174.173 19.8558C174.173 22.3023 173.494 24.2185 172.137 25.6047C170.779 26.9908 168.847 27.6838 166.34 27.6838H160.533V12.0278H166.34ZM166.05 24.2359C167.385 24.2359 168.398 23.854 169.087 23.0901C169.777 22.3263 170.122 21.2486 170.122 19.8545C170.122 18.4617 169.777 17.3827 169.087 16.6189C168.398 15.855 167.385 15.4731 166.05 15.4731H164.515V24.2346H166.05V24.2359Z" fill="#BBCCFB" class="text_character"/>
</svg>