<svg width="539" height="" viewBox="0 0 539 227" fill="none" xmlns="http://www.w3.org/2000/svg">
<path d="M386.628 153.21H352.954V166.436H386.628V153.21Z" fill="#6633FF"/>
<path d="M386.628 139.958H352.954V153.21H386.628V139.958Z" fill="#0099FF"/>
<path d="M386.637 126.683H353.02V139.909H386.637V126.683Z" fill="#33FF00"/>
<path d="M386.677 113.439H352.954V126.687H386.677V113.439Z" fill="#FFFF00"/>
<path d="M386.624 100.155H352.954V113.439H386.624V100.155Z" fill="#FF9900"/>
<path d="M386.629 86.8978H352.955V100.151H386.629V86.8978Z" fill="#FF0000"/>
<path d="M352.954 158.612H315.781V171.861H352.954V158.612Z" fill="#6633FF"/>
<path d="M352.954 145.293H315.777V158.612H352.954V145.293Z" fill="#0099FF"/>
<path d="M352.954 132.045H315.777V145.293H352.954V132.045Z" fill="#33FF00"/>
<path d="M352.954 118.743H315.777V132.045H352.954V118.743Z" fill="#FFFF00"/>
<path d="M352.954 105.486H315.777V118.743H352.954V105.486Z" fill="#FF9900"/>
<path d="M352.954 92.1804H315.777V105.486H352.954V92.1804Z" fill="#FF0000"/>
<path d="M315.781 163.913H278.583V177.161H315.781V163.913Z" fill="#6633FF"/>
<path d="M315.777 150.593H278.583V163.913H315.777V150.593Z" fill="#0099FF"/>
<path d="M315.777 137.345H278.583V150.593H315.777V137.345Z" fill="#33FF00"/>
<path d="M315.777 124.044H278.583V137.345H315.777V124.044Z" fill="#FFFF00"/>
<path d="M315.777 110.733H278.583V124.044H315.777V110.733Z" fill="#FF9900"/>
<path d="M315.782 97.4938H278.583V110.729H315.782V97.4938Z" fill="#FF0000"/>
<path d="M278.582 169.222H241.388V182.47H278.582V169.222Z" fill="#6633FF"/>
<path d="M278.582 155.947H241.388V169.222H278.582V155.947Z" fill="#0099FF"/>
<path d="M278.582 142.654H241.388V155.947H278.582V142.654Z" fill="#33FF00"/>
<path d="M278.582 129.313H241.388V142.654H278.582V129.313Z" fill="#FFFF00"/>
<path d="M278.582 116.038H241.388V129.348H278.582V116.038Z" fill="#FF9900"/>
<path d="M278.582 102.812H241.388V116.042H278.582V102.812Z" fill="#FF0000"/>
<path d="M241.388 163.846H204.193V177.165H241.388V163.846Z" fill="#6633FF"/>
<path d="M241.388 150.598H204.193V163.846H241.388V150.598Z" fill="#0099FF"/>
<path d="M241.388 137.349H204.198V150.598H241.388V137.349Z" fill="#33FF00"/>
<path d="M241.388 123.995H204.198V137.354H241.388V123.995Z" fill="#FFFF00"/>
<path d="M241.388 110.747H204.198V123.995H241.388V110.747Z" fill="#FF9900"/>
<path d="M241.389 97.4982H204.199V110.747H241.389V97.4982Z" fill="#FF0000"/>
<path d="M204.193 158.497H166.888V171.892H204.193V158.497Z" fill="#6633FF"/>
<path d="M204.193 145.196H166.888V158.497H204.193V145.196Z" fill="#0099FF"/>
<path d="M204.193 132.036H166.888V145.196H204.193V132.036Z" fill="#33FF00"/>
<path d="M204.198 118.686H166.888V132.036H204.198V118.686Z" fill="#FFFF00"/>
<path d="M204.198 105.433H166.888V118.686H204.198V105.433Z" fill="#FF9900"/>
<path d="M204.193 92.1848H166.888V105.433H204.193V92.1848Z" fill="#FF0000"/>
<path d="M166.888 153.126H129.804V166.392H166.888V153.126Z" fill="#6633FF"/>
<path d="M166.888 139.935H129.804V153.126H166.888V139.935Z" fill="#0099FF"/>
<path d="M166.888 126.722H129.804V139.931H166.888V126.722Z" fill="#33FF00"/>
<path d="M166.888 113.403H129.804V126.722H166.888V113.403Z" fill="#FFFF00"/>
<path d="M166.888 100.053H129.804V113.403H166.888V100.053Z" fill="#FF9900"/>
<path d="M166.888 86.8712H129.804V100.053H166.888V86.8712Z" fill="#FF0000"/>
<path d="M129.804 158.621H92.6099V171.865H129.804V158.621Z" fill="#6633FF"/>
<path d="M129.804 145.302H92.6099V158.621H129.804V145.302Z" fill="#0099FF"/>
<path d="M129.804 132.036H92.6099V145.302H129.804V132.036Z" fill="#33FF00"/>
<path d="M129.804 118.752H92.6099V132.036H129.804V118.752Z" fill="#FFFF00"/>
<path d="M129.804 105.451H92.6099V118.757H129.804V105.451Z" fill="#FF9900"/>
<path d="M129.804 92.1803H92.6099V105.446H129.804V92.1803Z" fill="#FF0000"/>
<path d="M92.6099 163.913H55.3047V177.161H92.6099V163.913Z" fill="#6633FF"/>
<path d="M92.6099 150.593H55.3047V163.913H92.6099V150.593Z" fill="#0099FF"/>
<path d="M92.6099 137.345H55.3047V150.593H92.6099V137.345Z" fill="#33FF00"/>
<path d="M92.6098 124.079H55.3047V137.345H92.6098V124.079Z" fill="#FFFF00"/>
<path d="M92.6099 110.733H55.3047V124.083H92.6099V110.733Z" fill="#FF9900"/>
<path d="M92.6099 97.4938H55.3047V110.729H92.6099V97.4938Z" fill="#FF0000"/>
<path d="M55.3624 169.261H18.3008V182.51H55.3624V169.261Z" fill="#6633FF"/>
<path d="M55.3093 155.942H18.3008V169.261H55.3093V155.942Z" fill="#0099FF"/>
<path d="M55.3093 142.694H18.3008V155.942H55.3093V142.694Z" fill="#33FF00"/>
<path d="M55.3093 129.357H18.3008V142.698H55.3093V129.357Z" fill="#FFFF00"/>
<path d="M55.358 116.135H18.3008V129.393H55.358V116.135Z" fill="#FF9900"/>
<path d="M55.3093 102.807H18.3008V116.135H55.3093V102.807Z" fill="#FF0000"/>
<path d="M489.36 174.097L438.138 176.39L393.903 174.46L388.408 168.788L385.556 132.505L389.183 94.3854L394.492 89.0631L441.529 86.4285L484.75 89.0631L490.059 94.3721L492.03 136.911L489.36 174.097Z" fill="#FFCC9A"/>
<path d="M405.11 168.624V163.395L399.801 163.474L399.743 158.05L394.43 158.108L394.492 104.99L399.854 105.026L399.801 99.6813L405.11 99.6591V94.3988L474.132 94.3722V99.6813H479.441V104.99H484.75V168.704L405.11 168.624Z" fill="#FF99FF"/>
<path d="M415.675 131.518H410.361V136.831H415.675V131.518Z" fill="#FE339A"/>
<path d="M436.969 136.845H431.66V142.154H436.969V136.845Z" fill="#FE3399"/>
<path d="M431.66 126.231L426.351 126.227V120.918H431.66V126.231Z" fill="#FF3399"/>
<path d="M436.969 99.6813H431.66V104.99H436.969V99.6813Z" fill="#FF3399"/>
<path d="M410.419 104.99H405.11V110.299H410.419V104.99Z" fill="#FF3399"/>
<path d="M426.351 158.085L421.05 158.072V152.785H426.337L426.351 158.085Z" fill="#FE339A"/>
<path d="M405.11 142.158H399.801V147.467H405.11V142.158Z" fill="#FF339A"/>
<path d="M474.146 115.613L468.819 115.608V110.313H474.132L474.146 115.613Z" fill="#FF3399"/>
<path d="M452.896 99.6813H447.587V104.99H452.896V99.6813Z" fill="#FF3399"/>
<path d="M410.419 158.085H405.11V163.395H410.419V158.085Z" fill="#FF3399"/>
<path d="M442.278 163.395L442.287 136.854L447.587 115.608H458.205L463.514 120.918L468.823 126.227L478.689 128.936L490.073 126.244L494.665 120.975L500.678 115.608H511.296L516.609 136.849V163.395L511.296 168.704L505.987 174.013L479.906 176.297L452.896 174.066L447.582 168.704L442.278 163.395Z" fill="#999999"/>
<path d="M352.024 131.5L350.168 137.611L354.707 138.753L357.333 142.154L377.622 148.309L385.702 148.973L385.968 140.449L377.989 136.207L367.327 129.787L352.024 131.5Z" fill="#999999"/>
<path d="M389.577 173.605L373.256 174.013L371.679 185.654L383.874 184.631L389.183 179.322L389.577 173.605Z" fill="#999999"/>
<path d="M399.796 184.635L399.486 178.861L410.777 179.1V184.896L399.796 184.635Z" fill="#999999"/>
<path d="M452.52 179.03L463.851 178.945L463.74 184.839L452.905 184.631L452.52 179.03Z" fill="#999999"/>
<path d="M477.803 178.715L490.75 178.777L490.569 185.463L479.446 184.618L477.803 178.715Z" fill="#999999"/>
<path d="M463.514 142.158H458.205V147.467H463.514V142.158Z" fill="white"/>
<path d="M500.677 142.158H495.368V147.467H500.677V142.158Z" fill="white"/>
<path d="M442.278 136.845H436.969V163.394H442.278V136.845Z" fill="black"/>
<path d="M458.205 110.299H447.587V115.608H458.205V110.299Z" fill="black"/>
<path d="M447.586 115.608H442.277V136.845H447.586V115.608Z" fill="black"/>
<path d="M463.514 115.608H458.205V120.918H463.514V115.608Z" fill="black"/>
<path d="M468.823 120.922H463.514V126.231H468.823V120.922Z" fill="black"/>
<path d="M490.059 126.227H468.823V131.536H490.059V126.227Z" fill="black"/>
<path d="M500.673 110.299H511.295V115.613L500.677 115.608L500.673 110.299Z" fill="black"/>
<path d="M516.609 115.613H511.3V136.849H516.609V115.613Z" fill="black"/>
<path d="M521.918 136.849H516.609V163.394H521.918V136.849Z" fill="black"/>
<path d="M516.609 163.394H511.3V168.704H516.609V163.394Z" fill="black"/>
<path d="M511.295 168.704H505.986V174.013H511.295V168.704Z" fill="black"/>
<path d="M447.587 163.395H442.278V168.704H447.587V163.395Z" fill="black"/>
<path d="M357.333 142.154H346.71V131.536H352.019V136.849H357.328L357.333 142.154Z" fill="black"/>
<path d="M394.492 89.0631H389.183V94.3722H394.492V89.0631Z" fill="black"/>
<path d="M367.946 189.94V174.013H373.255V184.631H383.873V189.94H367.946Z" fill="black"/>
<path d="M389.183 179.322H383.874V184.631H389.183V179.322Z" fill="black"/>
<path d="M484.75 83.754H394.492V89.0631H484.75V83.754Z" fill="black"/>
<path d="M490.064 89.0631H484.75V94.3722H490.059L490.064 89.0631Z" fill="black"/>
<path d="M468.823 152.776H458.205V147.467H463.514V142.158H468.823V152.776Z" fill="black"/>
<path d="M505.986 142.158H500.677L500.682 147.467H495.368V152.776H505.991L505.986 142.158Z" fill="black"/>
<path d="M490.064 147.458H484.75V152.772H490.064V147.458Z" fill="black"/>
<path d="M383.873 94.3722H389.182V168.704H394.492V174.013L447.591 174.017L447.587 168.704H452.896L452.9 174.017L505.986 174.013L505.995 179.313L495.377 179.308V189.931H479.45L479.437 184.626L490.059 184.631V179.322L479.445 179.313L479.437 184.626L474.141 184.622L474.132 179.313L468.823 179.322V189.94H452.896V184.631H463.514V179.322H452.896V184.631H447.587V179.322H415.728V189.94H399.801V184.631H410.419V179.322H399.801V184.631H394.492V179.322H389.182V174.013H373.255V168.704H378.564V163.395H383.873V152.776H373.255V147.467L357.333 147.458V142.154L378.573 142.149L378.564 147.467H383.873V142.158L378.573 142.149V136.84H367.955V131.531H352.023V126.227H373.255L373.264 131.531L383.882 131.527L383.873 94.3722Z" fill="black"/>
<path d="M463.514 158.085V168.704H500.677V158.085H495.368V163.395H484.75V158.085H479.441V163.395H468.823V158.085H463.514Z" fill="black"/>
<path d="M490.059 94.3722H495.368V115.608H500.677V120.918L495.368 120.922V126.227H490.059V94.3722Z" fill="black"/>
<path d="M458.205 152.776H447.587V163.395H458.205V152.776Z" fill="#FF9999"/>
<path d="M516.609 152.776H505.991V163.394H516.609V152.776Z" fill="#FF9999"/>
</svg>
